<?xml version="1.0" standalone="no"?>
<!DOCTYPE svg PUBLIC "-//W3C//DTD SVG 1.1//EN" "http://www.w3.org/Graphics/SVG/1.1/DTD/svg11.dtd" >
<svg xmlns="http://www.w3.org/2000/svg" xmlns:xlink="http://www.w3.org/1999/xlink" version="1.1">
<metadata>
Created by FontForge 20170731 at Tue Dec 12 17:12:31 2017
 By Aleksey,,,
</metadata>
<defs>
<font id="PoppinsVN-600" horiz-adv-x="676" >
  <font-face 
    font-family="PoppinsVN 600"
    font-weight="400"
    font-stretch="normal"
    units-per-em="1000"
    panose-1="0 0 5 0 0 0 0 0 0 0"
    ascent="800"
    descent="-200"
    x-height="554"
    cap-height="706"
    bbox="-359 -278 1188 1088"
    underline-thickness="50"
    underline-position="-150"
    unicode-range="U+000D-FB02"
  />
<missing-glyph horiz-adv-x="502" 
d="M412 -264h-319v1004h319v-1004zM169 673v-33h65v-38h-66v-33h166v33h-66v38h66v33h-165zM168 543v-104h166v34h-66v70h-100zM234 473h-33v36h33v-36zM168 412v-33h66v-38h-66v-33h100v71h66v33h-166zM301 351v-66h-133v-34h166v100h-33zM234 229v-56h34v23h33v-47h-100
v80h-33v-113h166v113h-100zM168 55v-113h166v113h-166zM301 -25h-100v47h100v-47zM168 -81v-33h70l-70 -48v-33h166v33h-102l70 48h32v33h-166z" />
    <glyph glyph-name=".notdef" horiz-adv-x="502" 
d="M412 -264h-319v1004h319v-1004zM169 673v-33h65v-38h-66v-33h166v33h-66v38h66v33h-165zM168 543v-104h166v34h-66v70h-100zM234 473h-33v36h33v-36zM168 412v-33h66v-38h-66v-33h100v71h66v33h-166zM301 351v-66h-133v-34h166v100h-33zM234 229v-56h34v23h33v-47h-100
v80h-33v-113h166v113h-100zM168 55v-113h166v113h-166zM301 -25h-100v47h100v-47zM168 -81v-33h70l-70 -48v-33h166v33h-102l70 48h32v33h-166z" />
    <glyph glyph-name=".null" horiz-adv-x="0" 
 />
    <glyph glyph-name=".null" horiz-adv-x="0" 
 />
    <glyph glyph-name="nonmarkingreturn" unicode="&#xd;" horiz-adv-x="250" 
 />
    <glyph glyph-name="space" unicode=" " horiz-adv-x="218" 
 />
    <glyph glyph-name="exclam" unicode="!" horiz-adv-x="351" 
d="M259 735l-18 -500h-119l-18 500h155zM258 147v-147h-152v147h152z" />
    <glyph glyph-name="quotedbl" unicode="&#x22;" horiz-adv-x="372" 
d="M160 799l-10 -213h-95l-12 213h117zM329 799l-10 -213h-95l-12 213h117z" />
    <glyph glyph-name="numbersign" unicode="#" horiz-adv-x="857" 
d="M675 439l-30 -137h129v-128h-156l-37 -174h-131l37 174h-184l-37 -174h-131l37 174h-150v128h177l30 137h-146v128h173l37 173h131l-37 -173h184l37 173h131l-37 -173h133v-128h-160zM544 439h-184l-30 -137h184z" />
    <glyph glyph-name="dollar" unicode="$" horiz-adv-x="613" 
d="M324 415q41 -13 85 -27.5t80.5 -38t60 -60.5t23.5 -96q0 -39 -15.5 -75t-46.5 -64t-77.5 -44.5t-108.5 -16.5h-1v-80h-38v82q-51 4 -94 20.5t-75 43.5t-51 63.5t-22 81.5h150q4 -35 27 -63t65 -36v196q-41 12 -84 26t-78.5 37.5t-58.5 60.5t-23 95q0 45 18.5 81t51 61.5
t77.5 39t97 14.5v84h38v-85q106 -8 166.5 -61.5t68.5 -135.5h-152q-5 32 -26 55.5t-57 31.5v-190zM193 526q0 -39 26 -61t67 -37v180q-43 -2 -68 -22.5t-25 -59.5zM324 101q48 1 73 26t25 63q0 40 -28 62t-70 36v-187z" />
    <glyph glyph-name="percent" unicode="%" horiz-adv-x="749" 
d="M187 717q34 0 63 -10.5t50.5 -31t33.5 -50t12 -68.5q0 -38 -12 -68t-33.5 -50.5t-50.5 -31t-63 -10.5t-63 10.5t-50.5 31t-33.5 50.5t-12 68q0 39 12 68.5t33.5 50t50.5 31t63 10.5zM639 708l-393 -708h-136l393 708h136zM123 557q0 -35 17 -55t46 -20t47 20t18 55
t-18 55t-47 20t-46 -20t-17 -55zM563 311q68 0 113 -41.5t45 -118.5t-45 -118.5t-113 -41.5q-34 0 -63 10.5t-50.5 31t-33.5 50t-12 68.5t12 68.5t33.5 50t50.5 31t63 10.5zM499 151q0 -35 17 -55.5t46 -20.5t47 20.5t18 55.5t-18 55.5t-47 20.5t-46 -20.5t-17 -55.5z" />
    <glyph glyph-name="ampersand" unicode="&#x26;" horiz-adv-x="689" 
d="M543 0l-108 126q-3 -8 -6 -15.5t-8 -15.5q-18 -45 -62 -73.5t-106 -28.5q-51 0 -92.5 16.5t-70 45t-44 68t-15.5 85.5q0 47 14 84.5t38 64t56.5 41.5t69.5 16l-12 18q-18 25 -30 52.5t-12 64.5q0 31 12.5 60.5t37 52.5t61 37t85.5 14q48 0 83 -12t59 -31.5t38 -45.5
t20 -54q7 -20 9 -41.5t0 -41.5h-131v18.5t-2 15.5q-1 36 -20 55.5t-53 19.5q-32 0 -49.5 -18.5t-17.5 -43.5t11 -43t28 -39l359 -452h-142zM254 111q44 0 71 26.5t27 68.5q0 23 -9 41.5t-23.5 32t-33.5 21t-40 7.5q-40 0 -67 -24t-27 -72t30 -74.5t72 -26.5z" />
    <glyph glyph-name="quotesingle" unicode="'" horiz-adv-x="207" 
d="M164 799l-13 -213h-95l-13 213h121z" />
    <glyph glyph-name="parenleft" unicode="(" horiz-adv-x="400" 
d="M32 402q0 100 21 188t57 162.5t85 134.5t106 104h137v-14q-138 -114 -204 -257t-66 -318q0 -174 66 -317.5t204 -257.5v-13h-137q-57 44 -106 103.5t-85 134t-57 162.5t-21 188z" />
    <glyph glyph-name="parenright" unicode=")" horiz-adv-x="402" 
d="M370 403q0 -100 -21 -188.5t-57 -162.5t-85 -134t-106 -104h-137v13q138 114 204 257.5t66 317.5q0 175 -66 318t-204 257v14h137q57 -44 106 -104t85 -134t57 -162t21 -188z" />
    <glyph glyph-name="asterisk" unicode="*" horiz-adv-x="508" 
d="M398 687l50 -91l-131 -47l131 -46l-53 -94l-107 90l23 -139h-104l22 139l-108 -91l-55 95l131 47l-129 46l51 91l110 -88l-23 139h105l-23 -139z" />
    <glyph glyph-name="plus" unicode="+" horiz-adv-x="566" 
d="M538 291h-187v-190h-136v190h-187v129h187v191h136v-191h187v-129z" />
    <glyph glyph-name="comma" unicode="," horiz-adv-x="213" 
d="M153 91q17 -39 22 -83t-6 -81.5t-41.5 -62t-83.5 -24.5v54q25 0 37.5 12t12.5 45v10h-64v130h123z" />
    <glyph glyph-name="hyphen" unicode="-" horiz-adv-x="523" 
d="M423 415v-117h-425v117h425z" />
    <glyph glyph-name="period" unicode="." horiz-adv-x="211" 
d="M181 147v-147h-152v147h152z" />
    <glyph glyph-name="slash" unicode="/" horiz-adv-x="383" 
d="M397 947l-271 -1128h-136l271 1128h136z" />
    <glyph glyph-name="zero" unicode="0" horiz-adv-x="632" 
d="M47 359q0 77 13.5 142.5t45 113.5t83.5 75t128 27q75 0 126.5 -27t83 -75t45.5 -113.5t14 -142.5t-14 -143t-45.5 -114t-83 -75t-126.5 -27q-76 0 -128 27t-83.5 75t-45 114t-13.5 143zM447 359q0 47 -4.5 87.5t-18.5 71.5t-39.5 48.5t-67.5 17.5t-68 -17.5t-40 -48.5
t-18.5 -71.5t-4.5 -87.5t4.5 -88t18.5 -72t40 -48.5t68 -17.5t67.5 17.5t39.5 48.5t18.5 72t4.5 88z" />
    <glyph glyph-name="one" unicode="1" horiz-adv-x="330" 
d="M12 574v132h254v-706h-148v574h-106z" />
    <glyph glyph-name="two" unicode="2" horiz-adv-x="566" 
d="M37 111q69 48 130.5 98t108 100t73.5 98.5t27 93.5t-21 73t-72 28q-52 0 -77 -34.5t-28 -100.5h-137q3 65 24 112.5t55 79t78.5 47t95.5 15.5q56 0 98 -15t70.5 -42.5t43 -65.5t14.5 -84q0 -59 -27 -116t-69.5 -108t-95 -94.5t-103.5 -74.5h309v-115h-497v105z" />
    <glyph glyph-name="three" unicode="3" horiz-adv-x="599" 
d="M301 733q56 0 98.5 -15t71 -41t43.5 -61t15 -75q0 -69 -37.5 -112t-97.5 -53v-5q32 -9 59 -23.5t46.5 -35.5t31 -49t11.5 -66q0 -44 -15 -81.5t-44.5 -64.5t-73 -42.5t-100.5 -15.5t-104 14t-81.5 43t-55.5 73t-25 105h138q5 -53 34.5 -85t87.5 -32q50 0 76 27t26 69
q0 51 -38.5 78t-115.5 27h-29v115h29q61 -1 100.5 20.5t39.5 76.5q0 44 -25 68t-68 24q-45 0 -73.5 -28t-33.5 -80h-138q6 108 69.5 166.5t178.5 58.5z" />
    <glyph glyph-name="four" unicode="4" horiz-adv-x="652" 
d="M39 142v117l338 455h151v-450h92v-122h-92v-142h-142v142h-347zM397 549l-214 -285h214v285z" />
    <glyph glyph-name="five" unicode="5" horiz-adv-x="633" 
d="M552 596h-335v-178q23 27 63 43.5t90 16.5q57 0 98 -19t67.5 -51t39 -74t12.5 -88q0 -55 -15.5 -100.5t-46.5 -78.5t-77 -51.5t-106 -18.5q-58 0 -105 16t-80 45t-52 69.5t-21 89.5h137q8 -43 36 -70.5t78 -27.5q60 0 87.5 36.5t27.5 93.5q0 56 -29.5 87t-85.5 31
q-42 0 -69.5 -18t-39.5 -46h-137v417h463v-124z" />
    <glyph glyph-name="six" unicode="6" horiz-adv-x="625" 
d="M421 514q-8 49 -33 76.5t-73 27.5q-70 0 -102 -61t-28 -193q17 48 63 76.5t108 28.5q101 0 160 -60.5t59 -175.5q0 -51 -15.5 -95t-46.5 -76.5t-77 -50.5t-107 -18q-83 0 -135.5 28.5t-82.5 77.5t-41 114.5t-11 138.5q0 188 61 283.5t204 95.5q57 0 98.5 -17.5
t69.5 -47.5t42.5 -69t18.5 -83h-132zM197 243q0 -26 7.5 -49.5t23 -41t40 -28t57.5 -10.5q53 0 85.5 31t32.5 90q0 62 -33 93t-87 31q-24 0 -46.5 -7t-40 -21.5t-28.5 -36t-11 -51.5z" />
    <glyph glyph-name="seven" unicode="7" horiz-adv-x="508" 
d="M486 607l-258 -607h-146l261 591h-327v121h470v-105z" />
    <glyph glyph-name="eight" unicode="8" horiz-adv-x="637" 
d="M68 545q0 37 15.5 72t47 62t78.5 43t109 16q63 0 109.5 -16t78 -43t47 -62t15.5 -72q0 -57 -27.5 -98t-84.5 -61q63 -23 96.5 -68.5t33.5 -111.5q0 -54 -20.5 -95.5t-56.5 -70t-85 -43t-106 -14.5t-106 14.5t-84.5 43t-56 70t-20.5 95.5q0 66 33.5 111.5t96.5 68.5
q-57 20 -85 61t-28 98zM207 522q0 -50 30.5 -75t80.5 -25q51 0 81.5 25t30.5 75q0 49 -31 75t-81 26q-49 0 -80 -26t-31 -75zM188 214q0 -54 35 -84.5t95 -30.5t95.5 30.5t35.5 84.5q0 56 -38 83.5t-93 27.5q-54 0 -92 -27.5t-38 -83.5z" />
    <glyph glyph-name="nine" unicode="9" horiz-adv-x="604" 
d="M196 210q8 -50 34 -77t74 -27q70 0 101 61t27 193q-17 -48 -63 -76.5t-108 -28.5q-101 0 -160 60.5t-59 175.5q0 51 15.5 95t46.5 76t77 50.5t107 18.5q83 0 135.5 -27.5t82.5 -75.5t41 -112.5t11 -137.5q0 -90 -13 -161t-43 -121t-78.5 -76.5t-119.5 -26.5
q-57 0 -100.5 17.5t-73 47.5t-46 69.5t-20.5 82.5h132zM420 481q0 26 -7.5 49.5t-23 41t-40 28t-57.5 10.5q-53 0 -85.5 -31t-32.5 -90q0 -62 33 -93.5t87 -31.5q24 0 46.5 7t40 21.5t28.5 36.5t11 52z" />
    <glyph glyph-name="colon" unicode=":" horiz-adv-x="244" 
d="M202 563v-147h-152v147h152zM202 147v-147h-152v147h152z" />
    <glyph glyph-name="semicolon" unicode=";" horiz-adv-x="316" 
d="M243 558v-147h-152v147h152zM220 91q17 -39 22 -83t-6 -81.5t-41.5 -62t-83.5 -24.5v54q25 0 37.5 12t12.5 45v10h-64v130h123z" />
    <glyph glyph-name="less" unicode="&#x3c;" horiz-adv-x="451" 
d="M246 132l-218 224l218 225h177l-219 -225l219 -224h-177z" />
    <glyph glyph-name="equal" unicode="=" horiz-adv-x="601" 
d="M573 539v-128h-545v128h545zM573 300v-127h-545v127h545z" />
    <glyph glyph-name="greater" unicode="&#x3e;" horiz-adv-x="451" 
d="M28 581h176l219 -225l-219 -224h-176l218 224z" />
    <glyph glyph-name="question" unicode="?" horiz-adv-x="516" 
d="M262 748q50 0 91.5 -13.5t71.5 -39.5t46.5 -64.5t16.5 -89.5t-17 -90t-48 -65t-74 -39t-95 -14v-101h-133v193h57q35 0 66.5 4.5t54.5 17.5t36.5 35t13.5 58q0 45 -25 69t-67 24q-47 0 -73.5 -26.5t-26.5 -68.5h-133q-1 45 14.5 83t46 66.5t75 44.5t102.5 16zM265 147
v-147h-152v147h152z" />
    <glyph glyph-name="at" unicode="@" horiz-adv-x="1221" 
d="M675 809q120 0 215 -31t161 -90t101.5 -144.5t35.5 -194.5q0 -76 -23.5 -141.5t-63 -113.5t-91.5 -75t-109 -27q-63 0 -106.5 29t-49.5 99q-32 -60 -82 -94t-125 -34q-50 0 -91 19.5t-69 54.5t-41 85t-8 110q5 66 30.5 121t67.5 94.5t97 62t119 22.5q60 0 107.5 -18.5
t78.5 -52.5t44 -82t5 -108l-16 -108q-7 -45 6.5 -61t42.5 -16q25 0 49 14.5t43 43t30.5 71.5t11.5 100q0 78 -25 142.5t-74.5 110.5t-122.5 71.5t-169 25.5q-115 0 -203 -36t-147.5 -99t-90 -148t-30.5 -182q0 -180 106.5 -280.5t314.5 -100.5l-26 -115q-128 2 -227.5 36
t-167 97.5t-102.5 154.5t-35 208q0 132 48.5 239.5t133.5 183t200 116.5t247 41zM744 295q5 72 -31 108t-94 36q-30 0 -57.5 -11.5t-48.5 -34t-34 -55t-15 -75.5q-2 -36 6.5 -64t25 -46.5t40 -28t50.5 -9.5q29 0 56 11.5t49 34t36.5 56t16.5 78.5z" />
    <glyph glyph-name="A" unicode="A" horiz-adv-x="704" 
d="M494 142h-283l-50 -142h-149l260 698h161l259 -698h-149zM456 249l-104 298l-104 -298h208z" />
    <glyph glyph-name="B" unicode="B" horiz-adv-x="634" 
d="M458 364q65 -14 103 -61.5t38 -110.5q0 -88 -58 -140t-174 -52h-303v706h297q109 0 165.5 -47t56.5 -132q0 -69 -35.5 -109.5t-89.5 -53.5zM205 410h127q54 0 81 23.5t27 67.5q0 42 -26.5 67t-83.5 25h-125v-183zM339 115q57 0 86.5 24.5t29.5 71.5t-30 72.5t-87 25.5
h-133v-194h134z" />
    <glyph glyph-name="C" unicode="C" horiz-adv-x="759" 
d="M383 713q68 0 123.5 -18t97.5 -51.5t71 -80t42 -103.5h-148q-22 55 -69.5 89t-118.5 34q-42 0 -78 -16t-62.5 -46t-41 -72.5t-14.5 -95.5q0 -52 14.5 -94.5t41 -72.5t62.5 -46t78 -16q71 0 118.5 34t69.5 89h148q-13 -57 -42 -103.5t-71 -80t-97.5 -51.5t-123.5 -18
q-77 0 -140 26.5t-107.5 74t-69 113.5t-24.5 145q0 80 24.5 146t69 113.5t107.5 74t140 26.5z" />
    <glyph glyph-name="D" unicode="D" horiz-adv-x="727" 
d="M685 354q0 -79 -25 -144t-72.5 -111.5t-116 -72.5t-156.5 -26h-251v706h251q88 0 156.5 -25t116 -71.5t72.5 -111t25 -144.5zM303 126q115 0 177 59.5t62 168.5t-62 169t-177 60h-98v-457h98z" />
    <glyph glyph-name="E" unicode="E" horiz-adv-x="525" 
d="M205 594v-183h250v-108h-250v-190h280v-113h-421v706h421v-112h-280z" />
    <glyph glyph-name="F" unicode="F" horiz-adv-x="533" 
d="M502 706v-112h-297v-189h238v-108h-238v-297h-141v706h438z" />
    <glyph glyph-name="G" unicode="G" horiz-adv-x="768" 
d="M391 713q66 0 120 -16.5t95.5 -47.5t68.5 -74.5t39 -96.5h-148q-20 46 -64.5 75.5t-109.5 29.5q-46 0 -84 -16t-65.5 -46t-42.5 -72.5t-15 -95.5q0 -113 59.5 -174t162.5 -61q75 0 129.5 44t71.5 126h-239v101h357v-136q-11 -51 -38 -98t-69 -82.5t-99 -57t-128 -21.5
q-79 0 -144 26.5t-110.5 74t-70.5 113.5t-25 145t25 145t70.5 114t110 74.5t143.5 26.5z" />
    <glyph glyph-name="H" unicode="H" horiz-adv-x="713" 
d="M649 706v-706h-142v307h-302v-307h-141v706h141v-286h302v286h142z" />
    <glyph glyph-name="I" unicode="I" horiz-adv-x="269" 
d="M205 706v-706h-141v706h141z" />
    <glyph glyph-name="J" unicode="J" horiz-adv-x="524" 
d="M465 706v-498q0 -103 -56.5 -159t-156.5 -56q-106 0 -170 61t-64 178h139q0 -54 22 -83t67 -29q42 0 60 25t18 63v498h141z" />
    <glyph glyph-name="K" unicode="K" horiz-adv-x="651" 
d="M338 359l299 -359h-171l-261 323v-323h-141v706h141v-317l262 317h170z" />
    <glyph glyph-name="L" unicode="L" horiz-adv-x="462" 
d="M205 108h237v-108h-378v706h141v-598z" />
    <glyph glyph-name="M" unicode="M" horiz-adv-x="889" 
d="M825 698v-698h-140v487l-179 -487h-122l-179 485v-485h-141v698h171l212 -525l208 525h170z" />
    <glyph glyph-name="N" unicode="N" horiz-adv-x="726" 
d="M662 0h-141l-316 480v-480h-141v706h141l316 -484v484h141v-706z" />
    <glyph glyph-name="O" unicode="O" horiz-adv-x="790" 
d="M395 716q75 0 139.5 -26.5t112 -74.5t74.5 -114t27 -146t-27 -146.5t-74.5 -114.5t-112 -74.5t-139.5 -26.5t-139.5 26.5t-112 74.5t-74.5 114.5t-27 146.5t27 146t74.5 114t112 74.5t139.5 26.5zM395 586q-46 0 -84.5 -16t-66.5 -46t-43 -73t-15 -96t15 -96t43 -73
t66.5 -46t84.5 -16q47 0 85 16t66 46t43 73t15 96t-15 96t-43 73t-66 46t-85 16z" />
    <glyph glyph-name="P" unicode="P" horiz-adv-x="601" 
d="M205 262v-262h-141v706h257q64 0 111.5 -16t78.5 -45.5t46.5 -70.5t15.5 -91q0 -49 -16 -89.5t-48 -70t-79 -45.5t-109 -16h-116zM306 375q69 0 96.5 29.5t27.5 78.5q0 51 -27.5 80t-96.5 29h-101v-217h101z" />
    <glyph glyph-name="Q" unicode="Q" horiz-adv-x="790" 
d="M593 -129l-110 132q-21 -5 -43 -7.5t-45 -2.5q-75 0 -139.5 26.5t-112 74.5t-74.5 114.5t-27 146.5t27 146t74.5 114t112 74.5t139.5 26.5t139.5 -26.5t112 -74.5t74.5 -114t27 -146q0 -100 -41 -177t-110 -125l167 -182h-171zM186 355q0 -53 15 -96t43 -73t66.5 -46
t84.5 -16q47 0 85 16t66 46t43 73t15 96t-15 96t-43 73t-66 46t-85 16q-46 0 -84.5 -16t-66.5 -46t-43 -73t-15 -96z" />
    <glyph glyph-name="R" unicode="R" horiz-adv-x="616" 
d="M432 0l-165 275h-62v-275h-141v706h269q64 0 111.5 -16.5t78.5 -46t46.5 -69t15.5 -86.5q0 -79 -44 -133.5t-129 -72.5l176 -282h-156zM205 372h116q65 0 93 28t28 79q0 49 -28 78.5t-93 29.5h-116v-215z" />
    <glyph glyph-name="S" unicode="S" horiz-adv-x="589" 
d="M549 193q0 -39 -14.5 -75t-44 -64t-74 -44.5t-103.5 -16.5q-56 0 -104 14.5t-83 42t-56.5 66.5t-25.5 88h150q5 -42 33.5 -71t79.5 -29q45 0 68 24t23 60q0 40 -26.5 62t-66 38t-85.5 30t-85.5 38t-66 62t-26.5 102q0 46 17.5 82t49 61.5t75.5 39t97 13.5
q57 0 102.5 -14.5t77.5 -40.5t51 -62.5t23 -80.5h-152q-5 35 -30 61t-73 26q-38 0 -62.5 -20t-24.5 -60q0 -38 26.5 -59.5t66 -37t85.5 -30t85.5 -38.5t66 -63t26.5 -104z" />
    <glyph glyph-name="T" unicode="T" horiz-adv-x="558" 
d="M544 706v-112h-195v-594h-141v594h-194v112h530z" />
    <glyph glyph-name="U" unicode="U" horiz-adv-x="683" 
d="M200 706v-414q0 -85 37 -125.5t105 -40.5q67 0 104 40.5t37 125.5v414h140v-414q0 -76 -21.5 -132.5t-60 -93.5t-90.5 -55t-112 -18q-61 0 -112 18t-88 55t-58 93.5t-21 132.5v414h140z" />
    <glyph glyph-name="V" unicode="V" horiz-adv-x="705" 
d="M163 706l189 -559l190 559h151l-250 -706h-181l-250 706h151z" />
    <glyph glyph-name="W" unicode="W" horiz-adv-x="1022" 
d="M990 706l-173 -706h-174l-132 512l-133 -512h-173l-173 706h153l108 -547l140 547h155l141 -547l108 547h153z" />
    <glyph glyph-name="X" unicode="X" horiz-adv-x="658" 
d="M479 0l-159 241l-141 -241h-161l222 361l-228 345h167l156 -236l139 236h161l-221 -355l232 -351h-167z" />
    <glyph glyph-name="Y" unicode="Y" horiz-adv-x="645" 
d="M633 706l-239 -459v-247h-142v247l-240 459h162l150 -309l150 309h159z" />
    <glyph glyph-name="Z" unicode="Z" horiz-adv-x="573" 
d="M200 114h329v-114h-485v108l322 485h-317v113h476v-108z" />
    <glyph glyph-name="bracketleft" unicode="[" horiz-adv-x="407" 
d="M358 947v-114h-134v-900h134v-114h-267v1128h267z" />
    <glyph glyph-name="backslash" unicode="\" horiz-adv-x="716" 
d="M418 -181l-286 1128h136l285 -1128h-135z" />
    <glyph glyph-name="bracketright" unicode="]" horiz-adv-x="406" 
d="M48 -181v114h135v900h-135v114h267v-1128h-267z" />
    <glyph glyph-name="asciicircum" unicode="^" 
d="M171 167h-140l240 533h135l239 -533h-140l-166 370z" />
    <glyph glyph-name="underscore" unicode="_" horiz-adv-x="672" 
d="M632 -37v-137h-587v137h587z" />
    <glyph glyph-name="grave" unicode="`" horiz-adv-x="301" 
d="M261 652l-26 -56l-172 84l36 74z" />
    <glyph glyph-name="a" unicode="a" 
d="M281 561q72 0 121.5 -34t69.5 -88v115h140v-554h-140v116q-20 -55 -69.5 -89t-121.5 -34q-52 0 -97 19.5t-78 56t-51.5 89t-18.5 119.5t18.5 119.5t51.5 89t78 56t97 19.5zM325 438q-65 0 -105.5 -42t-40.5 -119q0 -76 40.5 -118t105.5 -42q32 0 58.5 11t46.5 32t31 50.5
t11 66.5q0 38 -11 67.5t-31 50.5t-46.5 32t-58.5 11z" />
    <glyph glyph-name="b" unicode="b" 
d="M395 561q53 0 97.5 -19.5t77.5 -56t51.5 -89t18.5 -119.5t-18.5 -119.5t-51.5 -89t-77.5 -56t-97.5 -19.5q-72 0 -121 34t-69 89v-116h-141v740h141v-301q20 54 69 88t121 34zM351 438q-31 0 -58 -11t-47 -32t-31 -50.5t-11 -67.5q0 -37 11 -66.5t31 -50.5t47 -32t58 -11
q66 0 106 42t40 118q0 77 -40 119t-106 42z" />
    <glyph glyph-name="c" unicode="c" horiz-adv-x="617" 
d="M313 561q108 0 179 -58t89 -158h-149q-9 45 -41 70t-81 25q-26 0 -50 -9.5t-42 -29.5t-28.5 -51t-10.5 -73t10.5 -72.5t28.5 -51t42 -30t50 -9.5q49 0 81 25t41 70h149q-18 -100 -89 -158t-179 -58q-61 0 -111.5 19.5t-87.5 56t-57.5 89.5t-20.5 119q0 67 20.5 119.5
t57.5 89t87.5 56t111.5 19.5z" />
    <glyph glyph-name="d" unicode="d" 
d="M281 561q72 0 121 -34t70 -88v301h140v-740h-140v116q-21 -55 -70 -89t-121 -34q-52 0 -97 19.5t-78 56t-51.5 89t-18.5 119.5t18.5 119.5t51.5 89t78 56t97 19.5zM325 438q-65 0 -105.5 -42t-40.5 -119q0 -76 40.5 -118t105.5 -42q32 0 58.5 11t46.5 32t31 50.5t11 66.5
q0 38 -11 67.5t-31 50.5t-46.5 32t-58.5 11z" />
    <glyph glyph-name="e" unicode="e" horiz-adv-x="621" 
d="M585 298q0 -14 -1.5 -25t-3.5 -23h-406q2 -40 13 -67.5t29 -44.5t41.5 -24.5t48.5 -7.5q50 0 82 24.5t41 64.5h149q-8 -43 -30.5 -80t-57 -64t-79.5 -42.5t-98 -15.5q-61 0 -111.5 19.5t-87.5 56t-57.5 89.5t-20.5 119q0 67 20.5 119.5t57.5 89t87.5 56t111.5 19.5
q63 0 113 -19.5t85.5 -55t54.5 -83.5t19 -105zM443 312q2 36 -9 62.5t-29 43t-42 24.5t-50 8q-54 0 -94 -33.5t-45 -104.5h269z" />
    <glyph glyph-name="f" unicode="f" horiz-adv-x="358" 
d="M338 650q-63 4 -87.5 -18.5t-24.5 -76.5v-1h112v-119h-112v-435h-141v435h-71v119h71v13q0 105 63 159t190 46v-122z" />
    <glyph glyph-name="g" unicode="g" 
d="M281 561q72 0 121.5 -34t69.5 -88v115h140v-556q0 -57 -17 -106.5t-50.5 -85.5t-84 -57t-116.5 -21q-123 0 -195.5 58.5t-88.5 153.5h139q11 -41 45 -65t90 -24q29 0 54 8.5t44 26.5t29.5 45.5t10.5 66.5v118q-20 -55 -69.5 -89t-121.5 -34q-52 0 -97 19.5t-78 56
t-51.5 89t-18.5 119.5t18.5 119.5t51.5 89t78 56t97 19.5zM325 438q-65 0 -105.5 -42t-40.5 -119q0 -76 40.5 -118t105.5 -42q32 0 58.5 11t46.5 32t31 50.5t11 66.5q0 38 -11 67.5t-31 50.5t-46.5 32t-58.5 11z" />
    <glyph glyph-name="h" unicode="h" horiz-adv-x="664" 
d="M394 562q47 0 85.5 -15.5t66.5 -46t43 -75.5t15 -103v-322h-140v306q0 68 -34.5 103.5t-92.5 35.5q-59 0 -95.5 -38t-36.5 -113v-294h-141v740h141v-297q23 57 73 88t116 31z" />
    <glyph glyph-name="i" unicode="i" horiz-adv-x="269" 
d="M48 713q0 33 23.5 55t63.5 22t63.5 -22t23.5 -55t-23.5 -54.5t-63.5 -21.5t-63.5 21.5t-23.5 54.5zM205 554v-554h-141v554h141z" />
    <glyph glyph-name="j" unicode="j" horiz-adv-x="272" 
d="M138 637q-40 0 -63.5 21.5t-23.5 54.5t23.5 55t63.5 22q39 0 63 -22t24 -55t-24 -54.5t-63 -21.5zM-30 -142h40q30 0 44 13t14 45v638h141v-638q0 -98 -49 -139t-132 -41h-58v122z" />
    <glyph glyph-name="k" unicode="k" horiz-adv-x="564" 
d="M388 0l-183 242v-242h-141v740h141v-416l182 230h167l-233 -276l239 -278h-172z" />
    <glyph glyph-name="l" unicode="l" horiz-adv-x="269" 
d="M205 740v-740h-141v740h141z" />
    <glyph glyph-name="m" unicode="m" horiz-adv-x="1047" 
d="M769 562q100 0 159 -61.5t59 -178.5v-322h-140v306q0 66 -33 99.5t-89 33.5q-57 0 -93 -36t-36 -109v-294h-140v306q0 66 -33 99.5t-89 33.5q-57 0 -93 -36t-36 -109v-294h-141v554h141v-105q22 54 69.5 83.5t110.5 29.5q66 0 116 -31.5t75 -92.5q26 57 77 90.5t116 33.5
z" />
    <glyph glyph-name="n" unicode="n" horiz-adv-x="664" 
d="M394 562q47 0 85.5 -15.5t66.5 -46t43 -75.5t15 -103v-322h-140v306q0 68 -34.5 103.5t-92.5 35.5q-59 0 -95.5 -38t-36.5 -113v-294h-141v554h141v-111q23 57 73 88t116 31z" />
    <glyph glyph-name="o" unicode="o" horiz-adv-x="640" 
d="M320 561q61 0 113 -19.5t90 -56t59.5 -89t21.5 -119.5q0 -66 -21.5 -119t-59.5 -89.5t-90 -56t-113 -19.5t-113 19.5t-90 56t-59.5 89.5t-21.5 119q0 67 21.5 119.5t59.5 89t90 56t113 19.5zM320 439q-27 0 -52.5 -9.5t-45 -29.5t-31.5 -50.5t-12 -72.5t12 -72.5
t31.5 -50.5t45 -29.5t52.5 -9.5t52.5 9.5t45 29.5t31.5 50.5t12 72.5t-12 72.5t-31.5 50.5t-45 29.5t-52.5 9.5z" />
    <glyph glyph-name="p" unicode="p" 
d="M395 561q53 0 97.5 -19.5t77.5 -56t51.5 -89t18.5 -119.5t-18.5 -119.5t-51.5 -89t-77.5 -56t-97.5 -19.5q-72 0 -121 34t-69 89v-380h-141v818h141v-115q20 54 69 88t121 34zM351 438q-31 0 -58 -11t-47 -32t-31 -50.5t-11 -67.5q0 -37 11 -66.5t31 -50.5t47 -32t58 -11
q66 0 106 42t40 118q0 77 -40 119t-106 42z" />
    <glyph glyph-name="q" unicode="q" 
d="M291 560q65 0 110.5 -27.5t70.5 -77.5v99h140v-818h-140v371q-26 -53 -71 -83t-110 -30q-53 0 -99.5 20t-81 56.5t-54.5 88.5t-20 116t20 116.5t54.5 90t81 58t99.5 20.5zM325 437q-30 0 -56.5 -10.5t-46.5 -30.5t-31.5 -50.5t-11.5 -70.5t11.5 -70t31.5 -49.5t46.5 -29
t56.5 -9.5q29 0 55.5 10t47 30.5t32.5 50.5t12 69q0 40 -12 70t-32.5 50t-47 30t-55.5 10z" />
    <glyph glyph-name="r" unicode="r" horiz-adv-x="415" 
d="M205 448q30 51 80.5 82.5t115.5 31.5v-151h-41q-33 0 -61 -7t-49 -23.5t-33 -44.5t-12 -69v-267h-141v554h141v-106z" />
    <glyph glyph-name="s" unicode="s" horiz-adv-x="541" 
d="M255 561q53 0 94 -14t70.5 -38.5t48 -59t25.5 -75.5h-132q-8 39 -35.5 63.5t-73.5 24.5q-37 0 -56.5 -17t-19.5 -46t24 -43.5t60 -24t78 -19t78 -27t60 -48.5t24 -85q0 -70 -54.5 -114.5t-150.5 -44.5q-109 0 -173.5 48.5t-78.5 138.5h135q5 -41 35.5 -64.5t81.5 -23.5
q37 0 55.5 18t18.5 45q0 30 -24 45.5t-59.5 25t-77 18t-77 25.5t-59.5 47t-24 83q0 71 53.5 116.5t153.5 45.5z" />
    <glyph glyph-name="t" unicode="t" horiz-adv-x="397" 
d="M360 121v-121h-74q-43 0 -78.5 10t-61 32.5t-39 60t-13.5 92.5v240h-77v119h77v137h141v-137h124v-119h-124v-242q0 -41 16 -56.5t54 -15.5h55z" />
    <glyph glyph-name="u" unicode="u" horiz-adv-x="658" 
d="M594 554v-554h-141v112q-23 -57 -73 -88t-116 -31q-47 0 -85.5 15.5t-66.5 46t-43 75t-15 102.5v322h140v-306q0 -68 34.5 -103.5t91.5 -35.5q60 0 96.5 38t36.5 113v294h141z" />
    <glyph glyph-name="v" unicode="v" horiz-adv-x="609" 
d="M305 141l140 413h150l-205 -554h-172l-205 554h151z" />
    <glyph glyph-name="w" unicode="w" horiz-adv-x="863" 
d="M857 554l-149 -554h-156l-119 403l-122 -403h-156l-148 554h141l90 -428l123 428h149l124 -428l91 428h132z" />
    <glyph glyph-name="x" unicode="x" horiz-adv-x="567" 
d="M401 0l-126 178l-106 -178h-155l183 289l-187 265h158l123 -175l106 175h155l-186 -281l193 -273h-158z" />
    <glyph glyph-name="y" unicode="y" horiz-adv-x="607" 
d="M159 554l151 -376l140 376h155l-339 -818h-156l125 280l-233 538h157z" />
    <glyph glyph-name="z" unicode="z" horiz-adv-x="474" 
d="M178 118h272v-118h-426v112l255 325h-249v117h410v-111z" />
    <glyph glyph-name="braceleft" unicode="{" horiz-adv-x="425" 
d="M169 371q58 -11 85.5 -48.5t27.5 -94.5q0 -25 -3.5 -47.5t-7 -45.5t-7 -48t-3.5 -55q0 -49 11.5 -88t30 -68.5t42 -50t48.5 -31.5v-11h-133q-13 7 -35 24t-43 47.5t-36 75t-15 106.5q0 29 3.5 54t7 48.5t7 46.5t3.5 47q0 17 -4 35t-15 33.5t-31 28t-52 17.5v52
q33 5 53 17.5t31 28t14.5 33.5t3.5 35q0 24 -3.5 47t-7 46.5t-7 49t-3.5 53.5q0 62 15 106.5t36 75t43 47.5t35 24h133v-11q-25 -11 -48.5 -31.5t-42 -50t-30 -68.5t-11.5 -88q0 -30 3.5 -55t7 -48t7 -45.5t3.5 -47.5q0 -57 -26.5 -94t-86.5 -49v-2z" />
    <glyph glyph-name="bar" unicode="|" horiz-adv-x="233" 
d="M187 -121h-141v929h141v-929z" />
    <glyph glyph-name="braceright" unicode="}" horiz-adv-x="415" 
d="M261 373q-59 12 -85.5 45.5t-26.5 85.5q0 25 3 47.5t7 45.5t7 48t3 55q0 47 -11.5 87.5t-30 73t-42 55.5t-47.5 34v11h131q13 -7 35 -24t43 -47.5t36 -75t15 -106.5q0 -28 -3.5 -53.5t-7 -49t-7 -46.5t-3.5 -47q0 -17 4 -35.5t15.5 -34.5t31.5 -28t51 -16v-52
q-31 -3 -51 -15t-31.5 -28.5t-15.5 -35t-4 -35.5q0 -24 3.5 -47t7 -46.5t7 -48.5t3.5 -54q0 -62 -15 -106.5t-36 -75t-43 -47.5t-35 -24h-131v11q24 11 47.5 34t42 55.5t30 73t11.5 87.5q0 30 -3 55t-7 48t-7 45.5t-3 47.5q0 52 27 86t85 45v2z" />
    <glyph glyph-name="asciitilde" unicode="~" horiz-adv-x="591" 
d="M205 414q32 0 57 -10.5t47 -23t42.5 -23t42.5 -10.5q51 0 62 68h107q-16 -101 -62.5 -147.5t-114.5 -46.5q-31 0 -56.5 10.5t-47.5 23t-42.5 23t-42.5 10.5q-27 0 -42 -17.5t-21 -50.5h-106q17 101 63 147.5t114 46.5z" />
    <glyph glyph-name="exclamdown" unicode="&#xa1;" horiz-adv-x="367" 
d="M106 562h152v-147h-152v147zM122 327h119l18 -500h-155z" />
    <glyph glyph-name="cent" unicode="&#xa2;" horiz-adv-x="583" 
d="M301 118q42 0 75 23t41 67h130q-4 -45 -23 -81t-48 -62t-67 -41t-82 -19v-92h-62v93q-52 5 -94 23.5t-72 51t-46.5 77.5t-16.5 102t16.5 102t46.5 77t72 51t94 23v90h62v-89q44 -4 82 -19t67 -40.5t48 -61.5t23 -81h-130q-10 45 -42 67.5t-74 22.5q-56 0 -93 -35.5
t-37 -106.5q0 -72 37 -107t93 -35z" />
    <glyph glyph-name="sterling" unicode="&#xa3;" horiz-adv-x="623" 
d="M292 267q0 -36 -15.5 -79t-57.5 -81h352v-111h-489l-18 70q46 42 70.5 87t24.5 113q0 14 -3 30h-117v95h89q-11 32 -19 68.5t-8 78.5q0 48 16.5 86.5t46.5 66t72 42t93 14.5q57 0 100.5 -17t74 -46.5t47.5 -69.5t21 -87h-131q-5 45 -32 75t-75 30q-43 0 -70.5 -27.5
t-27.5 -81.5q0 -32 9.5 -64.5t20.5 -67.5h178v-95h-154q1 -8 1.5 -14.5t0.5 -14.5z" />
    <glyph glyph-name="currency" unicode="&#xa4;" horiz-adv-x="562" 
d="M480 378q0 -33 -10 -61t-27 -50l54 -54l-54 -54l-61 60q-43 -21 -100 -21q-58 0 -102 23l-62 -62l-53 54l56 55q-17 22 -26 49.5t-9 60.5q0 66 37 111l-58 57l53 54l65 -65q42 21 99 21q54 0 97 -20l64 64l54 -54l-56 -55q39 -45 39 -113zM282 281q35 0 61.5 24t26.5 72
t-26.5 72.5t-61.5 24.5t-60.5 -24.5t-25.5 -72.5t25.5 -72t60.5 -24z" />
    <glyph glyph-name="yen" unicode="&#xa5;" horiz-adv-x="663" 
d="M489 410h114v-94h-163l-32 -61h195v-95h-199v-160h-142v160h-200v95h196l-32 61h-164v94h115l-155 296h162l150 -330l150 330h159z" />
    <glyph glyph-name="brokenbar" unicode="&#xa6;" horiz-adv-x="335" 
d="M97 808h141v-398h-141v398zM238 -121h-141v399h141v-399z" />
    <glyph glyph-name="section" unicode="&#xa7;" horiz-adv-x="583" 
d="M424 113q42 -28 66.5 -64.5t24.5 -81.5q0 -36 -14 -67t-41.5 -53t-68 -34.5t-92.5 -12.5q-103 0 -161.5 53t-67.5 140h139q4 -42 26 -67t67 -25q31 0 50.5 14t19.5 45q0 18 -8 33t-27 29.5t-48.5 29t-73.5 31.5q-39 14 -71.5 31.5t-56 39.5t-37 49.5t-13.5 62.5
q0 48 28 91t95 62q-42 28 -66.5 65t-24.5 83q0 73 55.5 119.5t161.5 46.5q102 0 160.5 -53.5t67.5 -139.5h-140q-2 40 -24 66t-67 26q-32 0 -52 -14t-20 -44q0 -18 8 -33.5t27 -29.5t49 -28.5t74 -31.5q38 -15 70.5 -32.5t56.5 -39.5t37.5 -50t13.5 -63q0 -48 -28 -88.5
t-95 -64.5zM187 266q0 -40 27.5 -65.5t78.5 -25.5t78 27t27 64q0 40 -27 66t-79 26q-51 0 -78 -27t-27 -65z" />
    <glyph glyph-name="dieresis" unicode="&#xa8;" horiz-adv-x="378" 
d="M31 686q0 27 18.5 45.5t44.5 18.5q28 0 46 -18.5t18 -45.5q0 -26 -18 -44.5t-46 -18.5q-26 0 -44.5 18.5t-18.5 44.5zM220 686q0 27 18 45.5t45 18.5t45.5 -18.5t18.5 -45.5q0 -26 -18.5 -44.5t-45.5 -18.5t-45 18.5t-18 44.5z" />
    <glyph glyph-name="copyright" unicode="&#xa9;" horiz-adv-x="784" 
d="M392 713q-78 0 -142 -26.5t-110.5 -73.5t-72 -113t-25.5 -144q0 -79 25.5 -145t72 -113.5t110.5 -74t142 -26.5t142.5 26.5t110.5 74t71.5 113.5t25.5 145q0 78 -25.5 144t-71.5 113t-110.5 73.5t-142.5 26.5zM392 667q69 0 124.5 -22.5t94.5 -64t60 -98.5t21 -126
t-21 -126.5t-60 -99t-94.5 -64.5t-124.5 -23t-124.5 23t-94.5 64.5t-60 99t-21 126.5t21 126t60 98.5t94.5 64t124.5 22.5zM396 583q38 0 72.5 -11.5t62 -33.5t47 -53.5t26.5 -71.5h-118q-11 35 -36.5 55t-59.5 20q-43 0 -74 -33t-31 -100t31 -100t74 -33q34 0 59.5 20
t36.5 55h118q-7 -40 -26.5 -71.5t-47 -53.5t-62 -33.5t-72.5 -11.5q-47 0 -87.5 15.5t-70 44.5t-46.5 71.5t-17 96.5t17 96.5t46.5 71.5t70 44.5t87.5 15.5z" />
    <glyph glyph-name="ordfeminine" unicode="&#xaa;" horiz-adv-x="462" 
d="M191 711q49 0 80 -20t48 -56v71h106v-351h-106v70q-17 -36 -47.5 -56t-79.5 -20q-36 0 -66 12t-51.5 35.5t-34 57t-12.5 75.5q0 43 12.5 76.5t34 57t51.5 36t65 12.5zM227 626q-38 0 -64 -26t-26 -71q0 -46 26 -70t64 -24q39 0 65.5 25t26.5 70t-26.5 70.5t-65.5 25.5z
" />
    <glyph glyph-name="guillemotleft" unicode="&#xab;" horiz-adv-x="520" 
d="M134 120l-89 175l89 175h131l-91 -175l91 -175h-131zM345 120l-89 175l89 175h131l-91 -175l91 -175h-131z" />
    <glyph glyph-name="logicalnot" unicode="&#xac;" horiz-adv-x="760" 
d="M703 438v-243h-141v136h-526v107h667z" />
    <glyph glyph-name="registered" unicode="&#xae;" horiz-adv-x="806" 
d="M404 713q80 0 146.5 -26t114 -73t73.5 -112.5t26 -145.5q0 -79 -26 -145t-73.5 -113.5t-114 -74t-146.5 -26.5q-81 0 -147.5 26.5t-114 74t-74 113.5t-26.5 145q0 80 26.5 145.5t74 112.5t114 73t147.5 26zM404 47q72 0 129.5 22t98 62.5t62 97.5t21.5 127
q0 71 -21.5 128.5t-62 98t-98 62.5t-129.5 22t-130 -22t-98.5 -62.5t-62 -98t-21.5 -128.5q0 -70 21.5 -127t62 -97.5t98.5 -62.5t130 -22zM582 453q0 -45 -25.5 -79t-81.5 -45l112 -181h-97l-106 176h-37v-176h-89v434h168q42 0 71.5 -10.5t48 -28t27.5 -41t9 -49.5z
M347 382h71q42 0 58 16.5t16 42.5q0 28 -16 44t-58 16h-71v-119z" />
    <glyph glyph-name="macron" unicode="&#xaf;" horiz-adv-x="426" 
d="M404 732v-95h-382v95h382z" />
    <glyph glyph-name="degree" unicode="&#xb0;" horiz-adv-x="440" 
d="M221 705q88 0 140.5 -47t52.5 -131q0 -82 -51.5 -131t-139.5 -49q-44 0 -80 13t-62 36.5t-40.5 56.5t-14.5 74q0 84 53 131t142 47zM221 629q-35 0 -60.5 -25t-25.5 -78q0 -51 26.5 -76.5t61.5 -25.5t58.5 25.5t23.5 76.5q0 53 -24.5 78t-59.5 25z" />
    <glyph glyph-name="plusminus" unicode="&#xb1;" horiz-adv-x="566" 
d="M351 363v-141h187v-128h-510v128h187v141h-187v128h187v141h136v-141h187v-128h-187z" />
    <glyph glyph-name="uni00B2" unicode="&#xb2;" horiz-adv-x="374" 
d="M147 434h193v-82h-295v77l126 87q26 19 42.5 39t16.5 46q0 19 -11 27.5t-26 8.5q-42 0 -47 -56h-106q4 56 46 94t120 38q35 0 60.5 -8.5t42 -23t24.5 -33.5t8 -39q0 -41 -29.5 -70.5t-89.5 -61.5z" />
    <glyph glyph-name="uni00B3" unicode="&#xb3;" horiz-adv-x="363" 
d="M187 713q67 0 105 -28t38 -74q0 -63 -72 -78v-3q78 -19 78 -83q0 -45 -38.5 -72t-108.5 -27q-87 0 -123.5 32t-41.5 87h111q2 -26 14.5 -35t30.5 -9q44 0 44 42q0 24 -14.5 35t-38.5 11h-43v40h38q52 0 52 46q0 18 -11 29.5t-31 11.5q-40 0 -46 -44h-102q2 23 11 44
t27.5 38t48 27t72.5 10z" />
    <glyph glyph-name="acute" unicode="&#xb4;" horiz-adv-x="274" 
d="M227 682l-183 -78l-24 51l178 98z" />
    <glyph glyph-name="uni00B5" unicode="&#xb5;" horiz-adv-x="698" 
d="M619 554v-554h-141v106q-22 -54 -68.5 -83.5t-109.5 -29.5q-22 0 -43 6.5t-38 23.5v-287h-140v818h140v-289q0 -75 36.5 -112.5t95.5 -37.5q57 0 92 36.5t35 109.5v293h141z" />
    <glyph glyph-name="paragraph" unicode="&#xb6;" horiz-adv-x="662" 
d="M583 0h-114v592h-78v-592h-113v278h-19q-63 0 -108 17t-74 46t-42.5 67t-13.5 80t14 80t43 67t74 46t107 17h324v-698z" />
    <glyph glyph-name="periodcentered" unicode="&#xb7;" horiz-adv-x="229" 
d="M190 398v-147h-152v147h152z" />
    <glyph glyph-name="cedilla" unicode="&#xb8;" horiz-adv-x="305" 
d="M155 -52q23 1 46 -4.5t41 -18t29.5 -32.5t11.5 -50q0 -29 -11 -49.5t-29.5 -33t-42 -18.5t-49.5 -6h-129v76h114q27 0 39 9.5t12 26.5q0 14 -12 23.5t-39 9.5h-66v126h85v-59z" />
    <glyph glyph-name="uni00B9" unicode="&#xb9;" horiz-adv-x="233" 
d="M28 621v83h168v-352h-107v269h-61z" />
    <glyph glyph-name="ordmasculine" unicode="&#xba;" horiz-adv-x="447" 
d="M224 709q45 0 81 -13.5t61.5 -37.5t39.5 -57.5t14 -72.5t-14 -72.5t-39.5 -58t-61.5 -38.5t-81 -14t-81 14t-61.5 38.5t-39.5 58t-14 72.5t14 72.5t39.5 57.5t61.5 37.5t81 13.5zM224 626q-37 0 -62.5 -24.5t-25.5 -73.5t25.5 -74t62.5 -25t62 25t25 74t-25 73.5
t-62 24.5z" />
    <glyph glyph-name="guillemotright" unicode="&#xbb;" horiz-adv-x="520" 
d="M142 295l-92 175h132l88 -175l-88 -175h-132zM353 295l-92 175h132l88 -175l-88 -175h-132z" />
    <glyph glyph-name="onequarter" unicode="&#xbc;" horiz-adv-x="732" 
d="M598 706l-371 -706h-138l372 706h137zM51 621v83h168v-352h-107v269h-61zM703 65h-43v-65h-107v65h-191v58l156 230h142v-227h43v-61zM558 274l-94 -145h94v145z" />
    <glyph glyph-name="onehalf" unicode="&#xbd;" horiz-adv-x="794" 
d="M598 708l-378 -708h-138l378 708h138zM113 621h-61v83h168v-352h-107v269zM536 81h193v-82h-295v77l126 87q26 19 42.5 39t16.5 46q0 19 -11 27.5t-26 8.5q-42 0 -47 -56h-106q4 56 46 94t120 38q35 0 60.5 -8.5t42 -23t24.5 -33.5t8 -39q0 -41 -29.5 -70.5t-89.5 -61.5z
" />
    <glyph glyph-name="threequarters" unicode="&#xbe;" horiz-adv-x="827" 
d="M226 713q67 0 105 -28t38 -74q0 -63 -72 -78v-3q78 -19 78 -83q0 -45 -38.5 -72t-108.5 -27q-87 0 -123.5 32t-41.5 87h111q2 -26 14.5 -35t30.5 -9q44 0 44 42q0 24 -14.5 35t-38.5 11h-43v40h38q52 0 52 46q0 18 -11 29.5t-31 11.5q-40 0 -46 -44h-102q2 23 11 44
t27.5 38t48 27t72.5 10zM698 708l-361 -708h-138l361 708h138zM802 65h-43v-65h-106v65h-191v58l143 230h154v-227h43v-61zM658 286l-94 -160h94v160z" />
    <glyph glyph-name="questiondown" unicode="&#xbf;" horiz-adv-x="508" 
d="M286 412v147h152v-147h-152zM289 -189q-50 0 -91.5 13.5t-71.5 39.5t-46.5 64.5t-16.5 89.5t17 90t48 65t74 39t95 14v101h133v-193h-57q-35 0 -66 -4.5t-54.5 -17.5t-37 -35t-13.5 -58q0 -45 25 -69t67 -24q47 0 73.5 26.5t26.5 68.5h133q1 -45 -14.5 -83t-46 -66.5
t-75 -44.5t-102.5 -16z" />
    <glyph glyph-name="Agrave" unicode="&#xc0;" horiz-adv-x="704" 
d="M432 748l-172 84l36 74l162 -102zM494 142h-283l-50 -142h-149l260 698h161l259 -698h-149zM456 249l-104 298l-104 -298h208z" />
    <glyph glyph-name="Aacute" unicode="&#xc1;" horiz-adv-x="704" 
d="M282 756l-24 51l178 98l29 -71zM494 142h-283l-50 -142h-149l260 698h161l259 -698h-149zM456 249l-104 298l-104 -298h208z" />
    <glyph glyph-name="Acircumflex" unicode="&#xc2;" horiz-adv-x="704" 
d="M245 752l-24 59l132 74l131 -74l-24 -59l-107 55zM494 142h-283l-50 -142h-149l260 698h161l259 -698h-149zM456 249l-104 298l-104 -298h208z" />
    <glyph glyph-name="Atilde" unicode="&#xc3;" horiz-adv-x="704" 
d="M294 803q-33 0 -39 -42h-61q10 60 36 86.5t68 26.5q20 0 34.5 -6.5t27.5 -15t25.5 -15t26.5 -6.5q34 0 40 43h61q-9 -59 -36 -86t-69 -27q-20 0 -35 6.5t-28 14.5t-25 14.5t-26 6.5zM494 142h-283l-50 -142h-149l260 698h161l259 -698h-149zM456 249l-104 298l-104 -298
h208z" />
    <glyph glyph-name="Adieresis" unicode="&#xc4;" horiz-adv-x="704" 
d="M257 775q-26 0 -44.5 18.5t-18.5 44.5q0 27 18.5 45.5t44.5 18.5q28 0 46 -18.5t18 -45.5q0 -26 -18 -44.5t-46 -18.5zM446 775q-27 0 -45 18.5t-18 44.5q0 27 18 45.5t45 18.5t45.5 -18.5t18.5 -45.5q0 -26 -18.5 -44.5t-45.5 -18.5zM494 142h-283l-50 -142h-149
l260 698h161l259 -698h-149zM456 249l-104 298l-104 -298h208z" />
    <glyph glyph-name="Aring" unicode="&#xc5;" horiz-adv-x="704" 
d="M351 754q-48 0 -81.5 30.5t-33.5 84.5t33.5 84.5t81.5 30.5t81.5 -30.5t33.5 -84.5t-33.5 -84.5t-81.5 -30.5zM351 926q-23 0 -39 -15.5t-16 -41.5t16 -41.5t39 -15.5q24 0 40 15.5t16 41.5t-16 41.5t-40 15.5zM494 142h-283l-50 -142h-149l260 698h161l259 -698h-149z
M456 249l-104 298l-104 -298h208z" />
    <glyph glyph-name="AE" unicode="&#xc6;" horiz-adv-x="926" 
d="M612 594v-181h244v-108h-244v-192h274v-113h-415v136h-241l-72 -136h-154l377 706h505v-112h-274zM471 243v346l-184 -346h184z" />
    <glyph glyph-name="Ccedilla" unicode="&#xc7;" horiz-adv-x="759" 
d="M381 124q71 0 118.5 34t69.5 89h148q-25 -106 -99 -173t-192 -78v-48q23 1 46 -4.5t41 -18t29.5 -32.5t11.5 -50q0 -29 -11 -49.5t-29.5 -33t-42 -18.5t-49.5 -6h-129v76h114q27 0 39 9.5t12 26.5q0 14 -12 23.5t-39 9.5h-66v115q-68 7 -123.5 36.5t-94.5 76t-60 109
t-21 135.5q0 80 24.5 146t69 113.5t107.5 74t140 26.5q68 0 123.5 -18t97.5 -51.5t71 -80t42 -103.5h-148q-22 55 -69.5 89t-118.5 34q-42 0 -78 -16t-62.5 -46t-41 -72.5t-14.5 -95.5q0 -52 14.5 -94.5t41 -72.5t62.5 -46t78 -16z" />
    <glyph glyph-name="Egrave" unicode="&#xc8;" horiz-adv-x="525" 
d="M368 804l-26 -56l-172 84l36 74zM205 594v-183h250v-108h-250v-190h280v-113h-421v706h421v-112h-280z" />
    <glyph glyph-name="Eacute" unicode="&#xc9;" horiz-adv-x="525" 
d="M375 834l-183 -78l-24 51l178 98zM205 594v-183h250v-108h-250v-190h280v-113h-421v706h421v-112h-280z" />
    <glyph glyph-name="Ecircumflex" unicode="&#xca;" horiz-adv-x="525" 
d="M263 807l-108 -55l-24 59l132 74l131 -74l-24 -59zM205 594v-183h250v-108h-250v-190h280v-113h-421v706h421v-112h-280z" />
    <glyph glyph-name="Edieresis" unicode="&#xcb;" horiz-adv-x="525" 
d="M117 838q0 27 18.5 45.5t44.5 18.5q28 0 46 -18.5t18 -45.5q0 -26 -18 -44.5t-46 -18.5q-26 0 -44.5 18.5t-18.5 44.5zM306 838q0 27 18 45.5t45 18.5t45.5 -18.5t18.5 -45.5q0 -26 -18.5 -44.5t-45.5 -18.5t-45 18.5t-18 44.5zM205 594v-183h250v-108h-250v-190h280
v-113h-421v706h421v-112h-280z" />
    <glyph glyph-name="Igrave" unicode="&#xcc;" horiz-adv-x="269" 
d="M240 804l-26 -56l-172 84l36 74zM205 706v-706h-141v706h141z" />
    <glyph glyph-name="Iacute" unicode="&#xcd;" horiz-adv-x="269" 
d="M247 834l-183 -78l-24 51l178 98zM205 706v-706h-141v706h141z" />
    <glyph glyph-name="Icircumflex" unicode="&#xce;" horiz-adv-x="269" 
d="M135 807l-108 -55l-24 59l132 74l131 -74l-24 -59zM205 706v-706h-141v706h141z" />
    <glyph glyph-name="Idieresis" unicode="&#xcf;" horiz-adv-x="269" 
d="M-23 838q0 27 18.5 45.5t44.5 18.5q28 0 46 -18.5t18 -45.5q0 -26 -18 -44.5t-46 -18.5q-26 0 -44.5 18.5t-18.5 44.5zM166 838q0 27 18 45.5t45 18.5t45.5 -18.5t18.5 -45.5q0 -26 -18.5 -44.5t-45.5 -18.5t-45 18.5t-18 44.5zM205 706v-706h-141v706h141z" />
    <glyph glyph-name="Eth" unicode="&#xd0;" horiz-adv-x="743" 
d="M331 706q88 0 156.5 -25t116 -71.5t72.5 -111t25 -144.5q0 -79 -25 -144t-72.5 -111.5t-116 -72.5t-156.5 -26h-251v298h-76v113h76v295h251zM319 126q115 0 177 59.5t62 168.5t-62 169t-177 60h-98v-172h171v-113h-171v-172h98z" />
    <glyph glyph-name="Ntilde" unicode="&#xd1;" horiz-adv-x="726" 
d="M309 874q20 0 34.5 -6.5t27.5 -15t25.5 -15t26.5 -6.5q34 0 40 43h61q-9 -59 -36 -86t-69 -27q-20 0 -35 6.5t-28 14.5t-25 14.5t-26 6.5q-33 0 -39 -42h-61q10 60 36 86.5t68 26.5zM662 0h-141l-316 480v-480h-141v706h141l316 -484v484h141v-706z" />
    <glyph glyph-name="Ograve" unicode="&#xd2;" horiz-adv-x="790" 
d="M500 804l-26 -56l-172 84l36 74zM395 716q75 0 139.5 -26.5t112 -74.5t74.5 -114t27 -146t-27 -146.5t-74.5 -114.5t-112 -74.5t-139.5 -26.5t-139.5 26.5t-112 74.5t-74.5 114.5t-27 146.5t27 146t74.5 114t112 74.5t139.5 26.5zM395 586q-46 0 -84.5 -16t-66.5 -46
t-43 -73t-15 -96t15 -96t43 -73t66.5 -46t84.5 -16q47 0 85 16t66 46t43 73t15 96t-15 96t-43 73t-66 46t-85 16z" />
    <glyph glyph-name="Oacute" unicode="&#xd3;" horiz-adv-x="790" 
d="M507 834l-183 -78l-24 51l178 98zM395 716q75 0 139.5 -26.5t112 -74.5t74.5 -114t27 -146t-27 -146.5t-74.5 -114.5t-112 -74.5t-139.5 -26.5t-139.5 26.5t-112 74.5t-74.5 114.5t-27 146.5t27 146t74.5 114t112 74.5t139.5 26.5zM395 586q-46 0 -84.5 -16t-66.5 -46
t-43 -73t-15 -96t15 -96t43 -73t66.5 -46t84.5 -16q47 0 85 16t66 46t43 73t15 96t-15 96t-43 73t-66 46t-85 16z" />
    <glyph glyph-name="Ocircumflex" unicode="&#xd4;" horiz-adv-x="790" 
d="M395 807l-108 -55l-24 59l132 74l131 -74l-24 -59zM395 716q75 0 139.5 -26.5t112 -74.5t74.5 -114t27 -146t-27 -146.5t-74.5 -114.5t-112 -74.5t-139.5 -26.5t-139.5 26.5t-112 74.5t-74.5 114.5t-27 146.5t27 146t74.5 114t112 74.5t139.5 26.5zM395 586
q-46 0 -84.5 -16t-66.5 -46t-43 -73t-15 -96t15 -96t43 -73t66.5 -46t84.5 -16q47 0 85 16t66 46t43 73t15 96t-15 96t-43 73t-66 46t-85 16z" />
    <glyph glyph-name="Otilde" unicode="&#xd5;" horiz-adv-x="790" 
d="M340 874q20 0 34.5 -6.5t27.5 -15t25.5 -15t26.5 -6.5q34 0 40 43h61q-9 -59 -36 -86t-69 -27q-20 0 -35 6.5t-28 14.5t-25 14.5t-26 6.5q-33 0 -39 -42h-61q10 60 36 86.5t68 26.5zM395 716q75 0 139.5 -26.5t112 -74.5t74.5 -114t27 -146t-27 -146.5t-74.5 -114.5
t-112 -74.5t-139.5 -26.5t-139.5 26.5t-112 74.5t-74.5 114.5t-27 146.5t27 146t74.5 114t112 74.5t139.5 26.5zM395 586q-46 0 -84.5 -16t-66.5 -46t-43 -73t-15 -96t15 -96t43 -73t66.5 -46t84.5 -16q47 0 85 16t66 46t43 73t15 96t-15 96t-43 73t-66 46t-85 16z" />
    <glyph glyph-name="Odieresis" unicode="&#xd6;" horiz-adv-x="790" 
d="M237 838q0 27 18.5 45.5t44.5 18.5q28 0 46 -18.5t18 -45.5q0 -26 -18 -44.5t-46 -18.5q-26 0 -44.5 18.5t-18.5 44.5zM426 838q0 27 18 45.5t45 18.5t45.5 -18.5t18.5 -45.5q0 -26 -18.5 -44.5t-45.5 -18.5t-45 18.5t-18 44.5zM395 716q75 0 139.5 -26.5t112 -74.5
t74.5 -114t27 -146t-27 -146.5t-74.5 -114.5t-112 -74.5t-139.5 -26.5t-139.5 26.5t-112 74.5t-74.5 114.5t-27 146.5t27 146t74.5 114t112 74.5t139.5 26.5zM395 586q-46 0 -84.5 -16t-66.5 -46t-43 -73t-15 -96t15 -96t43 -73t66.5 -46t84.5 -16q47 0 85 16t66 46t43 73
t15 96t-15 96t-43 73t-66 46t-85 16z" />
    <glyph glyph-name="multiply" unicode="&#xd7;" horiz-adv-x="536" 
d="M414 121l-149 148l-146 -147l-91 90l147 148l-145 144l94 93l144 -144l142 143l91 -90l-143 -143l150 -150z" />
    <glyph glyph-name="Oslash" unicode="&#xd8;" horiz-adv-x="790" 
d="M658 602q42 -48 65.5 -110t23.5 -137q0 -80 -27 -146.5t-74.5 -114.5t-112 -74.5t-139.5 -26.5q-63 0 -119 19t-101 54l-59 -65h-80l96 106q-42 48 -66 110.5t-24 137.5q0 80 27 146t74.5 114t112 74.5t139.5 26.5q64 0 120 -19.5t101 -54.5l60 67h79zM185 355
q0 -86 39 -145l301 333q-54 43 -131 43q-46 0 -84.5 -16t-66.5 -46t-43 -73t-15 -96zM603 355q0 85 -39 144l-300 -333q54 -42 130 -42q47 0 85 16t66 46t43 73t15 96z" />
    <glyph glyph-name="Ugrave" unicode="&#xd9;" horiz-adv-x="683" 
d="M447 804l-26 -56l-172 84l36 74zM200 706v-414q0 -85 37 -125.5t105 -40.5q67 0 104 40.5t37 125.5v414h140v-414q0 -76 -21.5 -132.5t-60 -93.5t-90.5 -55t-112 -18q-61 0 -112 18t-88 55t-58 93.5t-21 132.5v414h140z" />
    <glyph glyph-name="Uacute" unicode="&#xda;" horiz-adv-x="683" 
d="M454 834l-183 -78l-24 51l178 98zM200 706v-414q0 -85 37 -125.5t105 -40.5q67 0 104 40.5t37 125.5v414h140v-414q0 -76 -21.5 -132.5t-60 -93.5t-90.5 -55t-112 -18q-61 0 -112 18t-88 55t-58 93.5t-21 132.5v414h140z" />
    <glyph glyph-name="Ucircumflex" unicode="&#xdb;" horiz-adv-x="683" 
d="M342 807l-108 -55l-24 59l132 74l131 -74l-24 -59zM200 706v-414q0 -85 37 -125.5t105 -40.5q67 0 104 40.5t37 125.5v414h140v-414q0 -76 -21.5 -132.5t-60 -93.5t-90.5 -55t-112 -18q-61 0 -112 18t-88 55t-58 93.5t-21 132.5v414h140z" />
    <glyph glyph-name="Udieresis" unicode="&#xdc;" horiz-adv-x="683" 
d="M184 838q0 27 18.5 45.5t44.5 18.5q28 0 46 -18.5t18 -45.5q0 -26 -18 -44.5t-46 -18.5q-26 0 -44.5 18.5t-18.5 44.5zM373 838q0 27 18 45.5t45 18.5t45.5 -18.5t18.5 -45.5q0 -26 -18.5 -44.5t-45.5 -18.5t-45 18.5t-18 44.5zM200 706v-414q0 -85 37 -125.5t105 -40.5
q67 0 104 40.5t37 125.5v414h140v-414q0 -76 -21.5 -132.5t-60 -93.5t-90.5 -55t-112 -18q-61 0 -112 18t-88 55t-58 93.5t-21 132.5v414h140z" />
    <glyph glyph-name="Yacute" unicode="&#xdd;" horiz-adv-x="645" 
d="M252 756l-24 51l178 98l29 -71zM633 706l-239 -459v-247h-142v247l-240 459h162l150 -309l150 309h159z" />
    <glyph glyph-name="Thorn" unicode="&#xde;" horiz-adv-x="601" 
d="M205 139v-139h-141v706h140v-135h117q64 0 111.5 -16t78.5 -44.5t46.5 -68.5t15.5 -88t-16 -87.5t-48 -68t-79 -44t-109 -15.5h-116zM306 246q69 0 96.5 29.5t27.5 78.5q0 51 -27.5 79.5t-96.5 28.5h-101v-216h101z" />
    <glyph glyph-name="germandbls" unicode="&#xdf;" horiz-adv-x="699" 
d="M530 391q79 -46 113 -95t34 -120q0 -39 -14 -72.5t-40.5 -58t-63.5 -39t-83 -14.5q-103 0 -156.5 54t-54.5 150h116q2 -38 23 -60t59 -22q41 0 59 23t18 50q0 32 -16 55t-61 50l-152 89v57l25 14q26 15 38 34t12 45q0 40 -23 65.5t-64 25.5q-42 0 -68.5 -26.5
t-26.5 -74.5l1 -521h-141v492q0 132 65.5 195t186.5 63q51 0 91 -13t67 -36t41.5 -53.5t14.5 -65.5q0 -43 -21 -76.5t-73 -58.5z" />
    <glyph glyph-name="agrave" unicode="&#xe0;" 
d="M443 652l-26 -56l-172 84l36 74zM281 561q72 0 121.5 -34t69.5 -88v115h140v-554h-140v116q-20 -55 -69.5 -89t-121.5 -34q-52 0 -97 19.5t-78 56t-51.5 89t-18.5 119.5t18.5 119.5t51.5 89t78 56t97 19.5zM325 438q-65 0 -105.5 -42t-40.5 -119q0 -76 40.5 -118
t105.5 -42q32 0 58.5 11t46.5 32t31 50.5t11 66.5q0 38 -11 67.5t-31 50.5t-46.5 32t-58.5 11z" />
    <glyph glyph-name="aacute" unicode="&#xe1;" 
d="M450 682l-183 -78l-24 51l178 98zM281 561q72 0 121.5 -34t69.5 -88v115h140v-554h-140v116q-20 -55 -69.5 -89t-121.5 -34q-52 0 -97 19.5t-78 56t-51.5 89t-18.5 119.5t18.5 119.5t51.5 89t78 56t97 19.5zM325 438q-65 0 -105.5 -42t-40.5 -119q0 -76 40.5 -118
t105.5 -42q32 0 58.5 11t46.5 32t31 50.5t11 66.5q0 38 -11 67.5t-31 50.5t-46.5 32t-58.5 11z" />
    <glyph glyph-name="acircumflex" unicode="&#xe2;" 
d="M338 655l-108 -55l-24 59l132 74l131 -74l-24 -59zM281 561q72 0 121.5 -34t69.5 -88v115h140v-554h-140v116q-20 -55 -69.5 -89t-121.5 -34q-52 0 -97 19.5t-78 56t-51.5 89t-18.5 119.5t18.5 119.5t51.5 89t78 56t97 19.5zM325 438q-65 0 -105.5 -42t-40.5 -119
q0 -76 40.5 -118t105.5 -42q32 0 58.5 11t46.5 32t31 50.5t11 66.5q0 38 -11 67.5t-31 50.5t-46.5 32t-58.5 11z" />
    <glyph glyph-name="atilde" unicode="&#xe3;" 
d="M283 722q20 0 34.5 -6.5t27.5 -15t25.5 -15t26.5 -6.5q34 0 40 43h61q-9 -59 -36 -86t-69 -27q-20 0 -35 6.5t-28 14.5t-25 14.5t-26 6.5q-33 0 -39 -42h-61q10 60 36 86.5t68 26.5zM281 561q72 0 121.5 -34t69.5 -88v115h140v-554h-140v116q-20 -55 -69.5 -89
t-121.5 -34q-52 0 -97 19.5t-78 56t-51.5 89t-18.5 119.5t18.5 119.5t51.5 89t78 56t97 19.5zM325 438q-65 0 -105.5 -42t-40.5 -119q0 -76 40.5 -118t105.5 -42q32 0 58.5 11t46.5 32t31 50.5t11 66.5q0 38 -11 67.5t-31 50.5t-46.5 32t-58.5 11z" />
    <glyph glyph-name="adieresis" unicode="&#xe4;" 
d="M167 686q0 27 18.5 45.5t44.5 18.5q28 0 46 -18.5t18 -45.5q0 -26 -18 -44.5t-46 -18.5q-26 0 -44.5 18.5t-18.5 44.5zM356 686q0 27 18 45.5t45 18.5t45.5 -18.5t18.5 -45.5q0 -26 -18.5 -44.5t-45.5 -18.5t-45 18.5t-18 44.5zM281 561q72 0 121.5 -34t69.5 -88v115h140
v-554h-140v116q-20 -55 -69.5 -89t-121.5 -34q-52 0 -97 19.5t-78 56t-51.5 89t-18.5 119.5t18.5 119.5t51.5 89t78 56t97 19.5zM325 438q-65 0 -105.5 -42t-40.5 -119q0 -76 40.5 -118t105.5 -42q32 0 58.5 11t46.5 32t31 50.5t11 66.5q0 38 -11 67.5t-31 50.5t-46.5 32
t-58.5 11z" />
    <glyph glyph-name="aring" unicode="&#xe5;" 
d="M324 832q48 0 81.5 -30.5t33.5 -84.5t-33.5 -84.5t-81.5 -30.5t-81.5 30.5t-33.5 84.5t33.5 84.5t81.5 30.5zM324 774q-23 0 -39 -15.5t-16 -41.5t16 -41.5t39 -15.5q24 0 40 15.5t16 41.5t-16 41.5t-40 15.5zM281 561q72 0 121.5 -34t69.5 -88v115h140v-554h-140v116
q-20 -55 -69.5 -89t-121.5 -34q-52 0 -97 19.5t-78 56t-51.5 89t-18.5 119.5t18.5 119.5t51.5 89t78 56t97 19.5zM325 438q-65 0 -105.5 -42t-40.5 -119q0 -76 40.5 -118t105.5 -42q32 0 58.5 11t46.5 32t31 50.5t11 66.5q0 38 -11 67.5t-31 50.5t-46.5 32t-58.5 11z" />
    <glyph glyph-name="ae" unicode="&#xe6;" horiz-adv-x="1086" 
d="M1050 298q0 -27 -4 -48h-429q3 -39 15.5 -67t32 -45t44.5 -25t52 -8q54 0 88.5 24t44.5 66h149q-8 -43 -28 -80t-50 -64t-69.5 -42.5t-87.5 -15.5q-70 0 -122.5 31.5t-73.5 91.5v-116h-140v116q-20 -55 -69.5 -89t-121.5 -34q-52 0 -97 19.5t-78 56t-51.5 89t-18.5 119.5
t18.5 119.5t51.5 89t78 56t97 19.5q72 0 121.5 -34t69.5 -88v115h140v-116q21 60 73.5 91.5t122.5 31.5q56 0 101 -19.5t76.5 -55t48 -83.5t16.5 -105zM908 312q2 36 -10 62t-32 43t-46.5 25t-54.5 8q-27 0 -52.5 -7.5t-45.5 -24t-33.5 -42.5t-16.5 -64h291zM325 117
q32 0 58.5 11t46.5 32t31 50.5t11 66.5q0 38 -11 67.5t-31 50.5t-46.5 32t-58.5 11q-65 0 -105.5 -42t-40.5 -119q0 -76 40.5 -118t105.5 -42z" />
    <glyph glyph-name="ccedilla" unicode="&#xe7;" horiz-adv-x="617" 
d="M310 114q49 0 81 25t41 70h149q-17 -96 -83.5 -153.5t-166.5 -62.5v-45q23 1 46 -4.5t41 -18t29.5 -32.5t11.5 -50q0 -29 -11 -49.5t-29.5 -33t-42 -18.5t-49.5 -6h-129v76h114q27 0 39 9.5t12 26.5q0 14 -12 23.5t-39 9.5h-66v119q-47 9 -86 32.5t-66.5 59t-42.5 82
t-15 103.5q0 67 20.5 119.5t57.5 89t87.5 56t111.5 19.5q108 0 179 -58t89 -158h-149q-9 45 -41 70t-81 25q-26 0 -50 -9.5t-42 -29.5t-28.5 -51t-10.5 -73t10.5 -72.5t28.5 -51t42 -30t50 -9.5z" />
    <glyph glyph-name="egrave" unicode="&#xe8;" horiz-adv-x="621" 
d="M389 596l-172 84l36 74l162 -102zM585 298q0 -14 -1.5 -25t-3.5 -23h-406q2 -40 13 -67.5t29 -44.5t41.5 -24.5t48.5 -7.5q50 0 82 24.5t41 64.5h149q-8 -43 -30.5 -80t-57 -64t-79.5 -42.5t-98 -15.5q-61 0 -111.5 19.5t-87.5 56t-57.5 89.5t-20.5 119q0 67 20.5 119.5
t57.5 89t87.5 56t111.5 19.5q63 0 113 -19.5t85.5 -55t54.5 -83.5t19 -105zM443 312q2 36 -9 62.5t-29 43t-42 24.5t-50 8q-54 0 -94 -33.5t-45 -104.5h269z" />
    <glyph glyph-name="eacute" unicode="&#xe9;" horiz-adv-x="621" 
d="M239 604l-24 51l178 98l29 -71zM585 298q0 -14 -1.5 -25t-3.5 -23h-406q2 -40 13 -67.5t29 -44.5t41.5 -24.5t48.5 -7.5q50 0 82 24.5t41 64.5h149q-8 -43 -30.5 -80t-57 -64t-79.5 -42.5t-98 -15.5q-61 0 -111.5 19.5t-87.5 56t-57.5 89.5t-20.5 119q0 67 20.5 119.5
t57.5 89t87.5 56t111.5 19.5q63 0 113 -19.5t85.5 -55t54.5 -83.5t19 -105zM443 312q2 36 -9 62.5t-29 43t-42 24.5t-50 8q-54 0 -94 -33.5t-45 -104.5h269z" />
    <glyph glyph-name="ecircumflex" unicode="&#xea;" horiz-adv-x="621" 
d="M202 600l-24 59l132 74l131 -74l-24 -59l-107 55zM585 298q0 -14 -1.5 -25t-3.5 -23h-406q2 -40 13 -67.5t29 -44.5t41.5 -24.5t48.5 -7.5q50 0 82 24.5t41 64.5h149q-8 -43 -30.5 -80t-57 -64t-79.5 -42.5t-98 -15.5q-61 0 -111.5 19.5t-87.5 56t-57.5 89.5t-20.5 119
q0 67 20.5 119.5t57.5 89t87.5 56t111.5 19.5q63 0 113 -19.5t85.5 -55t54.5 -83.5t19 -105zM443 312q2 36 -9 62.5t-29 43t-42 24.5t-50 8q-54 0 -94 -33.5t-45 -104.5h269z" />
    <glyph glyph-name="edieresis" unicode="&#xeb;" horiz-adv-x="621" 
d="M216 623q-26 0 -44.5 18.5t-18.5 44.5q0 27 18.5 45.5t44.5 18.5q28 0 46 -18.5t18 -45.5q0 -26 -18 -44.5t-46 -18.5zM405 623q-27 0 -45 18.5t-18 44.5q0 27 18 45.5t45 18.5t45.5 -18.5t18.5 -45.5q0 -26 -18.5 -44.5t-45.5 -18.5zM585 298q0 -14 -1.5 -25t-3.5 -23
h-406q2 -40 13 -67.5t29 -44.5t41.5 -24.5t48.5 -7.5q50 0 82 24.5t41 64.5h149q-8 -43 -30.5 -80t-57 -64t-79.5 -42.5t-98 -15.5q-61 0 -111.5 19.5t-87.5 56t-57.5 89.5t-20.5 119q0 67 20.5 119.5t57.5 89t87.5 56t111.5 19.5q63 0 113 -19.5t85.5 -55t54.5 -83.5
t19 -105zM443 312q2 36 -9 62.5t-29 43t-42 24.5t-50 8q-54 0 -94 -33.5t-45 -104.5h269z" />
    <glyph glyph-name="igrave" unicode="&#xec;" horiz-adv-x="299" 
d="M255 652l-26 -56l-172 84l36 74zM220 554v-554h-141v554h141z" />
    <glyph glyph-name="iacute" unicode="&#xed;" horiz-adv-x="299" 
d="M262 682l-183 -78l-24 51l178 98zM220 554v-554h-141v554h141z" />
    <glyph glyph-name="icircumflex" unicode="&#xee;" horiz-adv-x="299" 
d="M150 655l-108 -55l-24 59l132 74l131 -74l-24 -59zM220 554v-554h-141v554h141z" />
    <glyph glyph-name="idieresis" unicode="&#xef;" horiz-adv-x="299" 
d="M-8 686q0 27 18.5 45.5t44.5 18.5q28 0 46 -18.5t18 -45.5q0 -26 -18 -44.5t-46 -18.5q-26 0 -44.5 18.5t-18.5 44.5zM181 686q0 27 18 45.5t45 18.5t45.5 -18.5t18.5 -45.5q0 -26 -18.5 -44.5t-45.5 -18.5t-45 18.5t-18 44.5zM220 554v-554h-141v554h141z" />
    <glyph glyph-name="eth" unicode="&#xf0;" horiz-adv-x="644" 
d="M474 666q64 -76 99 -165t35 -188q0 -79 -22 -139t-60 -100t-89.5 -60t-110.5 -20q-61 0 -114 20.5t-92 58.5t-61.5 92t-22.5 120q0 64 20.5 115t57 87t86.5 55.5t110 19.5q44 0 83.5 -20.5t62.5 -65.5q-12 44 -31 83.5t-47 76.5l-119 -38v50l87 27q-16 17 -32.5 33
t-36.5 32h125q10 -8 19 -17l18 -18l101 32v-50zM326 116q28 0 53 10t44 30t30 50t11 71q0 42 -12 72.5t-31.5 50.5t-44.5 30t-52 10q-29 0 -55 -9.5t-46 -29t-31.5 -48.5t-11.5 -69q0 -42 12 -73.5t32 -52.5t46.5 -31.5t55.5 -10.5z" />
    <glyph glyph-name="ntilde" unicode="&#xf1;" horiz-adv-x="664" 
d="M273 651q-33 0 -39 -42h-61q10 60 36 86.5t68 26.5q20 0 34.5 -6.5t27.5 -15t25.5 -15t26.5 -6.5q34 0 40 43h61q-9 -59 -36 -86t-69 -27q-20 0 -35 6.5t-28 14.5t-25 14.5t-26 6.5zM394 562q47 0 85.5 -15.5t66.5 -46t43 -75.5t15 -103v-322h-140v306q0 68 -34.5 103.5
t-92.5 35.5q-59 0 -95.5 -38t-36.5 -113v-294h-141v554h141v-111q23 57 73 88t116 31z" />
    <glyph glyph-name="ograve" unicode="&#xf2;" horiz-adv-x="640" 
d="M425 652l-26 -56l-172 84l36 74zM320 561q61 0 113 -19.5t90 -56t59.5 -89t21.5 -119.5q0 -66 -21.5 -119t-59.5 -89.5t-90 -56t-113 -19.5t-113 19.5t-90 56t-59.5 89.5t-21.5 119q0 67 21.5 119.5t59.5 89t90 56t113 19.5zM320 439q-27 0 -52.5 -9.5t-45 -29.5
t-31.5 -50.5t-12 -72.5t12 -72.5t31.5 -50.5t45 -29.5t52.5 -9.5t52.5 9.5t45 29.5t31.5 50.5t12 72.5t-12 72.5t-31.5 50.5t-45 29.5t-52.5 9.5z" />
    <glyph glyph-name="oacute" unicode="&#xf3;" horiz-adv-x="640" 
d="M432 682l-183 -78l-24 51l178 98zM320 561q61 0 113 -19.5t90 -56t59.5 -89t21.5 -119.5q0 -66 -21.5 -119t-59.5 -89.5t-90 -56t-113 -19.5t-113 19.5t-90 56t-59.5 89.5t-21.5 119q0 67 21.5 119.5t59.5 89t90 56t113 19.5zM320 439q-27 0 -52.5 -9.5t-45 -29.5
t-31.5 -50.5t-12 -72.5t12 -72.5t31.5 -50.5t45 -29.5t52.5 -9.5t52.5 9.5t45 29.5t31.5 50.5t12 72.5t-12 72.5t-31.5 50.5t-45 29.5t-52.5 9.5z" />
    <glyph glyph-name="ocircumflex" unicode="&#xf4;" horiz-adv-x="640" 
d="M320 655l-108 -55l-24 59l132 74l131 -74l-24 -59zM320 561q61 0 113 -19.5t90 -56t59.5 -89t21.5 -119.5q0 -66 -21.5 -119t-59.5 -89.5t-90 -56t-113 -19.5t-113 19.5t-90 56t-59.5 89.5t-21.5 119q0 67 21.5 119.5t59.5 89t90 56t113 19.5zM320 439q-27 0 -52.5 -9.5
t-45 -29.5t-31.5 -50.5t-12 -72.5t12 -72.5t31.5 -50.5t45 -29.5t52.5 -9.5t52.5 9.5t45 29.5t31.5 50.5t12 72.5t-12 72.5t-31.5 50.5t-45 29.5t-52.5 9.5z" />
    <glyph glyph-name="otilde" unicode="&#xf5;" horiz-adv-x="640" 
d="M265 722q20 0 34.5 -6.5t27.5 -15t25.5 -15t26.5 -6.5q34 0 40 43h61q-9 -59 -36 -86t-69 -27q-20 0 -35 6.5t-28 14.5t-25 14.5t-26 6.5q-33 0 -39 -42h-61q10 60 36 86.5t68 26.5zM320 561q61 0 113 -19.5t90 -56t59.5 -89t21.5 -119.5q0 -66 -21.5 -119t-59.5 -89.5
t-90 -56t-113 -19.5t-113 19.5t-90 56t-59.5 89.5t-21.5 119q0 67 21.5 119.5t59.5 89t90 56t113 19.5zM320 439q-27 0 -52.5 -9.5t-45 -29.5t-31.5 -50.5t-12 -72.5t12 -72.5t31.5 -50.5t45 -29.5t52.5 -9.5t52.5 9.5t45 29.5t31.5 50.5t12 72.5t-12 72.5t-31.5 50.5
t-45 29.5t-52.5 9.5z" />
    <glyph glyph-name="odieresis" unicode="&#xf6;" horiz-adv-x="640" 
d="M163 686q0 27 18.5 45.5t44.5 18.5q28 0 46 -18.5t18 -45.5q0 -26 -18 -44.5t-46 -18.5q-26 0 -44.5 18.5t-18.5 44.5zM352 686q0 27 18 45.5t45 18.5t45.5 -18.5t18.5 -45.5q0 -26 -18.5 -44.5t-45.5 -18.5t-45 18.5t-18 44.5zM320 561q61 0 113 -19.5t90 -56t59.5 -89
t21.5 -119.5q0 -66 -21.5 -119t-59.5 -89.5t-90 -56t-113 -19.5t-113 19.5t-90 56t-59.5 89.5t-21.5 119q0 67 21.5 119.5t59.5 89t90 56t113 19.5zM320 439q-27 0 -52.5 -9.5t-45 -29.5t-31.5 -50.5t-12 -72.5t12 -72.5t31.5 -50.5t45 -29.5t52.5 -9.5t52.5 9.5t45 29.5
t31.5 50.5t12 72.5t-12 72.5t-31.5 50.5t-45 29.5t-52.5 9.5z" />
    <glyph glyph-name="divide" unicode="&#xf7;" horiz-adv-x="566" 
d="M358 656v-147h-152v147h152zM538 420v-128h-510v128h510zM358 205v-147h-152v147h152z" />
    <glyph glyph-name="oslash" unicode="&#xf8;" horiz-adv-x="631" 
d="M530 473q33 -36 51 -85.5t18 -110.5q0 -66 -21.5 -119t-59.5 -89.5t-90 -56t-113 -19.5q-51 0 -95.5 13.5t-79.5 39.5l-42 -46h-70l73 80q-33 36 -51.5 85.5t-18.5 111.5q0 67 21.5 119.5t59.5 89t90 56t113 19.5q51 0 96 -13.5t81 -39.5l42 46h71zM174 277
q0 -29 5.5 -52t15.5 -42l207 227q-18 15 -40.5 22t-46.5 7q-27 0 -52.5 -9.5t-45 -29.5t-31.5 -50.5t-12 -72.5zM456 277q0 28 -5.5 51t-14.5 41l-207 -226q37 -28 86 -28q27 0 52.5 9.5t45 29.5t31.5 50.5t12 72.5z" />
    <glyph glyph-name="ugrave" unicode="&#xf9;" horiz-adv-x="658" 
d="M408 596l-172 84l36 74l162 -102zM594 554v-554h-141v112q-23 -57 -73 -88t-116 -31q-47 0 -85.5 15.5t-66.5 46t-43 75t-15 102.5v322h140v-306q0 -68 34.5 -103.5t91.5 -35.5q60 0 96.5 38t36.5 113v294h141z" />
    <glyph glyph-name="uacute" unicode="&#xfa;" horiz-adv-x="658" 
d="M258 604l-24 51l178 98l29 -71zM594 554v-554h-141v112q-23 -57 -73 -88t-116 -31q-47 0 -85.5 15.5t-66.5 46t-43 75t-15 102.5v322h140v-306q0 -68 34.5 -103.5t91.5 -35.5q60 0 96.5 38t36.5 113v294h141z" />
    <glyph glyph-name="ucircumflex" unicode="&#xfb;" horiz-adv-x="658" 
d="M221 600l-24 59l132 74l131 -74l-24 -59l-107 55zM594 554v-554h-141v112q-23 -57 -73 -88t-116 -31q-47 0 -85.5 15.5t-66.5 46t-43 75t-15 102.5v322h140v-306q0 -68 34.5 -103.5t91.5 -35.5q60 0 96.5 38t36.5 113v294h141z" />
    <glyph glyph-name="udieresis" unicode="&#xfc;" horiz-adv-x="658" 
d="M229 623q-26 0 -44.5 18.5t-18.5 44.5q0 27 18.5 45.5t44.5 18.5q28 0 46 -18.5t18 -45.5q0 -26 -18 -44.5t-46 -18.5zM418 623q-27 0 -45 18.5t-18 44.5q0 27 18 45.5t45 18.5t45.5 -18.5t18.5 -45.5q0 -26 -18.5 -44.5t-45.5 -18.5zM594 554v-554h-141v112
q-23 -57 -73 -88t-116 -31q-47 0 -85.5 15.5t-66.5 46t-43 75t-15 102.5v322h140v-306q0 -68 34.5 -103.5t91.5 -35.5q60 0 96.5 38t36.5 113v294h141z" />
    <glyph glyph-name="yacute" unicode="&#xfd;" horiz-adv-x="607" 
d="M416 682l-183 -78l-24 51l178 98zM159 554l151 -376l140 376h155l-339 -818h-156l125 280l-233 538h157z" />
    <glyph glyph-name="thorn" unicode="&#xfe;" 
d="M386 560q53 0 99.5 -20.5t81 -58t54 -90t19.5 -116.5t-19.5 -116t-54 -88.5t-81 -56.5t-99.5 -20q-66 0 -110.5 30t-70.5 83v-371h-141v1004h141v-285q25 50 70 77.5t111 27.5zM352 437q-29 0 -55.5 -10t-47 -30t-32.5 -50t-12 -70q0 -39 12 -69t32.5 -50.5t47 -30.5
t55.5 -10q30 0 56 9.5t46 29t31.5 49.5t11.5 70t-11.5 70.5t-31.5 50.5t-46 30.5t-56 10.5z" />
    <glyph glyph-name="ydieresis" unicode="&#xff;" horiz-adv-x="607" 
d="M146 686q0 27 18.5 45.5t44.5 18.5q28 0 46 -18.5t18 -45.5q0 -26 -18 -44.5t-46 -18.5q-26 0 -44.5 18.5t-18.5 44.5zM335 686q0 27 18 45.5t45 18.5t45.5 -18.5t18.5 -45.5q0 -26 -18.5 -44.5t-45.5 -18.5t-45 18.5t-18 44.5zM159 554l151 -376l140 376h155l-339 -818
h-156l125 280l-233 538h157z" />
    <glyph glyph-name="Amacron" unicode="&#x100;" horiz-adv-x="704" 
d="M543 789h-382v95h382v-95zM494 142h-283l-50 -142h-149l260 698h161l259 -698h-149zM456 249l-104 298l-104 -298h208z" />
    <glyph glyph-name="amacron" unicode="&#x101;" 
d="M516 732v-95h-382v95h382zM281 561q72 0 121.5 -34t69.5 -88v115h140v-554h-140v116q-20 -55 -69.5 -89t-121.5 -34q-52 0 -97 19.5t-78 56t-51.5 89t-18.5 119.5t18.5 119.5t51.5 89t78 56t97 19.5zM325 438q-65 0 -105.5 -42t-40.5 -119q0 -76 40.5 -118t105.5 -42
q32 0 58.5 11t46.5 32t31 50.5t11 66.5q0 38 -11 67.5t-31 50.5t-46.5 32t-58.5 11z" />
    <glyph glyph-name="Abreve" unicode="&#x102;" horiz-adv-x="704" 
d="M353 758q-65 0 -102.5 38.5t-37.5 104.5v10h59q0 -32 19 -49.5t62 -17.5t62 17.5t19 49.5h59v-10q0 -66 -37.5 -104.5t-102.5 -38.5zM494 142h-283l-50 -142h-149l260 698h161l259 -698h-149zM456 249l-104 298l-104 -298h208z" />
    <glyph glyph-name="abreve" unicode="&#x103;" 
d="M338 606q-65 0 -102.5 38.5t-37.5 104.5v10h59q0 -32 19 -49.5t62 -17.5t62 17.5t19 49.5h59v-10q0 -66 -37.5 -104.5t-102.5 -38.5zM281 561q72 0 121.5 -34t69.5 -88v115h140v-554h-140v116q-20 -55 -69.5 -89t-121.5 -34q-52 0 -97 19.5t-78 56t-51.5 89t-18.5 119.5
t18.5 119.5t51.5 89t78 56t97 19.5zM325 438q-65 0 -105.5 -42t-40.5 -119q0 -76 40.5 -118t105.5 -42q32 0 58.5 11t46.5 32t31 50.5t11 66.5q0 38 -11 67.5t-31 50.5t-46.5 32t-58.5 11z" />
    <glyph glyph-name="Aogonek" unicode="&#x104;" horiz-adv-x="704" 
d="M732 -132v-75h-128q-27 0 -51.5 6.5t-43 20t-30 34.5t-11.5 50q0 34 17.5 59.5t56.5 39.5l-48 139h-283l-50 -142h-149l260 698h161l256 -689v-62h-72q-25 0 -39 -10t-14 -29t14 -29.5t39 -10.5h115zM456 249l-104 299l-104 -299h208z" />
    <glyph glyph-name="aogonek" unicode="&#x105;" 
d="M655 -131v-76h-128q-27 0 -51.5 6.5t-43 20t-30 34.5t-11.5 50q0 45 24 70.5t57 35.5v106q-20 -55 -69.5 -89t-121.5 -34q-52 0 -97 19.5t-78 56t-51.5 89t-18.5 119.5t18.5 119.5t51.5 89t78 56t97 19.5q72 0 121.5 -34t69.5 -88v115h140v-606h-71q-25 0 -39.5 -10.5
t-14.5 -28.5q0 -19 14.5 -29.5t39.5 -10.5h114zM325 117q32 0 58.5 11t46.5 32t31 50.5t11 66.5q0 38 -11 67.5t-31 50.5t-46.5 32t-58.5 11q-65 0 -105.5 -42t-40.5 -119q0 -76 40.5 -118t105.5 -42z" />
    <glyph glyph-name="Cacute" unicode="&#x106;" horiz-adv-x="759" 
d="M492 834l-183 -78l-24 51l178 98zM383 713q68 0 123.5 -18t97.5 -51.5t71 -80t42 -103.5h-148q-22 55 -69.5 89t-118.5 34q-42 0 -78 -16t-62.5 -46t-41 -72.5t-14.5 -95.5q0 -52 14.5 -94.5t41 -72.5t62.5 -46t78 -16q71 0 118.5 34t69.5 89h148q-13 -57 -42 -103.5
t-71 -80t-97.5 -51.5t-123.5 -18q-77 0 -140 26.5t-107.5 74t-69 113.5t-24.5 145q0 80 24.5 146t69 113.5t107.5 74t140 26.5z" />
    <glyph glyph-name="cacute" unicode="&#x107;" horiz-adv-x="617" 
d="M421 682l-183 -78l-24 51l178 98zM313 561q108 0 179 -58t89 -158h-149q-9 45 -41 70t-81 25q-26 0 -50 -9.5t-42 -29.5t-28.5 -51t-10.5 -73t10.5 -72.5t28.5 -51t42 -30t50 -9.5q49 0 81 25t41 70h149q-18 -100 -89 -158t-179 -58q-61 0 -111.5 19.5t-87.5 56
t-57.5 89.5t-20.5 119q0 67 20.5 119.5t57.5 89t87.5 56t111.5 19.5z" />
    <glyph glyph-name="Cdotaccent" unicode="&#x10a;" horiz-adv-x="759" 
d="M316 838q0 27 18.5 45.5t44.5 18.5q27 0 45.5 -18.5t18.5 -45.5q0 -26 -18.5 -44.5t-45.5 -18.5q-26 0 -44.5 18.5t-18.5 44.5zM383 713q68 0 123.5 -18t97.5 -51.5t71 -80t42 -103.5h-148q-22 55 -69.5 89t-118.5 34q-42 0 -78 -16t-62.5 -46t-41 -72.5t-14.5 -95.5
q0 -52 14.5 -94.5t41 -72.5t62.5 -46t78 -16q71 0 118.5 34t69.5 89h148q-13 -57 -42 -103.5t-71 -80t-97.5 -51.5t-123.5 -18q-77 0 -140 26.5t-107.5 74t-69 113.5t-24.5 145q0 80 24.5 146t69 113.5t107.5 74t140 26.5z" />
    <glyph glyph-name="cdotaccent" unicode="&#x10b;" horiz-adv-x="617" 
d="M245 686q0 27 18.5 45.5t44.5 18.5q27 0 45.5 -18.5t18.5 -45.5q0 -26 -18.5 -44.5t-45.5 -18.5q-26 0 -44.5 18.5t-18.5 44.5zM313 561q108 0 179 -58t89 -158h-149q-9 45 -41 70t-81 25q-26 0 -50 -9.5t-42 -29.5t-28.5 -51t-10.5 -73t10.5 -72.5t28.5 -51t42 -30
t50 -9.5q49 0 81 25t41 70h149q-18 -100 -89 -158t-179 -58q-61 0 -111.5 19.5t-87.5 56t-57.5 89.5t-20.5 119q0 67 20.5 119.5t57.5 89t87.5 56t111.5 19.5z" />
    <glyph glyph-name="Ccaron" unicode="&#x10c;" horiz-adv-x="759" 
d="M528 837l-148 -83l-149 83v95l149 -85l148 85v-95zM383 713q68 0 123.5 -18t97.5 -51.5t71 -80t42 -103.5h-148q-22 55 -69.5 89t-118.5 34q-42 0 -78 -16t-62.5 -46t-41 -72.5t-14.5 -95.5q0 -52 14.5 -94.5t41 -72.5t62.5 -46t78 -16q71 0 118.5 34t69.5 89h148
q-13 -57 -42 -103.5t-71 -80t-97.5 -51.5t-123.5 -18q-77 0 -140 26.5t-107.5 74t-69 113.5t-24.5 145q0 80 24.5 146t69 113.5t107.5 74t140 26.5z" />
    <glyph glyph-name="ccaron" unicode="&#x10d;" horiz-adv-x="617" 
d="M457 685l-148 -83l-149 83v95l149 -85l148 85v-95zM313 561q108 0 179 -58t89 -158h-149q-9 45 -41 70t-81 25q-26 0 -50 -9.5t-42 -29.5t-28.5 -51t-10.5 -73t10.5 -72.5t28.5 -51t42 -30t50 -9.5q49 0 81 25t41 70h149q-18 -100 -89 -158t-179 -58q-61 0 -111.5 19.5
t-87.5 56t-57.5 89.5t-20.5 119q0 67 20.5 119.5t57.5 89t87.5 56t111.5 19.5z" />
    <glyph glyph-name="Dcaron" unicode="&#x10e;" horiz-adv-x="727" 
d="M523 837l-148 -83l-149 83v95l149 -85l148 85v-95zM685 354q0 -79 -25 -144t-72.5 -111.5t-116 -72.5t-156.5 -26h-251v706h251q88 0 156.5 -25t116 -71.5t72.5 -111t25 -144.5zM303 126q115 0 177 59.5t62 168.5t-62 169t-177 60h-98v-457h98z" />
    <glyph glyph-name="dcaron" unicode="&#x10f;" horiz-adv-x="798" 
d="M281 561q72 0 121 -34t70 -88v301h140v-740h-140v116q-21 -55 -70 -89t-121 -34q-52 0 -97 19.5t-78 56t-51.5 89t-18.5 119.5t18.5 119.5t51.5 89t78 56t97 19.5zM787 740q9 -29 13 -56.5t4 -51.5q0 -63 -31 -100t-95 -37v55q51 0 51 62v19h-58v109h116zM325 438
q-65 0 -105.5 -42t-40.5 -119q0 -76 40.5 -118t105.5 -42q32 0 58.5 11t46.5 32t31 50.5t11 66.5q0 38 -11 67.5t-31 50.5t-46.5 32t-58.5 11z" />
    <glyph glyph-name="Dcroat" unicode="&#x110;" horiz-adv-x="743" 
d="M331 706q88 0 156.5 -25t116 -71.5t72.5 -111t25 -144.5q0 -79 -25 -144t-72.5 -111.5t-116 -72.5t-156.5 -26h-251v298h-76v113h76v295h251zM319 126q115 0 177 59.5t62 168.5t-62 169t-177 60h-98v-172h171v-113h-171v-172h98z" />
    <glyph glyph-name="dcroat" unicode="&#x111;" horiz-adv-x="688" 
d="M660 599h-48v-599h-140v116q-21 -55 -70 -89t-121 -34q-52 0 -97 19.5t-78 56t-51.5 89t-18.5 119.5t18.5 119.5t51.5 89t78 56t97 19.5q72 0 121 -34t70 -88v160h-136v65h136v76h140v-76h48v-65zM325 117q32 0 58.5 11t46.5 32t31 50.5t11 66.5q0 38 -11 67.5t-31 50.5
t-46.5 32t-58.5 11q-65 0 -105.5 -42t-40.5 -119q0 -76 40.5 -118t105.5 -42z" />
    <glyph glyph-name="Emacron" unicode="&#x112;" horiz-adv-x="525" 
d="M466 884v-95h-382v95h382zM205 594v-183h250v-108h-250v-190h280v-113h-421v706h421v-112h-280z" />
    <glyph glyph-name="emacron" unicode="&#x113;" horiz-adv-x="621" 
d="M502 637h-382v95h382v-95zM585 298q0 -14 -1.5 -25t-3.5 -23h-406q2 -40 13 -67.5t29 -44.5t41.5 -24.5t48.5 -7.5q50 0 82 24.5t41 64.5h149q-8 -43 -30.5 -80t-57 -64t-79.5 -42.5t-98 -15.5q-61 0 -111.5 19.5t-87.5 56t-57.5 89.5t-20.5 119q0 67 20.5 119.5t57.5 89
t87.5 56t111.5 19.5q63 0 113 -19.5t85.5 -55t54.5 -83.5t19 -105zM443 312q2 36 -9 62.5t-29 43t-42 24.5t-50 8q-54 0 -94 -33.5t-45 -104.5h269z" />
    <glyph glyph-name="Ebreve" unicode="&#x114;" horiz-adv-x="525" 
d="M263 758q-65 0 -102.5 38.5t-37.5 104.5v10h59q0 -32 19 -49.5t62 -17.5t62 17.5t19 49.5h59v-10q0 -66 -37.5 -104.5t-102.5 -38.5zM205 594v-183h250v-108h-250v-190h280v-113h-421v706h421v-112h-280z" />
    <glyph glyph-name="ebreve" unicode="&#x115;" horiz-adv-x="621" 
d="M310 606q-65 0 -102.5 38.5t-37.5 104.5v10h59q0 -32 19 -49.5t62 -17.5t62 17.5t19 49.5h59v-10q0 -66 -37.5 -104.5t-102.5 -38.5zM585 298q0 -14 -1.5 -25t-3.5 -23h-406q2 -40 13 -67.5t29 -44.5t41.5 -24.5t48.5 -7.5q50 0 82 24.5t41 64.5h149q-8 -43 -30.5 -80
t-57 -64t-79.5 -42.5t-98 -15.5q-61 0 -111.5 19.5t-87.5 56t-57.5 89.5t-20.5 119q0 67 20.5 119.5t57.5 89t87.5 56t111.5 19.5q63 0 113 -19.5t85.5 -55t54.5 -83.5t19 -105zM443 312q2 36 -9 62.5t-29 43t-42 24.5t-50 8q-54 0 -94 -33.5t-45 -104.5h269z" />
    <glyph glyph-name="Edotaccent" unicode="&#x116;" horiz-adv-x="525" 
d="M211 838q0 27 18.5 45.5t44.5 18.5q27 0 45.5 -18.5t18.5 -45.5q0 -26 -18.5 -44.5t-45.5 -18.5q-26 0 -44.5 18.5t-18.5 44.5zM205 594v-183h250v-108h-250v-190h280v-113h-421v706h421v-112h-280z" />
    <glyph glyph-name="edotaccent" unicode="&#x117;" horiz-adv-x="621" 
d="M310 623q-26 0 -44.5 18.5t-18.5 44.5q0 27 18.5 45.5t44.5 18.5q27 0 45.5 -18.5t18.5 -45.5q0 -26 -18.5 -44.5t-45.5 -18.5zM585 298q0 -14 -1.5 -25t-3.5 -23h-406q2 -40 13 -67.5t29 -44.5t41.5 -24.5t48.5 -7.5q50 0 82 24.5t41 64.5h149q-8 -43 -30.5 -80t-57 -64
t-79.5 -42.5t-98 -15.5q-61 0 -111.5 19.5t-87.5 56t-57.5 89.5t-20.5 119q0 67 20.5 119.5t57.5 89t87.5 56t111.5 19.5q63 0 113 -19.5t85.5 -55t54.5 -83.5t19 -105zM443 312q2 36 -9 62.5t-29 43t-42 24.5t-50 8q-54 0 -94 -33.5t-45 -104.5h269z" />
    <glyph glyph-name="Eogonek" unicode="&#x118;" horiz-adv-x="525" 
d="M501 -86v-76h-128q-27 0 -51.5 6.5t-43 20t-30 34.5t-11.5 50t11 51h-184v706h421v-112h-280v-183h250v-108h-250v-190h280v-113h-27v-7h-71q-25 0 -39.5 -10.5t-14.5 -28.5q0 -19 14.5 -29.5t39.5 -10.5h114z" />
    <glyph glyph-name="eogonek" unicode="&#x119;" horiz-adv-x="621" 
d="M585 298q0 -14 -1.5 -25t-3.5 -23h-406q2 -39 14 -66.5t30 -44.5t41.5 -25t47.5 -8q49 0 81 24.5t41 64.5h149q-14 -74 -67.5 -127t-135.5 -68q-22 -4 -22 -23q0 -17 15 -27t45 -10h102v-76h-122q-27 0 -51.5 6.5t-43 20t-30 34.5t-11.5 50v25q-49 8 -89.5 30t-70 57.5
t-45.5 83.5t-16 106q0 67 20.5 119.5t57.5 89t87.5 56t111.5 19.5q63 0 113 -19.5t85.5 -55t54.5 -83.5t19 -105zM443 312q2 36 -9 62.5t-29 43t-42 24.5t-50 8q-54 0 -94 -33.5t-45 -104.5h269z" />
    <glyph glyph-name="Ecaron" unicode="&#x11a;" horiz-adv-x="525" 
d="M423 837l-148 -83l-149 83v95l149 -85l148 85v-95zM205 594v-183h250v-108h-250v-190h280v-113h-421v706h421v-112h-280z" />
    <glyph glyph-name="ecaron" unicode="&#x11b;" horiz-adv-x="621" 
d="M311 602l-149 83v95l149 -85l148 85v-95zM585 298q0 -14 -1.5 -25t-3.5 -23h-406q2 -40 13 -67.5t29 -44.5t41.5 -24.5t48.5 -7.5q50 0 82 24.5t41 64.5h149q-8 -43 -30.5 -80t-57 -64t-79.5 -42.5t-98 -15.5q-61 0 -111.5 19.5t-87.5 56t-57.5 89.5t-20.5 119
q0 67 20.5 119.5t57.5 89t87.5 56t111.5 19.5q63 0 113 -19.5t85.5 -55t54.5 -83.5t19 -105zM443 312q2 36 -9 62.5t-29 43t-42 24.5t-50 8q-54 0 -94 -33.5t-45 -104.5h269z" />
    <glyph glyph-name="Gbreve" unicode="&#x11e;" horiz-adv-x="768" 
d="M384 758q-65 0 -102.5 38.5t-37.5 104.5v10h59q0 -32 19 -49.5t62 -17.5t62 17.5t19 49.5h59v-10q0 -66 -37.5 -104.5t-102.5 -38.5zM391 713q66 0 120 -16.5t95.5 -47.5t68.5 -74.5t39 -96.5h-148q-20 46 -64.5 75.5t-109.5 29.5q-46 0 -84 -16t-65.5 -46t-42.5 -72.5
t-15 -95.5q0 -113 59.5 -174t162.5 -61q75 0 129.5 44t71.5 126h-239v101h357v-136q-11 -51 -38 -98t-69 -82.5t-99 -57t-128 -21.5q-79 0 -144 26.5t-110.5 74t-70.5 113.5t-25 145t25 145t70.5 114t110 74.5t143.5 26.5z" />
    <glyph glyph-name="gbreve" unicode="&#x11f;" 
d="M338 606q-65 0 -102.5 38.5t-37.5 104.5v10h59q0 -32 19 -49.5t62 -17.5t62 17.5t19 49.5h59v-10q0 -66 -37.5 -104.5t-102.5 -38.5zM281 561q72 0 121.5 -34t69.5 -88v115h140v-556q0 -57 -17 -106.5t-50.5 -85.5t-84 -57t-116.5 -21q-123 0 -195.5 58.5t-88.5 153.5
h139q11 -41 45 -65t90 -24q29 0 54 8.5t44 26.5t29.5 45.5t10.5 66.5v118q-20 -55 -69.5 -89t-121.5 -34q-52 0 -97 19.5t-78 56t-51.5 89t-18.5 119.5t18.5 119.5t51.5 89t78 56t97 19.5zM325 438q-65 0 -105.5 -42t-40.5 -119q0 -76 40.5 -118t105.5 -42q32 0 58.5 11
t46.5 32t31 50.5t11 66.5q0 38 -11 67.5t-31 50.5t-46.5 32t-58.5 11z" />
    <glyph glyph-name="Gdotaccent" unicode="&#x120;" horiz-adv-x="768" 
d="M321 838q0 27 18.5 45.5t44.5 18.5q27 0 45.5 -18.5t18.5 -45.5q0 -26 -18.5 -44.5t-45.5 -18.5q-26 0 -44.5 18.5t-18.5 44.5zM391 713q66 0 120 -16.5t95.5 -47.5t68.5 -74.5t39 -96.5h-148q-20 46 -64.5 75.5t-109.5 29.5q-46 0 -84 -16t-65.5 -46t-42.5 -72.5
t-15 -95.5q0 -113 59.5 -174t162.5 -61q75 0 129.5 44t71.5 126h-239v101h357v-136q-11 -51 -38 -98t-69 -82.5t-99 -57t-128 -21.5q-79 0 -144 26.5t-110.5 74t-70.5 113.5t-25 145t25 145t70.5 114t110 74.5t143.5 26.5z" />
    <glyph glyph-name="gdotaccent" unicode="&#x121;" 
d="M261 686q0 27 18.5 45.5t44.5 18.5q27 0 45.5 -18.5t18.5 -45.5q0 -26 -18.5 -44.5t-45.5 -18.5q-26 0 -44.5 18.5t-18.5 44.5zM281 561q72 0 121.5 -34t69.5 -88v115h140v-556q0 -57 -17 -106.5t-50.5 -85.5t-84 -57t-116.5 -21q-123 0 -195.5 58.5t-88.5 153.5h139
q11 -41 45 -65t90 -24q29 0 54 8.5t44 26.5t29.5 45.5t10.5 66.5v118q-20 -55 -69.5 -89t-121.5 -34q-52 0 -97 19.5t-78 56t-51.5 89t-18.5 119.5t18.5 119.5t51.5 89t78 56t97 19.5zM325 438q-65 0 -105.5 -42t-40.5 -119q0 -76 40.5 -118t105.5 -42q32 0 58.5 11t46.5 32
t31 50.5t11 66.5q0 38 -11 67.5t-31 50.5t-46.5 32t-58.5 11z" />
    <glyph glyph-name="Gcommaaccent" unicode="&#x122;" horiz-adv-x="770" 
d="M391 713q66 0 120 -16.5t95.5 -47.5t68.5 -74.5t39 -96.5h-148q-20 46 -64.5 75.5t-109.5 29.5q-46 0 -84 -16t-65.5 -46t-42.5 -72.5t-15 -95.5q0 -113 59.5 -174t162.5 -61q75 0 129.5 44t71.5 126h-239v101h357v-136q-11 -51 -38 -98t-69 -82.5t-99 -57t-128 -21.5
q-79 0 -144 26.5t-110.5 74t-70.5 113.5t-25 145t25 145t70.5 114t110 74.5t143.5 26.5zM444 -45q8 -23 12 -47t4 -46q0 -65 -31 -102.5t-94 -37.5v54q50 0 50 67v9h-55v103h114z" />
    <glyph glyph-name="gcommaaccent" unicode="&#x123;" 
d="M287 597q-9 29 -13 56.5t-4 51.5q0 63 31 100t94 37v-55q-51 0 -51 -63v-18h59v-109h-116zM281 561q72 0 121.5 -34t69.5 -88v115h140v-556q0 -57 -17 -106.5t-50.5 -85.5t-84 -57t-116.5 -21q-123 0 -195.5 58.5t-88.5 153.5h139q11 -41 45 -65t90 -24q29 0 54 8.5
t44 26.5t29.5 45.5t10.5 66.5v118q-20 -55 -69.5 -89t-121.5 -34q-52 0 -97 19.5t-78 56t-51.5 89t-18.5 119.5t18.5 119.5t51.5 89t78 56t97 19.5zM325 438q-65 0 -105.5 -42t-40.5 -119q0 -76 40.5 -118t105.5 -42q32 0 58.5 11t46.5 32t31 50.5t11 66.5q0 38 -11 67.5
t-31 50.5t-46.5 32t-58.5 11z" />
    <glyph glyph-name="Itilde" unicode="&#x128;" horiz-adv-x="269" 
d="M80 874q20 0 34.5 -6.5t27.5 -15t25.5 -15t26.5 -6.5q34 0 40 43h61q-9 -59 -36 -86t-69 -27q-20 0 -35 6.5t-28 14.5t-25 14.5t-26 6.5q-33 0 -39 -42h-61q10 60 36 86.5t68 26.5zM205 706v-706h-141v706h141z" />
    <glyph glyph-name="itilde" unicode="&#x129;" horiz-adv-x="299" 
d="M95 722q20 0 34.5 -6.5t27.5 -15t25.5 -15t26.5 -6.5q34 0 40 43h61q-9 -59 -36 -86t-69 -27q-20 0 -35 6.5t-28 14.5t-25 14.5t-26 6.5q-33 0 -39 -42h-61q10 60 36 86.5t68 26.5zM220 554v-554h-141v554h141z" />
    <glyph glyph-name="Imacron" unicode="&#x12a;" horiz-adv-x="269" 
d="M326 884v-95h-382v95h382zM205 706v-706h-141v706h141z" />
    <glyph glyph-name="imacron" unicode="&#x12b;" horiz-adv-x="299" 
d="M341 732v-95h-382v95h382zM220 554v-554h-141v554h141z" />
    <glyph glyph-name="Ibreve" unicode="&#x12c;" horiz-adv-x="269" 
d="M135 758q-65 0 -102.5 38.5t-37.5 104.5v10h59q0 -32 19 -49.5t62 -17.5t62 17.5t19 49.5h59v-10q0 -66 -37.5 -104.5t-102.5 -38.5zM205 706v-706h-141v706h141z" />
    <glyph glyph-name="ibreve" unicode="&#x12d;" horiz-adv-x="299" 
d="M150 606q-65 0 -102.5 38.5t-37.5 104.5v10h59q0 -32 19 -49.5t62 -17.5t62 17.5t19 49.5h59v-10q0 -66 -37.5 -104.5t-102.5 -38.5zM220 554v-554h-141v554h141z" />
    <glyph glyph-name="Iogonek" unicode="&#x12e;" horiz-adv-x="269" 
d="M248 -131v-76h-128q-27 0 -51.5 6.5t-43 20t-30 34.5t-11.5 50q0 45 23.5 70.5t56.5 35.5v696h141v-758h-71q-25 0 -39.5 -10.5t-14.5 -28.5q0 -19 14.5 -29.5t39.5 -10.5h114z" />
    <glyph glyph-name="iogonek" unicode="&#x12f;" horiz-adv-x="269" 
d="M135 637q-40 0 -63.5 21.5t-23.5 54.5t23.5 55t63.5 22t63.5 -22t23.5 -55t-23.5 -54.5t-63.5 -21.5zM248 -131v-76h-128q-27 0 -51.5 6.5t-43 20t-30 34.5t-11.5 50q0 45 23.5 70.5t56.5 35.5v544h141v-606h-71q-25 0 -39.5 -10.5t-14.5 -28.5q0 -19 14.5 -29.5
t39.5 -10.5h114z" />
    <glyph glyph-name="Idotaccent" unicode="&#x130;" horiz-adv-x="269" 
d="M71 838q0 27 18.5 45.5t44.5 18.5q27 0 45.5 -18.5t18.5 -45.5q0 -26 -18.5 -44.5t-45.5 -18.5q-26 0 -44.5 18.5t-18.5 44.5zM205 706v-706h-141v706h141z" />
    <glyph glyph-name="dotlessi" unicode="&#x131;" horiz-adv-x="299" 
d="M220 554v-554h-141v554h141z" />
    <glyph glyph-name="Kcommaaccent" unicode="&#x136;" 
d="M338 359l299 -359h-171l-261 323v-323h-141v706h141v-317l262 317h170zM392 -45q8 -23 12 -47t4 -46q0 -65 -31 -102.5t-93 -37.5v54q50 0 50 67v9h-56v103h114z" />
    <glyph glyph-name="kcommaaccent" unicode="&#x137;" horiz-adv-x="564" 
d="M560 0h-172l-183 242v-242h-141v740h141v-416l182 230h167l-233 -276zM342 -45q8 -23 12 -47t4 -46q0 -65 -31 -102.5t-94 -37.5v54q51 0 51 67v9h-56v103h114z" />
    <glyph glyph-name="Lacute" unicode="&#x139;" horiz-adv-x="462" 
d="M343 834l-183 -78l-24 51l178 98zM205 108h237v-108h-378v706h141v-598z" />
    <glyph glyph-name="lacute" unicode="&#x13a;" horiz-adv-x="269" 
d="M205 664v-664h-141v604l-24 51l24 13v72h130l24 13l29 -71z" />
    <glyph glyph-name="Lcommaaccent" unicode="&#x13b;" horiz-adv-x="465" 
d="M205 108h237v-108h-378v706h141v-598zM323 -45q8 -23 12 -47t4 -46q0 -65 -31 -102.5t-94 -37.5v54q50 0 50 67v9h-55v103h114z" />
    <glyph glyph-name="lcommaaccent" unicode="&#x13c;" horiz-adv-x="269" 
d="M205 740v-740h-141v740h141zM193 -45q8 -23 12 -47t4 -46q0 -65 -31 -102.5t-94 -37.5v54q51 0 51 67v9h-56v103h114z" />
    <glyph glyph-name="Lcaron" unicode="&#x13d;" horiz-adv-x="504" 
d="M205 108h237v-108h-378v706h141v-598zM430 706q9 -29 13 -56t4 -52q0 -63 -31 -100t-94 -37v55q51 0 51 63v19h-59v108h116z" />
    <glyph glyph-name="lcaron" unicode="&#x13e;" horiz-adv-x="386" 
d="M205 740v-740h-141v740h141zM376 740q9 -29 12.5 -56.5t3.5 -51.5q0 -63 -31 -100t-94 -37v55q51 0 51 62v19h-58v109h116z" />
    <glyph glyph-name="Ldot" unicode="&#x13f;" horiz-adv-x="462" 
d="M205 108h237v-108h-378v706h141v-598zM315 353q0 27 18.5 45.5t44.5 18.5q27 0 45.5 -18.5t18.5 -45.5q0 -26 -18.5 -44.5t-45.5 -18.5q-26 0 -44.5 18.5t-18.5 44.5z" />
    <glyph glyph-name="ldot" unicode="&#x140;" horiz-adv-x="312" 
d="M205 740v-740h-141v740h141zM227 370q0 27 18.5 45.5t44.5 18.5q27 0 45.5 -18.5t18.5 -45.5q0 -26 -18.5 -44.5t-45.5 -18.5q-26 0 -44.5 18.5t-18.5 44.5z" />
    <glyph glyph-name="Lslash" unicode="&#x141;" horiz-adv-x="479" 
d="M459 108v-108h-378v281l-71 -24v139l71 24v286h141v-238l110 38v-138l-110 -38v-222h237z" />
    <glyph glyph-name="lslash" unicode="&#x142;" horiz-adv-x="307" 
d="M297 403l-73 -26v-377h-141v327l-73 -26v138l73 26v275h141v-226l73 26v-137z" />
    <glyph glyph-name="Nacute" unicode="&#x143;" horiz-adv-x="726" 
d="M476 834l-183 -78l-24 51l178 98zM662 0h-141l-316 480v-480h-141v706h141l316 -484v484h141v-706z" />
    <glyph glyph-name="nacute" unicode="&#x144;" horiz-adv-x="664" 
d="M261 604l-24 51l178 98l29 -71zM394 562q47 0 85.5 -15.5t66.5 -46t43 -75.5t15 -103v-322h-140v306q0 68 -34.5 103.5t-92.5 35.5q-59 0 -95.5 -38t-36.5 -113v-294h-141v554h141v-111q23 57 73 88t116 31z" />
    <glyph glyph-name="Ncommaaccent" unicode="&#x145;" horiz-adv-x="756" 
d="M662 0h-141l-316 480v-480h-141v706h141l316 -484v484h141v-706zM433 -45q17 -48 17 -93q0 -65 -31.5 -102.5t-93.5 -37.5v54q50 0 50 67v9h-56v103h114z" />
    <glyph glyph-name="ncommaaccent" unicode="&#x146;" horiz-adv-x="664" 
d="M394 562q47 0 85.5 -15.5t66.5 -46t43 -75.5t15 -103v-322h-140v306q0 68 -34.5 103.5t-92.5 35.5q-59 0 -95.5 -38t-36.5 -113v-294h-141v554h141v-111q23 57 73 88t116 31zM405 -45q8 -23 11.5 -47t3.5 -46q0 -65 -31 -102.5t-93 -37.5v54q50 0 50 67v9h-55v103h114z
" />
    <glyph glyph-name="Ncaron" unicode="&#x147;" horiz-adv-x="726" 
d="M511 837l-148 -83l-149 83v95l149 -85l148 85v-95zM662 0h-141l-316 480v-480h-141v706h141l316 -484v484h141v-706z" />
    <glyph glyph-name="ncaron" unicode="&#x148;" horiz-adv-x="664" 
d="M334 602l-149 83v95l149 -85l148 85v-95zM394 562q47 0 85.5 -15.5t66.5 -46t43 -75.5t15 -103v-322h-140v306q0 68 -34.5 103.5t-92.5 35.5q-59 0 -95.5 -38t-36.5 -113v-294h-141v554h141v-111q23 57 73 88t116 31z" />
    <glyph glyph-name="Omacron" unicode="&#x14c;" horiz-adv-x="790" 
d="M586 884v-95h-382v95h382zM395 716q75 0 139.5 -26.5t112 -74.5t74.5 -114t27 -146t-27 -146.5t-74.5 -114.5t-112 -74.5t-139.5 -26.5t-139.5 26.5t-112 74.5t-74.5 114.5t-27 146.5t27 146t74.5 114t112 74.5t139.5 26.5zM395 586q-46 0 -84.5 -16t-66.5 -46t-43 -73
t-15 -96t15 -96t43 -73t66.5 -46t84.5 -16q47 0 85 16t66 46t43 73t15 96t-15 96t-43 73t-66 46t-85 16z" />
    <glyph glyph-name="omacron" unicode="&#x14d;" horiz-adv-x="640" 
d="M511 732v-95h-382v95h382zM320 561q61 0 113 -19.5t90 -56t59.5 -89t21.5 -119.5q0 -66 -21.5 -119t-59.5 -89.5t-90 -56t-113 -19.5t-113 19.5t-90 56t-59.5 89.5t-21.5 119q0 67 21.5 119.5t59.5 89t90 56t113 19.5zM320 439q-27 0 -52.5 -9.5t-45 -29.5t-31.5 -50.5
t-12 -72.5t12 -72.5t31.5 -50.5t45 -29.5t52.5 -9.5t52.5 9.5t45 29.5t31.5 50.5t12 72.5t-12 72.5t-31.5 50.5t-45 29.5t-52.5 9.5z" />
    <glyph glyph-name="Obreve" unicode="&#x14e;" horiz-adv-x="790" 
d="M395 758q-65 0 -102.5 38.5t-37.5 104.5v10h59q0 -32 19 -49.5t62 -17.5t62 17.5t19 49.5h59v-10q0 -66 -37.5 -104.5t-102.5 -38.5zM395 716q75 0 139.5 -26.5t112 -74.5t74.5 -114t27 -146t-27 -146.5t-74.5 -114.5t-112 -74.5t-139.5 -26.5t-139.5 26.5t-112 74.5
t-74.5 114.5t-27 146.5t27 146t74.5 114t112 74.5t139.5 26.5zM395 586q-46 0 -84.5 -16t-66.5 -46t-43 -73t-15 -96t15 -96t43 -73t66.5 -46t84.5 -16q47 0 85 16t66 46t43 73t15 96t-15 96t-43 73t-66 46t-85 16z" />
    <glyph glyph-name="obreve" unicode="&#x14f;" horiz-adv-x="640" 
d="M320 606q-65 0 -102.5 38.5t-37.5 104.5v10h59q0 -32 19 -49.5t62 -17.5t62 17.5t19 49.5h59v-10q0 -66 -37.5 -104.5t-102.5 -38.5zM320 561q61 0 113 -19.5t90 -56t59.5 -89t21.5 -119.5q0 -66 -21.5 -119t-59.5 -89.5t-90 -56t-113 -19.5t-113 19.5t-90 56t-59.5 89.5
t-21.5 119q0 67 21.5 119.5t59.5 89t90 56t113 19.5zM320 439q-27 0 -52.5 -9.5t-45 -29.5t-31.5 -50.5t-12 -72.5t12 -72.5t31.5 -50.5t45 -29.5t52.5 -9.5t52.5 9.5t45 29.5t31.5 50.5t12 72.5t-12 72.5t-31.5 50.5t-45 29.5t-52.5 9.5z" />
    <glyph glyph-name="Ohungarumlaut" unicode="&#x150;" horiz-adv-x="790" 
d="M343 753h-88l72 188h110zM520 753h-88l89 188h110zM395 716q75 0 139.5 -26.5t112 -74.5t74.5 -114t27 -146t-27 -146.5t-74.5 -114.5t-112 -74.5t-139.5 -26.5t-139.5 26.5t-112 74.5t-74.5 114.5t-27 146.5t27 146t74.5 114t112 74.5t139.5 26.5zM395 586
q-46 0 -84.5 -16t-66.5 -46t-43 -73t-15 -96t15 -96t43 -73t66.5 -46t84.5 -16q47 0 85 16t66 46t43 73t15 96t-15 96t-43 73t-66 46t-85 16z" />
    <glyph glyph-name="ohungarumlaut" unicode="&#x151;" horiz-adv-x="640" 
d="M274 601h-88l72 188h110zM451 601h-88l89 188h110zM320 561q61 0 113 -19.5t90 -56t59.5 -89t21.5 -119.5q0 -66 -21.5 -119t-59.5 -89.5t-90 -56t-113 -19.5t-113 19.5t-90 56t-59.5 89.5t-21.5 119q0 67 21.5 119.5t59.5 89t90 56t113 19.5zM320 439q-27 0 -52.5 -9.5
t-45 -29.5t-31.5 -50.5t-12 -72.5t12 -72.5t31.5 -50.5t45 -29.5t52.5 -9.5t52.5 9.5t45 29.5t31.5 50.5t12 72.5t-12 72.5t-31.5 50.5t-45 29.5t-52.5 9.5z" />
    <glyph glyph-name="OE" unicode="&#x152;" horiz-adv-x="1072" 
d="M752 411h249v-108h-249v-190h279v-113h-420v118q-30 -60 -91 -93.5t-135 -34.5q-75 0 -137.5 27t-108.5 75t-71.5 114.5t-25.5 146.5t25.5 146.5t71.5 114.5t108.5 75t137.5 27q74 0 135 -34.5t91 -94.5v119h420v-112h-279v-183zM395 120q47 0 85 16t66 46.5t43 73.5
t15 97t-15 97t-43 73t-66 46.5t-85 16.5q-46 0 -84.5 -16.5t-66.5 -46.5t-43 -73t-15 -97t15 -97t43 -73.5t66.5 -46.5t84.5 -16z" />
    <glyph glyph-name="oe" unicode="&#x153;" horiz-adv-x="1067" 
d="M1016 298q0 -14 -1.5 -25t-3.5 -23h-407q2 -40 13.5 -67.5t29.5 -44.5t41.5 -24.5t48.5 -7.5q49 0 81.5 24.5t40.5 64.5h149q-8 -43 -30.5 -80t-56.5 -64t-79 -42.5t-98 -15.5q-70 0 -124.5 28.5t-85.5 81.5q-32 -53 -88 -81.5t-126 -28.5q-61 0 -113 19.5t-90 56
t-59.5 89.5t-21.5 119q0 67 21.5 119.5t59.5 89t90 56t113 19.5q70 0 126 -28.5t88 -81.5q31 53 85.5 81.5t124.5 28.5q63 0 113 -19.5t85.5 -55t54.5 -83.5t19 -105zM873 312q2 36 -9 62.5t-29 43t-42 24.5t-49 8q-55 0 -95 -33.5t-45 -104.5h269zM320 115q27 0 52.5 9.5
t45 29.5t31.5 50.5t12 72.5t-12 72.5t-31.5 50.5t-45 29.5t-52.5 9.5t-52.5 -9.5t-45 -29.5t-31.5 -50.5t-12 -72.5t12 -72.5t31.5 -50.5t45 -29.5t52.5 -9.5z" />
    <glyph glyph-name="Racute" unicode="&#x154;" horiz-adv-x="616" 
d="M237 756l-24 51l178 98l29 -71zM432 0l-165 275h-62v-275h-141v706h269q64 0 111.5 -16.5t78.5 -46t46.5 -69t15.5 -86.5q0 -79 -44 -133.5t-129 -72.5l176 -282h-156zM205 372h116q65 0 93 28t28 79q0 49 -28 78.5t-93 29.5h-116v-215z" />
    <glyph glyph-name="racute" unicode="&#x155;" horiz-adv-x="415" 
d="M137 604l-24 51l178 98l29 -71zM205 448q30 51 80.5 82.5t115.5 31.5v-151h-41q-33 0 -61 -7t-49 -23.5t-33 -44.5t-12 -69v-267h-141v554h141v-106z" />
    <glyph glyph-name="Rcommaaccent" unicode="&#x156;" horiz-adv-x="635" 
d="M588 0h-156l-165 275h-62v-275h-141v706h269q64 0 111.5 -16.5t78.5 -46t46.5 -69t15.5 -86.5q0 -79 -44 -133.5t-129 -72.5zM205 372h116q65 0 93 28t28 79q0 49 -28 78.5t-93 29.5h-116v-215zM371 -45q8 -23 12 -47t4 -46q0 -65 -31 -102.5t-94 -37.5v54q50 0 50 67v9
h-55v103h114z" />
    <glyph glyph-name="rcommaaccent" unicode="&#x157;" horiz-adv-x="415" 
d="M205 448q30 51 80.5 82.5t115.5 31.5v-151h-41q-33 0 -61 -7t-49 -23.5t-33 -44.5t-12 -69v-267h-141v554h141v-106zM189 -45q8 -23 12 -47t4 -46q0 -65 -31.5 -102.5t-93.5 -37.5v54q50 0 50 67v9h-55v103h114z" />
    <glyph glyph-name="Rcaron" unicode="&#x158;" horiz-adv-x="616" 
d="M327 754l-149 83v95l149 -85l148 85v-95zM432 0l-165 275h-62v-275h-141v706h269q64 0 111.5 -16.5t78.5 -46t46.5 -69t15.5 -86.5q0 -79 -44 -133.5t-129 -72.5l176 -282h-156zM205 372h116q65 0 93 28t28 79q0 49 -28 78.5t-93 29.5h-116v-215z" />
    <glyph glyph-name="rcaron" unicode="&#x159;" horiz-adv-x="415" 
d="M233 602l-149 83v95l149 -85l148 85v-95zM205 448q30 51 80.5 82.5t115.5 31.5v-151h-41q-33 0 -61 -7t-49 -23.5t-33 -44.5t-12 -69v-267h-141v554h141v-106z" />
    <glyph glyph-name="Sacute" unicode="&#x15a;" horiz-adv-x="589" 
d="M407 834l-183 -78l-24 51l178 98zM549 193q0 -39 -14.5 -75t-44 -64t-74 -44.5t-103.5 -16.5q-56 0 -104 14.5t-83 42t-56.5 66.5t-25.5 88h150q5 -42 33.5 -71t79.5 -29q45 0 68 24t23 60q0 40 -26.5 62t-66 38t-85.5 30t-85.5 38t-66 62t-26.5 102q0 46 17.5 82
t49 61.5t75.5 39t97 13.5q57 0 102.5 -14.5t77.5 -40.5t51 -62.5t23 -80.5h-152q-5 35 -30 61t-73 26q-38 0 -62.5 -20t-24.5 -60q0 -38 26.5 -59.5t66 -37t85.5 -30t85.5 -38.5t66 -63t26.5 -104z" />
    <glyph glyph-name="sacute" unicode="&#x15b;" horiz-adv-x="541" 
d="M383 682l-183 -78l-24 51l178 98zM255 561q53 0 94 -14t70.5 -38.5t48 -59t25.5 -75.5h-132q-8 39 -35.5 63.5t-73.5 24.5q-37 0 -56.5 -17t-19.5 -46t24 -43.5t60 -24t78 -19t78 -27t60 -48.5t24 -85q0 -70 -54.5 -114.5t-150.5 -44.5q-109 0 -173.5 48.5t-78.5 138.5
h135q5 -41 35.5 -64.5t81.5 -23.5q37 0 55.5 18t18.5 45q0 30 -24 45.5t-59.5 25t-77 18t-77 25.5t-59.5 47t-24 83q0 71 53.5 116.5t153.5 45.5z" />
    <glyph glyph-name="Scedilla" unicode="&#x15e;" horiz-adv-x="589" 
d="M549 193q0 -36 -12.5 -69.5t-38 -60.5t-63 -45.5t-88.5 -22.5v-47q23 1 46 -4.5t41 -18t29.5 -32.5t11.5 -50q0 -29 -11 -49.5t-29.5 -33t-42 -18.5t-49.5 -6h-129v76h114q27 0 39 9.5t12 26.5q0 14 -12 23.5t-39 9.5h-66v115q-93 12 -152 66t-66 142h150q5 -42 33.5 -71
t79.5 -29q45 0 68 24t23 60q0 40 -26.5 62t-66 38t-85.5 30t-85.5 38t-66 62t-26.5 102q0 46 17.5 82t49 61.5t75.5 39t97 13.5q57 0 102.5 -14.5t77.5 -40.5t51 -62.5t23 -80.5h-152q-5 35 -30 61t-73 26q-38 0 -62.5 -20t-24.5 -60q0 -38 26.5 -59.5t66 -37t85.5 -30
t85.5 -38.5t66 -63t26.5 -104z" />
    <glyph glyph-name="scedilla" unicode="&#x15f;" horiz-adv-x="541" 
d="M500 152q0 -66 -48.5 -109.5t-133.5 -48.5v-46q23 1 46 -4.5t41 -18t29.5 -32.5t11.5 -50q0 -29 -11 -49.5t-29.5 -33t-42 -18.5t-49.5 -6h-129v76h114q27 0 39 9.5t12 26.5q0 14 -12 23.5t-39 9.5h-66v117q-81 13 -130 59.5t-60 122.5h135q5 -41 35.5 -64.5t81.5 -23.5
q37 0 55.5 18t18.5 45q0 30 -24 45.5t-59.5 25t-77 18t-77 25.5t-59.5 47t-24 83q0 71 53.5 116.5t153.5 45.5q53 0 94 -14t70.5 -38.5t48 -59t25.5 -75.5h-132q-8 39 -35.5 63.5t-73.5 24.5q-37 0 -56.5 -17t-19.5 -46t24 -43.5t60 -24t78 -19t78 -27t60 -48.5t24 -85z" />
    <glyph glyph-name="Scaron" unicode="&#x160;" horiz-adv-x="589" 
d="M444 837l-148 -83l-149 83v95l149 -85l148 85v-95zM549 193q0 -39 -14.5 -75t-44 -64t-74 -44.5t-103.5 -16.5q-56 0 -104 14.5t-83 42t-56.5 66.5t-25.5 88h150q5 -42 33.5 -71t79.5 -29q45 0 68 24t23 60q0 40 -26.5 62t-66 38t-85.5 30t-85.5 38t-66 62t-26.5 102
q0 46 17.5 82t49 61.5t75.5 39t97 13.5q57 0 102.5 -14.5t77.5 -40.5t51 -62.5t23 -80.5h-152q-5 35 -30 61t-73 26q-38 0 -62.5 -20t-24.5 -60q0 -38 26.5 -59.5t66 -37t85.5 -30t85.5 -38.5t66 -63t26.5 -104z" />
    <glyph glyph-name="scaron" unicode="&#x161;" horiz-adv-x="541" 
d="M420 685l-148 -83l-149 83v95l149 -85l148 85v-95zM255 561q53 0 94 -14t70.5 -38.5t48 -59t25.5 -75.5h-132q-8 39 -35.5 63.5t-73.5 24.5q-37 0 -56.5 -17t-19.5 -46t24 -43.5t60 -24t78 -19t78 -27t60 -48.5t24 -85q0 -70 -54.5 -114.5t-150.5 -44.5
q-109 0 -173.5 48.5t-78.5 138.5h135q5 -41 35.5 -64.5t81.5 -23.5q37 0 55.5 18t18.5 45q0 30 -24 45.5t-59.5 25t-77 18t-77 25.5t-59.5 47t-24 83q0 71 53.5 116.5t153.5 45.5z" />
    <glyph glyph-name="uni0162" unicode="&#x162;" horiz-adv-x="558" 
d="M349 594v-589q43 -14 62 -37t19 -58q0 -29 -11 -49.5t-29.5 -33t-42.5 -18.5t-50 -6h-126v75h114q28 0 38.5 10t10.5 26q0 15 -10.5 24.5t-38.5 9.5h-77v646h-194v112h530v-112h-195z" />
    <glyph glyph-name="uni0163" unicode="&#x163;" horiz-adv-x="397" 
d="M276 -52q23 1 46 -4.5t41.5 -18t30 -32.5t11.5 -50q0 -29 -11 -49.5t-29.5 -33t-42.5 -18.5t-50 -6h-129v76h114q28 0 40 9.5t12 26.5q0 14 -12 23.5t-40 9.5h-65v134q-46 18 -72 60.5t-26 119.5v240h-77v119h77v137h141v-137h124v-119h-124v-242q0 -41 16 -56.5
t54 -15.5h55v-121h-74h-10v-52z" />
    <glyph glyph-name="Tcaron" unicode="&#x164;" horiz-adv-x="558" 
d="M428 837l-148 -83l-149 83v95l149 -85l148 85v-95zM544 706v-112h-195v-594h-141v594h-194v112h530z" />
    <glyph glyph-name="tcaron" unicode="&#x165;" horiz-adv-x="397" 
d="M400 830q9 -29 13 -53.5t4 -48.5q0 -59 -31.5 -92t-94.5 -33v55q51 0 51 41v22h-58v109h116zM235 193q0 -41 16 -56.5t54 -15.5h55v-121h-74q-43 0 -78.5 10t-61 32.5t-39 60t-13.5 92.5v240h-77v119h77v137h141v-137h124v-119h-124v-242z" />
    <glyph glyph-name="Utilde" unicode="&#x168;" horiz-adv-x="683" 
d="M287 874q20 0 34.5 -6.5t27.5 -15t25.5 -15t26.5 -6.5q34 0 40 43h61q-9 -59 -36 -86t-69 -27q-20 0 -35 6.5t-28 14.5t-25 14.5t-26 6.5q-33 0 -39 -42h-61q10 60 36 86.5t68 26.5zM200 706v-414q0 -85 37 -125.5t105 -40.5q67 0 104 40.5t37 125.5v414h140v-414
q0 -76 -21.5 -132.5t-60 -93.5t-90.5 -55t-112 -18q-61 0 -112 18t-88 55t-58 93.5t-21 132.5v414h140z" />
    <glyph glyph-name="utilde" unicode="&#x169;" horiz-adv-x="658" 
d="M270 651q-33 0 -39 -42h-61q10 60 36 86.5t68 26.5q20 0 34.5 -6.5t27.5 -15t25.5 -15t26.5 -6.5q34 0 40 43h61q-9 -59 -36 -86t-69 -27q-20 0 -35 6.5t-28 14.5t-25 14.5t-26 6.5zM594 554v-554h-141v112q-23 -57 -73 -88t-116 -31q-47 0 -85.5 15.5t-66.5 46t-43 75
t-15 102.5v322h140v-306q0 -68 34.5 -103.5t91.5 -35.5q60 0 96.5 38t36.5 113v294h141z" />
    <glyph glyph-name="Umacron" unicode="&#x16a;" horiz-adv-x="683" 
d="M532 884v-95h-382v95h382zM200 706v-414q0 -85 37 -125.5t105 -40.5q67 0 104 40.5t37 125.5v414h140v-414q0 -76 -21.5 -132.5t-60 -93.5t-90.5 -55t-112 -18q-61 0 -112 18t-88 55t-58 93.5t-21 132.5v414h140z" />
    <glyph glyph-name="umacron" unicode="&#x16b;" horiz-adv-x="658" 
d="M515 637h-382v95h382v-95zM594 554v-554h-141v112q-23 -57 -73 -88t-116 -31q-47 0 -85.5 15.5t-66.5 46t-43 75t-15 102.5v322h140v-306q0 -68 34.5 -103.5t91.5 -35.5q60 0 96.5 38t36.5 113v294h141z" />
    <glyph glyph-name="Ubreve" unicode="&#x16c;" horiz-adv-x="683" 
d="M342 758q-65 0 -102.5 38.5t-37.5 104.5v10h59q0 -32 19 -49.5t62 -17.5t62 17.5t19 49.5h59v-10q0 -66 -37.5 -104.5t-102.5 -38.5zM200 706v-414q0 -85 37 -125.5t105 -40.5q67 0 104 40.5t37 125.5v414h140v-414q0 -76 -21.5 -132.5t-60 -93.5t-90.5 -55t-112 -18
q-61 0 -112 18t-88 55t-58 93.5t-21 132.5v414h140z" />
    <glyph glyph-name="ubreve" unicode="&#x16d;" horiz-adv-x="658" 
d="M329 606q-65 0 -102.5 38.5t-37.5 104.5v10h59q0 -32 19 -49.5t62 -17.5t62 17.5t19 49.5h59v-10q0 -66 -37.5 -104.5t-102.5 -38.5zM594 554v-554h-141v112q-23 -57 -73 -88t-116 -31q-47 0 -85.5 15.5t-66.5 46t-43 75t-15 102.5v322h140v-306q0 -68 34.5 -103.5
t91.5 -35.5q60 0 96.5 38t36.5 113v294h141z" />
    <glyph glyph-name="Uring" unicode="&#x16e;" horiz-adv-x="683" 
d="M341 984q48 0 81.5 -30.5t33.5 -84.5t-33.5 -84.5t-81.5 -30.5t-81.5 30.5t-33.5 84.5t33.5 84.5t81.5 30.5zM341 926q-23 0 -39 -15.5t-16 -41.5t16 -41.5t39 -15.5q24 0 40 15.5t16 41.5t-16 41.5t-40 15.5zM200 706v-414q0 -85 37 -125.5t105 -40.5q67 0 104 40.5
t37 125.5v414h140v-414q0 -76 -21.5 -132.5t-60 -93.5t-90.5 -55t-112 -18q-61 0 -112 18t-88 55t-58 93.5t-21 132.5v414h140z" />
    <glyph glyph-name="uring" unicode="&#x16f;" horiz-adv-x="658" 
d="M323 602q-48 0 -81.5 30.5t-33.5 84.5t33.5 84.5t81.5 30.5t81.5 -30.5t33.5 -84.5t-33.5 -84.5t-81.5 -30.5zM323 774q-23 0 -39 -15.5t-16 -41.5t16 -41.5t39 -15.5q24 0 40 15.5t16 41.5t-16 41.5t-40 15.5zM594 554v-554h-141v112q-23 -57 -73 -88t-116 -31
q-47 0 -85.5 15.5t-66.5 46t-43 75t-15 102.5v322h140v-306q0 -68 34.5 -103.5t91.5 -35.5q60 0 96.5 38t36.5 113v294h141z" />
    <glyph glyph-name="Uhungarumlaut" unicode="&#x170;" horiz-adv-x="683" 
d="M253 753h-88l72 188h110zM430 753h-88l89 188h110zM200 706v-414q0 -85 37 -125.5t105 -40.5q67 0 104 40.5t37 125.5v414h140v-414q0 -76 -21.5 -132.5t-60 -93.5t-90.5 -55t-112 -18q-61 0 -112 18t-88 55t-58 93.5t-21 132.5v414h140z" />
    <glyph glyph-name="uhungarumlaut" unicode="&#x171;" horiz-adv-x="658" 
d="M236 601h-88l72 188h110zM325 601l89 188h110l-111 -188h-88zM594 554v-554h-141v112q-23 -57 -73 -88t-116 -31q-47 0 -85.5 15.5t-66.5 46t-43 75t-15 102.5v322h140v-306q0 -68 34.5 -103.5t91.5 -35.5q60 0 96.5 38t36.5 113v294h141z" />
    <glyph glyph-name="Uogonek" unicode="&#x172;" horiz-adv-x="712" 
d="M400 -155q-25 0 -47.5 7.5t-40 21.5t-28 35.5t-10.5 49.5q0 13 6 24t16 16q-46 9 -86 31t-70 58.5t-47.5 87.5t-17.5 116v414h140v-414q0 -85 37 -125.5t105 -40.5q62 0 101.5 38.5t39.5 127.5v414h140v-414q0 -66 -17.5 -116.5t-47 -86t-68 -57t-81.5 -29.5
q-53 -9 -53 -44q0 -18 14 -28.5t41 -10.5h107v-75h-133z" />
    <glyph glyph-name="uogonek" unicode="&#x173;" horiz-adv-x="658" 
d="M637 -131v-76h-128q-27 0 -51.5 6.5t-43 20t-30 34.5t-11.5 50q0 45 23.5 70.5t56.5 35.5v102q-23 -57 -73 -88t-116 -31q-47 0 -85.5 15.5t-66.5 46t-43 75t-15 102.5v322h140v-306q0 -68 34.5 -103.5t91.5 -35.5q60 0 96.5 38t36.5 113v294h141v-606h-71
q-25 0 -39.5 -10.5t-14.5 -28.5q0 -19 14.5 -29.5t39.5 -10.5h114z" />
    <glyph glyph-name="Wcircumflex" unicode="&#x174;" horiz-adv-x="1022" 
d="M403 752l-24 59l132 74l131 -74l-24 -59l-107 55zM990 706l-173 -706h-174l-132 512l-133 -512h-173l-173 706h153l108 -547l140 547h155l141 -547l108 547h153z" />
    <glyph glyph-name="wcircumflex" unicode="&#x175;" horiz-adv-x="863" 
d="M324 600l-24 59l132 74l131 -74l-24 -59l-107 55zM857 554l-149 -554h-156l-119 403l-122 -403h-156l-148 554h141l90 -428l123 428h149l124 -428l91 428h132z" />
    <glyph glyph-name="Ycircumflex" unicode="&#x176;" horiz-adv-x="645" 
d="M215 752l-24 59l132 74l131 -74l-24 -59l-107 55zM633 706l-239 -459v-247h-142v247l-240 459h162l150 -309l150 309h159z" />
    <glyph glyph-name="ycircumflex" unicode="&#x177;" horiz-adv-x="607" 
d="M304 655l-108 -55l-24 59l132 74l131 -74l-24 -59zM159 554l151 -376l140 376h155l-339 -818h-156l125 280l-233 538h157z" />
    <glyph glyph-name="Ydieresis" unicode="&#x178;" horiz-adv-x="645" 
d="M228 775q-26 0 -44.5 18.5t-18.5 44.5q0 27 18.5 45.5t44.5 18.5q28 0 46 -18.5t18 -45.5q0 -26 -18 -44.5t-46 -18.5zM417 775q-27 0 -45 18.5t-18 44.5q0 27 18 45.5t45 18.5t45.5 -18.5t18.5 -45.5q0 -26 -18.5 -44.5t-45.5 -18.5zM633 706l-239 -459v-247h-142v247
l-240 459h162l150 -309l150 309h159z" />
    <glyph glyph-name="Zacute" unicode="&#x179;" horiz-adv-x="573" 
d="M399 834l-183 -78l-24 51l178 98zM200 114h329v-114h-485v108l322 485h-317v113h476v-108z" />
    <glyph glyph-name="zacute" unicode="&#x17a;" horiz-adv-x="474" 
d="M349 682l-183 -78l-24 51l178 98zM178 118h272v-118h-426v112l255 325h-249v117h410v-111z" />
    <glyph glyph-name="Zdotaccent" unicode="&#x17b;" horiz-adv-x="573" 
d="M223 838q0 27 18.5 45.5t44.5 18.5q27 0 45.5 -18.5t18.5 -45.5q0 -26 -18.5 -44.5t-45.5 -18.5q-26 0 -44.5 18.5t-18.5 44.5zM200 114h329v-114h-485v108l322 485h-317v113h476v-108z" />
    <glyph glyph-name="zdotaccent" unicode="&#x17c;" horiz-adv-x="474" 
d="M173 686q0 27 18.5 45.5t44.5 18.5q27 0 45.5 -18.5t18.5 -45.5q0 -26 -18.5 -44.5t-45.5 -18.5q-26 0 -44.5 18.5t-18.5 44.5zM178 118h272v-118h-426v112l255 325h-249v117h410v-111z" />
    <glyph glyph-name="Zcaron" unicode="&#x17d;" horiz-adv-x="573" 
d="M435 837l-148 -83l-149 83v95l149 -85l148 85v-95zM200 114h329v-114h-485v108l322 485h-317v113h476v-108z" />
    <glyph glyph-name="zcaron" unicode="&#x17e;" horiz-adv-x="474" 
d="M385 685l-148 -83l-149 83v95l149 -85l148 85v-95zM178 118h272v-118h-426v112l255 325h-249v117h410v-111z" />
    <glyph glyph-name="florin" unicode="&#x192;" horiz-adv-x="336" 
d="M351 656q-45 0 -70 -16t-29 -55l-3 -31h99l-12 -118h-100l-54 -508q-5 -48 -21.5 -80t-42.5 -51.5t-61 -28t-77 -8.5h-32l11 121h34q22 0 33.5 10t14.5 37l54 508h-59l12 118h60l3 31q11 102 73.5 147t178.5 45z" />
    <glyph glyph-name="Ohorn" unicode="&#x1a0;" horiz-adv-x="790" 
d="M606 650q66 -48 104 -123.5t38 -171.5q0 -80 -27 -146.5t-74.5 -114.5t-112 -74.5t-139.5 -26.5t-139.5 26.5t-112 74.5t-74.5 114.5t-27 146.5t27 146t74.5 114t112 74.5t139.5 26.5q47 0 86 -10q45 2 70.5 26.5t25.5 83.5h98q0 -59 -19 -99.5t-50 -66.5zM395 124
q47 0 85 16t66 46t43 73t15 96t-15 96t-43 73t-66 46t-85 16q-46 0 -84.5 -16t-66.5 -46t-43 -73t-15 -96t15 -96t43 -73t66.5 -46t84.5 -16z" />
    <glyph glyph-name="ohorn" unicode="&#x1a1;" horiz-adv-x="640" 
d="M515 493q42 -37 65.5 -91.5t23.5 -124.5q0 -66 -21.5 -119t-59.5 -89.5t-90 -56t-113 -19.5t-113 19.5t-90 56t-59.5 89.5t-21.5 119q0 67 21.5 119.5t59.5 89t90 56t113 19.5q38 0 70 -7q47 1 74.5 25t27.5 85h98q0 -62 -21 -104t-54 -67zM320 115q27 0 52.5 9.5
t45 29.5t31.5 50.5t12 72.5t-12 72.5t-31.5 50.5t-45 29.5t-52.5 9.5t-52.5 -9.5t-45 -29.5t-31.5 -50.5t-12 -72.5t12 -72.5t31.5 -50.5t45 -29.5t52.5 -9.5z" />
    <glyph glyph-name="Uhorn" unicode="&#x1af;" horiz-adv-x="683" 
d="M730 816q0 -76 -30.5 -122.5t-76.5 -68.5v-333q0 -76 -21.5 -132.5t-60 -93.5t-90.5 -55t-112 -18q-61 0 -112 18t-88 55t-58 93.5t-21 132.5v414h140v-414q0 -85 37 -125.5t105 -40.5q67 0 104 40.5t37 125.5v414h43q48 0 77 23.5t29 86.5h98z" />
    <glyph glyph-name="uhorn" unicode="&#x1b0;" horiz-adv-x="658" 
d="M733 664q0 -44 -11 -78.5t-30 -59t-44.5 -41t-53.5 -24.5v-461h-141v112q-23 -57 -73 -88t-116 -31q-47 0 -85.5 15.5t-66.5 46t-43 75t-15 102.5v322h140v-306q0 -68 34.5 -103.5t91.5 -35.5q60 0 96.5 38t36.5 113v294h76q48 0 77 23.5t29 86.5h98z" />
    <glyph glyph-name="AEacute" unicode="&#x1fc;" horiz-adv-x="926" 
d="M413 756l-24 51l178 98l29 -71zM612 594v-181h244v-108h-244v-192h274v-113h-415v136h-241l-72 -136h-154l377 706h505v-112h-274zM471 243v346l-184 -346h184z" />
    <glyph glyph-name="aeacute" unicode="&#x1fd;" horiz-adv-x="1086" 
d="M486 604l-24 51l178 98l29 -71zM1050 298q0 -27 -4 -48h-429q3 -39 15.5 -67t32 -45t44.5 -25t52 -8q54 0 88.5 24t44.5 66h149q-8 -43 -28 -80t-50 -64t-69.5 -42.5t-87.5 -15.5q-70 0 -122.5 31.5t-73.5 91.5v-116h-140v116q-20 -55 -69.5 -89t-121.5 -34
q-52 0 -97 19.5t-78 56t-51.5 89t-18.5 119.5t18.5 119.5t51.5 89t78 56t97 19.5q72 0 121.5 -34t69.5 -88v115h140v-116q21 60 73.5 91.5t122.5 31.5q56 0 101 -19.5t76.5 -55t48 -83.5t16.5 -105zM908 312q2 36 -10 62t-32 43t-46.5 25t-54.5 8q-27 0 -52.5 -7.5
t-45.5 -24t-33.5 -42.5t-16.5 -64h291zM325 117q32 0 58.5 11t46.5 32t31 50.5t11 66.5q0 38 -11 67.5t-31 50.5t-46.5 32t-58.5 11q-65 0 -105.5 -42t-40.5 -119q0 -76 40.5 -118t105.5 -42z" />
    <glyph glyph-name="Scommaaccent" unicode="&#x218;" horiz-adv-x="625" 
d="M549 193q0 -39 -14.5 -75t-44 -64t-74 -44.5t-103.5 -16.5q-56 0 -104 14.5t-83 42t-56.5 66.5t-25.5 88h150q5 -42 33.5 -71t79.5 -29q45 0 68 24t23 60q0 40 -26.5 62t-66 38t-85.5 30t-85.5 38t-66 62t-26.5 102q0 46 17.5 82t49 61.5t75.5 39t97 13.5
q57 0 102.5 -14.5t77.5 -40.5t51 -62.5t23 -80.5h-152q-5 35 -30 61t-73 26q-38 0 -62.5 -20t-24.5 -60q0 -38 26.5 -59.5t66 -37t85.5 -30t85.5 -38.5t66 -63t26.5 -104zM379 -45q8 -23 12 -47t4 -46q0 -65 -31 -102.5t-94 -37.5v54q50 0 50 67v9h-55v103h114z" />
    <glyph glyph-name="scommaaccent" unicode="&#x219;" horiz-adv-x="541" 
d="M255 561q53 0 94 -14t70.5 -38.5t48 -59t25.5 -75.5h-132q-8 39 -35.5 63.5t-73.5 24.5q-37 0 -56.5 -17t-19.5 -46t24 -43.5t60 -24t78 -19t78 -27t60 -48.5t24 -85q0 -70 -54.5 -114.5t-150.5 -44.5q-109 0 -173.5 48.5t-78.5 138.5h135q5 -41 35.5 -64.5t81.5 -23.5
q37 0 55.5 18t18.5 45q0 30 -24 45.5t-59.5 25t-77 18t-77 25.5t-59.5 47t-24 83q0 71 53.5 116.5t153.5 45.5zM334 -45q8 -23 11.5 -47t3.5 -46q0 -65 -31 -102.5t-93 -37.5v54q50 0 50 67v9h-55v103h114z" />
    <glyph glyph-name="uni021A" unicode="&#x21a;" horiz-adv-x="558" 
d="M544 706v-112h-195v-594h-141v594h-194v112h530zM334 -45q8 -23 12 -47t4 -46q0 -65 -31 -102.5t-93 -37.5v54q50 0 50 67v9h-56v103h114z" />
    <glyph glyph-name="uni021B" unicode="&#x21b;" horiz-adv-x="397" 
d="M360 121v-121h-74q-43 0 -78.5 10t-61 32.5t-39 60t-13.5 92.5v240h-77v119h77v137h141v-137h124v-119h-124v-242q0 -41 16 -56.5t54 -15.5h55zM273 -45q8 -23 12 -47t4 -46q0 -65 -31 -102.5t-94 -37.5v54q51 0 51 67v9h-56v103h114z" />
    <glyph glyph-name="circumflex" unicode="&#x2c6;" horiz-adv-x="341" 
d="M171 679l-108 -55l-24 59l132 74l131 -74l-24 -59z" />
    <glyph glyph-name="caron" unicode="&#x2c7;" horiz-adv-x="341" 
d="M319 685l-148 -83l-149 83v95l149 -85l148 85v-95z" />
    <glyph glyph-name="breve" unicode="&#x2d8;" horiz-adv-x="363" 
d="M182 606q-65 0 -102.5 38.5t-37.5 104.5v10h59q0 -32 19 -49.5t62 -17.5t62 17.5t19 49.5h59v-10q0 -66 -37.5 -104.5t-102.5 -38.5z" />
    <glyph glyph-name="dotaccent" unicode="&#x2d9;" horiz-adv-x="177" 
d="M25 686q0 27 18.5 45.5t44.5 18.5q27 0 45.5 -18.5t18.5 -45.5q0 -26 -18.5 -44.5t-45.5 -18.5q-26 0 -44.5 18.5t-18.5 44.5z" />
    <glyph glyph-name="ring" unicode="&#x2da;" horiz-adv-x="274" 
d="M137 832q48 0 81.5 -30.5t33.5 -84.5t-33.5 -84.5t-81.5 -30.5t-81.5 30.5t-33.5 84.5t33.5 84.5t81.5 30.5zM137 774q-23 0 -39 -15.5t-16 -41.5t16 -41.5t39 -15.5q24 0 40 15.5t16 41.5t-16 41.5t-40 15.5z" />
    <glyph glyph-name="ogonek" unicode="&#x2db;" horiz-adv-x="296" 
d="M237 1v-68h-71q-25 0 -39.5 -10.5t-14.5 -28.5q0 -19 14.5 -29.5t39.5 -10.5h114v-76h-128q-27 0 -51.5 6.5t-43 20t-30 34.5t-11.5 50q0 30 11 51t28.5 34.5t40 20t44.5 6.5h97z" />
    <glyph glyph-name="tilde" unicode="&#x2dc;" horiz-adv-x="399" 
d="M144 722q20 0 34.5 -6.5t27.5 -15t25.5 -15t26.5 -6.5q34 0 40 43h61q-9 -59 -36 -86t-69 -27q-20 0 -35 6.5t-28 14.5t-25 14.5t-26 6.5q-33 0 -39 -42h-61q10 60 36 86.5t68 26.5z" />
    <glyph glyph-name="hungarumlaut" unicode="&#x2dd;" horiz-adv-x="420" 
d="M110 601h-88l72 188h110zM287 601h-88l89 188h110z" />
    <glyph glyph-name="gravecomb" unicode="&#x300;" horiz-adv-x="0" 
d="M-40 652l-26 -56l-172 84l36 74z" />
    <glyph glyph-name="acutecomb" unicode="&#x301;" horiz-adv-x="0" 
d="M-47 682l-183 -78l-24 51l178 98z" />
    <glyph glyph-name="uni0302" unicode="&#x302;" horiz-adv-x="0" 
d="M-170 679l-108 -55l-24 59l132 74l131 -74l-24 -59z" />
    <glyph glyph-name="tildecomb" unicode="&#x303;" horiz-adv-x="0" 
d="M-255 722q19 0 34 -6.5t28 -15t25.5 -15t26.5 -6.5q34 0 40 43h61q-9 -59 -36 -86t-69 -27q-20 0 -35 6.5t-28 14.5t-25.5 14.5t-25.5 6.5q-33 0 -39 -42h-61q10 60 36 86.5t68 26.5z" />
    <glyph glyph-name="uni0306" unicode="&#x306;" horiz-adv-x="0" 
d="M-181 606q-65 0 -102.5 38.5t-37.5 104.5v10h59q0 -32 19 -49.5t62 -17.5t62 17.5t19 49.5h59v-10q0 -66 -37.5 -104.5t-102.5 -38.5z" />
    <glyph glyph-name="hookabovecomb" unicode="&#x309;" horiz-adv-x="0" 
d="M-246 762q50 0 72 -25.5t22 -65.5q0 -17 -6 -31t-16.5 -27t-24.5 -26.5t-30 -30.5l-40 35q27 26 39.5 44.5t12.5 35.5q0 18 -9 24t-23 6q-17 0 -24.5 -8.5t-10.5 -31.5l-62 6q2 17 6.5 34t15 30.5t29.5 22t49 8.5z" />
    <glyph glyph-name="uni031B" unicode="&#x31b;" horiz-adv-x="0" 
d="M-181 554q48 0 77 23.5t29 86.5h98q0 -57 -18 -97t-46.5 -65.5t-65.5 -37.5t-74 -12v102z" />
    <glyph glyph-name="dotbelowcomb" unicode="&#x323;" horiz-adv-x="0" 
d="M-152 -128q0 27 18.5 45.5t44.5 18.5q27 0 45.5 -18.5t18.5 -45.5q0 -26 -18.5 -44.5t-45.5 -18.5q-26 0 -44.5 18.5t-18.5 44.5z" />
    <glyph glyph-name="pi" unicode="&#x3c0;" horiz-adv-x="713" 
d="M684 554v-106h-74v-448h-141v448h-222v-448h-141v448h-74v106h652z" />
    <glyph glyph-name="Wgrave" unicode="&#x1e80;" horiz-adv-x="1022" 
d="M590 748l-172 84l36 74l162 -102zM990 706l-173 -706h-174l-132 512l-133 -512h-173l-173 706h153l108 -547l140 547h155l141 -547l108 547h153z" />
    <glyph glyph-name="wgrave" unicode="&#x1e81;" horiz-adv-x="863" 
d="M511 596l-172 84l36 74l162 -102zM857 554l-149 -554h-156l-119 403l-122 -403h-156l-148 554h141l90 -428l123 428h149l124 -428l91 428h132z" />
    <glyph glyph-name="Wacute" unicode="&#x1e82;" horiz-adv-x="1022" 
d="M440 756l-24 51l178 98l29 -71zM990 706l-173 -706h-174l-132 512l-133 -512h-173l-173 706h153l108 -547l140 547h155l141 -547l108 547h153z" />
    <glyph glyph-name="wacute" unicode="&#x1e83;" horiz-adv-x="863" 
d="M361 604l-24 51l178 98l29 -71zM857 554l-149 -554h-156l-119 403l-122 -403h-156l-148 554h141l90 -428l123 428h149l124 -428l91 428h132z" />
    <glyph glyph-name="Wdieresis" unicode="&#x1e84;" horiz-adv-x="1022" 
d="M416 775q-26 0 -44.5 18.5t-18.5 44.5q0 27 18.5 45.5t44.5 18.5q28 0 46 -18.5t18 -45.5q0 -26 -18 -44.5t-46 -18.5zM605 775q-27 0 -45 18.5t-18 44.5q0 27 18 45.5t45 18.5t45.5 -18.5t18.5 -45.5q0 -26 -18.5 -44.5t-45.5 -18.5zM990 706l-173 -706h-174l-132 512
l-133 -512h-173l-173 706h153l108 -547l140 547h155l141 -547l108 547h153z" />
    <glyph glyph-name="wdieresis" unicode="&#x1e85;" horiz-adv-x="863" 
d="M337 623q-26 0 -44.5 18.5t-18.5 44.5q0 27 18.5 45.5t44.5 18.5q28 0 46 -18.5t18 -45.5q0 -26 -18 -44.5t-46 -18.5zM526 623q-27 0 -45 18.5t-18 44.5q0 27 18 45.5t45 18.5t45.5 -18.5t18.5 -45.5q0 -26 -18.5 -44.5t-45.5 -18.5zM857 554l-149 -554h-156l-119 403
l-122 -403h-156l-148 554h141l90 -428l123 428h149l124 -428l91 428h132z" />
    <glyph glyph-name="uni1EA0" unicode="&#x1ea0;" horiz-adv-x="704" 
d="M543 0l-49 142h-283l-50 -142h-149l260 698h161l259 -698h-149zM456 249l-104 298l-104 -298h208zM353 -64q27 0 45.5 -18.5t18.5 -45.5q0 -26 -18.5 -44.5t-45.5 -18.5q-26 0 -44.5 18.5t-18.5 44.5q0 27 18.5 45.5t44.5 18.5z" />
    <glyph glyph-name="uni1EA1" unicode="&#x1ea1;" 
d="M281 561q72 0 121.5 -34t69.5 -88v115h140v-554h-140v116q-20 -55 -69.5 -89t-121.5 -34q-52 0 -97 19.5t-78 56t-51.5 89t-18.5 119.5t18.5 119.5t51.5 89t78 56t97 19.5zM325 438q-65 0 -105.5 -42t-40.5 -119q0 -76 40.5 -118t105.5 -42q32 0 58.5 11t46.5 32t31 50.5
t11 66.5q0 38 -11 67.5t-31 50.5t-46.5 32t-58.5 11zM275 -128q0 27 18.5 45.5t44.5 18.5q27 0 45.5 -18.5t18.5 -45.5q0 -26 -18.5 -44.5t-45.5 -18.5q-26 0 -44.5 18.5t-18.5 44.5z" />
    <glyph glyph-name="uni1EA2" unicode="&#x1ea2;" horiz-adv-x="704" 
d="M346 905q-17 0 -24.5 -8.5t-10.5 -31.5l-62 6q2 17 6.5 34t15 30.5t29.5 22t49 8.5q50 0 72 -25.5t22 -65.5q0 -17 -6 -31t-16.5 -27t-24.5 -26.5t-30 -30.5l-40 35q27 26 39.5 44.5t12.5 35.5q0 18 -9 24t-23 6zM494 142h-283l-50 -142h-149l260 698h161l259 -698h-149z
M456 249l-104 298l-104 -298h208z" />
    <glyph glyph-name="uni1EA3" unicode="&#x1ea3;" 
d="M334 814q50 0 72 -25.5t22 -65.5q0 -17 -6 -31t-16.5 -27t-24.5 -26.5t-30 -30.5l-40 35q27 26 39.5 44.5t12.5 35.5q0 18 -9 24t-23 6q-17 0 -24.5 -8.5t-10.5 -31.5l-62 6q2 17 6.5 34t15 30.5t29.5 22t49 8.5zM281 561q72 0 121.5 -34t69.5 -88v115h140v-554h-140v116
q-20 -55 -69.5 -89t-121.5 -34q-52 0 -97 19.5t-78 56t-51.5 89t-18.5 119.5t18.5 119.5t51.5 89t78 56t97 19.5zM325 438q-65 0 -105.5 -42t-40.5 -119q0 -76 40.5 -118t105.5 -42q32 0 58.5 11t46.5 32t31 50.5t11 66.5q0 38 -11 67.5t-31 50.5t-46.5 32t-58.5 11z" />
    <glyph glyph-name="uni1EA4" unicode="&#x1ea4;" horiz-adv-x="704" 
d="M292 881l-23 48l168 93l28 -67zM251 750l-23 56l125 70l124 -70l-23 -56l-101 52zM494 142h-283l-50 -142h-149l260 698h161l259 -698h-149zM456 249l-104 298l-104 -298h208z" />
    <glyph glyph-name="uni1EA5" unicode="&#x1ea5;" 
d="M450 803l-173 -74l-23 48l168 93zM338 650l-102 -52l-23 56l125 70l124 -70l-23 -56zM281 561q72 0 121.5 -34t69.5 -88v115h140v-554h-140v116q-20 -55 -69.5 -89t-121.5 -34q-52 0 -97 19.5t-78 56t-51.5 89t-18.5 119.5t18.5 119.5t51.5 89t78 56t97 19.5zM325 438
q-65 0 -105.5 -42t-40.5 -119q0 -76 40.5 -118t105.5 -42q32 0 58.5 11t46.5 32t31 50.5t11 66.5q0 38 -11 67.5t-31 50.5t-46.5 32t-58.5 11z" />
    <glyph glyph-name="uni1EA6" unicode="&#x1ea6;" horiz-adv-x="704" 
d="M478 858l-162 80l34 70l153 -97zM251 750l-23 56l125 70l124 -70l-23 -56l-101 52zM494 142h-283l-50 -142h-149l260 698h161l259 -698h-149zM456 249l-104 298l-104 -298h208z" />
    <glyph glyph-name="uni1EA7" unicode="&#x1ea7;" 
d="M488 759l-25 -53l-162 80l34 70zM338 650l-102 -52l-23 56l125 70l124 -70l-23 -56zM281 561q72 0 121.5 -34t69.5 -88v115h140v-554h-140v116q-20 -55 -69.5 -89t-121.5 -34q-52 0 -97 19.5t-78 56t-51.5 89t-18.5 119.5t18.5 119.5t51.5 89t78 56t97 19.5zM325 438
q-65 0 -105.5 -42t-40.5 -119q0 -76 40.5 -118t105.5 -42q32 0 58.5 11t46.5 32t31 50.5t11 66.5q0 38 -11 67.5t-31 50.5t-46.5 32t-58.5 11z" />
    <glyph glyph-name="uni1EA8" unicode="&#x1ea8;" horiz-adv-x="704" 
d="M491 958q-15 0 -22.5 -8.5t-10.5 -29.5l-58 6q2 16 6 32t14 28.5t28 20.5t46 8q48 0 68.5 -24t20.5 -62q0 -31 -21.5 -54t-51.5 -54l-38 33q26 25 38 42.5t12 32.5q0 17 -8.5 23t-22.5 6zM251 750l-23 56l125 70l124 -70l-23 -56l-101 52zM494 142h-283l-50 -142h-149
l260 698h161l259 -698h-149zM456 249l-104 298l-104 -298h208z" />
    <glyph glyph-name="uni1EA9" unicode="&#x1ea9;" 
d="M479 863q48 0 68.5 -24t20.5 -62q0 -31 -21.5 -54t-51.5 -54l-38 33q26 25 38 42.5t12 32.5q0 17 -8.5 23t-22.5 6q-15 0 -22.5 -8.5t-10.5 -29.5l-58 6q2 16 6 32t14 28.5t28 20.5t46 8zM338 650l-102 -52l-23 56l125 70l124 -70l-23 -56zM281 561q72 0 121.5 -34
t69.5 -88v115h140v-554h-140v116q-20 -55 -69.5 -89t-121.5 -34q-52 0 -97 19.5t-78 56t-51.5 89t-18.5 119.5t18.5 119.5t51.5 89t78 56t97 19.5zM325 438q-65 0 -105.5 -42t-40.5 -119q0 -76 40.5 -118t105.5 -42q32 0 58.5 11t46.5 32t31 50.5t11 66.5q0 38 -11 67.5
t-31 50.5t-46.5 32t-58.5 11z" />
    <glyph glyph-name="uni1EAA" unicode="&#x1eaa;" horiz-adv-x="704" 
d="M321 920q-29 0 -33 -36h-52q8 51 31 73.5t58 22.5q17 0 29.5 -5.5t23.5 -12.5t21.5 -12.5t22.5 -5.5q28 0 34 36h51q-8 -50 -31 -73t-58 -23q-17 0 -30 5.5t-24 12.5t-21 12.5t-22 5.5zM251 750l-23 56l125 70l124 -70l-23 -56l-101 52zM494 142h-283l-50 -142h-149
l260 698h161l259 -698h-149zM456 249l-104 298l-104 -298h208z" />
    <glyph glyph-name="uni1EAB" unicode="&#x1eab;" 
d="M310 828q17 0 29.5 -5.5t23.5 -12.5t21.5 -12.5t22.5 -5.5q28 0 34 36h51q-8 -50 -31 -73t-58 -23q-17 0 -30 5.5t-24 12.5t-21 12.5t-22 5.5q-29 0 -33 -36h-52q8 51 31 73.5t58 22.5zM338 650l-102 -52l-23 56l125 70l124 -70l-23 -56zM281 561q72 0 121.5 -34
t69.5 -88v115h140v-554h-140v116q-20 -55 -69.5 -89t-121.5 -34q-52 0 -97 19.5t-78 56t-51.5 89t-18.5 119.5t18.5 119.5t51.5 89t78 56t97 19.5zM325 438q-65 0 -105.5 -42t-40.5 -119q0 -76 40.5 -118t105.5 -42q32 0 58.5 11t46.5 32t31 50.5t11 66.5q0 38 -11 67.5
t-31 50.5t-46.5 32t-58.5 11z" />
    <glyph glyph-name="uni1EAC" unicode="&#x1eac;" horiz-adv-x="704" 
d="M245 752l-24 59l132 74l131 -74l-24 -59l-107 55zM543 0l-49 142h-283l-50 -142h-149l260 698h161l259 -698h-149zM456 249l-104 298l-104 -298h208zM353 -64q27 0 45.5 -18.5t18.5 -45.5q0 -26 -18.5 -44.5t-45.5 -18.5q-26 0 -44.5 18.5t-18.5 44.5q0 27 18.5 45.5
t44.5 18.5z" />
    <glyph glyph-name="uni1EAD" unicode="&#x1ead;" 
d="M338 655l-108 -55l-24 59l132 74l131 -74l-24 -59zM281 561q72 0 121.5 -34t69.5 -88v115h140v-554h-140v116q-20 -55 -69.5 -89t-121.5 -34q-52 0 -97 19.5t-78 56t-51.5 89t-18.5 119.5t18.5 119.5t51.5 89t78 56t97 19.5zM325 438q-65 0 -105.5 -42t-40.5 -119
q0 -76 40.5 -118t105.5 -42q32 0 58.5 11t46.5 32t31 50.5t11 66.5q0 38 -11 67.5t-31 50.5t-46.5 32t-58.5 11zM275 -128q0 27 18.5 45.5t44.5 18.5q27 0 45.5 -18.5t18.5 -45.5q0 -26 -18.5 -44.5t-45.5 -18.5q-26 0 -44.5 18.5t-18.5 44.5z" />
    <glyph glyph-name="uni1EAE" unicode="&#x1eae;" horiz-adv-x="704" 
d="M335 929l-23 48l168 93l28 -67zM353 755q-61 0 -96.5 36t-35.5 99v10h55q0 -30 18 -47t59 -17t59 17t18 47h55v-10q0 -63 -35.5 -99t-96.5 -36zM494 142h-283l-50 -142h-149l260 698h161l259 -698h-149zM456 249l-104 298l-104 -298h208z" />
    <glyph glyph-name="uni1EAF" unicode="&#x1eaf;" 
d="M493 851l-173 -74l-23 48l168 93zM338 603q-61 0 -96.5 36t-35.5 99v10h55q0 -30 18 -47t59 -17t59 17t18 47h55v-10q0 -63 -35.5 -99t-96.5 -36zM281 561q72 0 121.5 -34t69.5 -88v115h140v-554h-140v116q-20 -55 -69.5 -89t-121.5 -34q-52 0 -97 19.5t-78 56t-51.5 89
t-18.5 119.5t18.5 119.5t51.5 89t78 56t97 19.5zM325 438q-65 0 -105.5 -42t-40.5 -119q0 -76 40.5 -118t105.5 -42q32 0 58.5 11t46.5 32t31 50.5t11 66.5q0 38 -11 67.5t-31 50.5t-46.5 32t-58.5 11z" />
    <glyph glyph-name="uni1EB0" unicode="&#x1eb0;" horiz-adv-x="704" 
d="M401 911l-162 80l34 70l153 -97zM353 755q-61 0 -96.5 36t-35.5 99v10h55q0 -30 18 -47t59 -17t59 17t18 47h55v-10q0 -63 -35.5 -99t-96.5 -36zM494 142h-283l-50 -142h-149l260 698h161l259 -698h-149zM456 249l-104 298l-104 -298h208z" />
    <glyph glyph-name="uni1EB1" unicode="&#x1eb1;" 
d="M411 812l-25 -53l-162 80l34 70zM338 603q-61 0 -96.5 36t-35.5 99v10h55q0 -30 18 -47t59 -17t59 17t18 47h55v-10q0 -63 -35.5 -99t-96.5 -36zM281 561q72 0 121.5 -34t69.5 -88v115h140v-554h-140v116q-20 -55 -69.5 -89t-121.5 -34q-52 0 -97 19.5t-78 56t-51.5 89
t-18.5 119.5t18.5 119.5t51.5 89t78 56t97 19.5zM325 438q-65 0 -105.5 -42t-40.5 -119q0 -76 40.5 -118t105.5 -42q32 0 58.5 11t46.5 32t31 50.5t11 66.5q0 38 -11 67.5t-31 50.5t-46.5 32t-58.5 11z" />
    <glyph glyph-name="uni1EB2" unicode="&#x1eb2;" horiz-adv-x="704" 
d="M340 1031q-15 0 -22.5 -8.5t-10.5 -29.5l-58 6q2 16 6 32t14 28.5t28 20.5t46 8q48 0 68.5 -24t20.5 -62q0 -31 -21.5 -54t-51.5 -54l-38 33q26 25 38 42.5t12 32.5q0 17 -8.5 23t-22.5 6zM353 755q-61 0 -96.5 36t-35.5 99v10h55q0 -30 18 -47t59 -17t59 17t18 47h55
v-10q0 -63 -35.5 -99t-96.5 -36zM494 142h-283l-50 -142h-149l260 698h161l259 -698h-149zM456 249l-104 298l-104 -298h208z" />
    <glyph glyph-name="uni1EB3" unicode="&#x1eb3;" 
d="M328 936q48 0 68.5 -24t20.5 -62q0 -31 -21.5 -54t-51.5 -54l-38 33q26 25 38 42.5t12 32.5q0 17 -8.5 23t-22.5 6q-15 0 -22.5 -8.5t-10.5 -29.5l-58 6q2 16 6 32t14 28.5t28 20.5t46 8zM338 603q-61 0 -96.5 36t-35.5 99v10h55q0 -30 18 -47t59 -17t59 17t18 47h55v-10
q0 -63 -35.5 -99t-96.5 -36zM281 561q72 0 121.5 -34t69.5 -88v115h140v-554h-140v116q-20 -55 -69.5 -89t-121.5 -34q-52 0 -97 19.5t-78 56t-51.5 89t-18.5 119.5t18.5 119.5t51.5 89t78 56t97 19.5zM325 438q-65 0 -105.5 -42t-40.5 -119q0 -76 40.5 -118t105.5 -42
q32 0 58.5 11t46.5 32t31 50.5t11 66.5q0 38 -11 67.5t-31 50.5t-46.5 32t-58.5 11z" />
    <glyph glyph-name="uni1EB4" unicode="&#x1eb4;" horiz-adv-x="704" 
d="M308 970q-31 0 -37 -39h-57q9 56 34 81.5t64 25.5q18 0 32.5 -6.5t26.5 -14t24 -14t25 -6.5q32 0 38 41h57q-8 -56 -34 -81.5t-65 -25.5q-19 0 -33.5 6t-26.5 13.5t-23.5 13.5t-24.5 6zM353 836q41 0 59 17t18 47h55v-10q0 -63 -35.5 -99t-96.5 -36t-96.5 36t-35.5 99v10
h55q0 -30 18 -47t59 -17zM494 142h-283l-50 -142h-149l260 698h161l259 -698h-149zM456 249l-104 298l-104 -298h208z" />
    <glyph glyph-name="uni1EB5" unicode="&#x1eb5;" 
d="M297 886q18 0 32.5 -6.5t26.5 -14t24 -14t25 -6.5q32 0 38 41h57q-8 -56 -34 -81.5t-65 -25.5q-19 0 -33.5 6t-26.5 13.5t-23.5 13.5t-24.5 6q-31 0 -37 -39h-57q9 56 34 81.5t64 25.5zM338 603q-61 0 -96.5 36t-35.5 99v10h55q0 -30 18 -47t59 -17t59 17t18 47h55v-10
q0 -63 -35.5 -99t-96.5 -36zM281 561q72 0 121.5 -34t69.5 -88v115h140v-554h-140v116q-20 -55 -69.5 -89t-121.5 -34q-52 0 -97 19.5t-78 56t-51.5 89t-18.5 119.5t18.5 119.5t51.5 89t78 56t97 19.5zM325 438q-65 0 -105.5 -42t-40.5 -119q0 -76 40.5 -118t105.5 -42
q32 0 58.5 11t46.5 32t31 50.5t11 66.5q0 38 -11 67.5t-31 50.5t-46.5 32t-58.5 11z" />
    <glyph glyph-name="uni1EB6" unicode="&#x1eb6;" horiz-adv-x="704" 
d="M353 758q-65 0 -102.5 38.5t-37.5 104.5v10h59q0 -32 19 -49.5t62 -17.5t62 17.5t19 49.5h59v-10q0 -66 -37.5 -104.5t-102.5 -38.5zM543 0l-49 142h-283l-50 -142h-149l260 698h161l259 -698h-149zM456 249l-104 298l-104 -298h208zM353 -64q27 0 45.5 -18.5t18.5 -45.5
q0 -26 -18.5 -44.5t-45.5 -18.5q-26 0 -44.5 18.5t-18.5 44.5q0 27 18.5 45.5t44.5 18.5z" />
    <glyph glyph-name="uni1EB7" unicode="&#x1eb7;" 
d="M338 606q-65 0 -102.5 38.5t-37.5 104.5v10h59q0 -32 19 -49.5t62 -17.5t62 17.5t19 49.5h59v-10q0 -66 -37.5 -104.5t-102.5 -38.5zM281 561q72 0 121.5 -34t69.5 -88v115h140v-554h-140v116q-20 -55 -69.5 -89t-121.5 -34q-52 0 -97 19.5t-78 56t-51.5 89t-18.5 119.5
t18.5 119.5t51.5 89t78 56t97 19.5zM325 438q-65 0 -105.5 -42t-40.5 -119q0 -76 40.5 -118t105.5 -42q32 0 58.5 11t46.5 32t31 50.5t11 66.5q0 38 -11 67.5t-31 50.5t-46.5 32t-58.5 11zM275 -128q0 27 18.5 45.5t44.5 18.5q27 0 45.5 -18.5t18.5 -45.5q0 -26 -18.5 -44.5
t-45.5 -18.5q-26 0 -44.5 18.5t-18.5 44.5z" />
    <glyph glyph-name="uni1EB8" unicode="&#x1eb8;" horiz-adv-x="525" 
d="M205 594v-183h250v-108h-250v-190h280v-113h-421v706h421v-112h-280zM200 -128q0 27 18.5 45.5t44.5 18.5q27 0 45.5 -18.5t18.5 -45.5q0 -26 -18.5 -44.5t-45.5 -18.5q-26 0 -44.5 18.5t-18.5 44.5z" />
    <glyph glyph-name="uni1EB9" unicode="&#x1eb9;" horiz-adv-x="621" 
d="M585 298q0 -14 -1.5 -25t-3.5 -23h-406q2 -40 13 -67.5t29 -44.5t41.5 -24.5t48.5 -7.5q50 0 82 24.5t41 64.5h149q-8 -43 -30.5 -80t-57 -64t-79.5 -42.5t-98 -15.5q-61 0 -111.5 19.5t-87.5 56t-57.5 89.5t-20.5 119q0 67 20.5 119.5t57.5 89t87.5 56t111.5 19.5
q63 0 113 -19.5t85.5 -55t54.5 -83.5t19 -105zM443 312q2 36 -9 62.5t-29 43t-42 24.5t-50 8q-54 0 -94 -33.5t-45 -104.5h269zM310 -64q27 0 45.5 -18.5t18.5 -45.5q0 -26 -18.5 -44.5t-45.5 -18.5q-26 0 -44.5 18.5t-18.5 44.5q0 27 18.5 45.5t44.5 18.5z" />
    <glyph glyph-name="uni1EBA" unicode="&#x1eba;" horiz-adv-x="525" 
d="M259 966q50 0 72 -25.5t22 -65.5q0 -17 -6 -31t-16.5 -27t-24.5 -26.5t-30 -30.5l-40 35q27 26 39.5 44.5t12.5 35.5q0 18 -9 24t-23 6q-17 0 -24.5 -8.5t-10.5 -31.5l-62 6q2 17 6.5 34t15 30.5t29.5 22t49 8.5zM205 594v-183h250v-108h-250v-190h280v-113h-421v706h421
v-112h-280z" />
    <glyph glyph-name="uni1EBB" unicode="&#x1ebb;" horiz-adv-x="621" 
d="M303 753q-17 0 -24.5 -8.5t-10.5 -31.5l-62 6q2 17 6.5 34t15 30.5t29.5 22t49 8.5q50 0 72 -25.5t22 -65.5q0 -17 -6 -31t-16.5 -27t-24.5 -26.5t-30 -30.5l-40 35q27 26 39.5 44.5t12.5 35.5q0 18 -9 24t-23 6zM585 298q0 -14 -1.5 -25t-3.5 -23h-406q2 -40 13 -67.5
t29 -44.5t41.5 -24.5t48.5 -7.5q50 0 82 24.5t41 64.5h149q-8 -43 -30.5 -80t-57 -64t-79.5 -42.5t-98 -15.5q-61 0 -111.5 19.5t-87.5 56t-57.5 89.5t-20.5 119q0 67 20.5 119.5t57.5 89t87.5 56t111.5 19.5q63 0 113 -19.5t85.5 -55t54.5 -83.5t19 -105zM443 312
q2 36 -9 62.5t-29 43t-42 24.5t-50 8q-54 0 -94 -33.5t-45 -104.5h269z" />
    <glyph glyph-name="uni1EBC" unicode="&#x1ebc;" horiz-adv-x="525" 
d="M208 874q20 0 34.5 -6.5t27.5 -15t25.5 -15t26.5 -6.5q34 0 40 43h61q-9 -59 -36 -86t-69 -27q-20 0 -35 6.5t-28 14.5t-25 14.5t-26 6.5q-33 0 -39 -42h-61q10 60 36 86.5t68 26.5zM205 594v-183h250v-108h-250v-190h280v-113h-421v706h421v-112h-280z" />
    <glyph glyph-name="uni1EBD" unicode="&#x1ebd;" horiz-adv-x="621" 
d="M251 651q-33 0 -39 -42h-61q10 60 36 86.5t68 26.5q20 0 34.5 -6.5t27.5 -15t25.5 -15t26.5 -6.5q34 0 40 43h61q-9 -59 -36 -86t-69 -27q-20 0 -35 6.5t-28 14.5t-25 14.5t-26 6.5zM585 298q0 -14 -1.5 -25t-3.5 -23h-406q2 -40 13 -67.5t29 -44.5t41.5 -24.5t48.5 -7.5
q50 0 82 24.5t41 64.5h149q-8 -43 -30.5 -80t-57 -64t-79.5 -42.5t-98 -15.5q-61 0 -111.5 19.5t-87.5 56t-57.5 89.5t-20.5 119q0 67 20.5 119.5t57.5 89t87.5 56t111.5 19.5q63 0 113 -19.5t85.5 -55t54.5 -83.5t19 -105zM443 312q2 36 -9 62.5t-29 43t-42 24.5t-50 8
q-54 0 -94 -33.5t-45 -104.5h269z" />
    <glyph glyph-name="uni1EBE" unicode="&#x1ebe;" horiz-adv-x="525" 
d="M375 955l-173 -74l-23 48l168 93zM263 802l-102 -52l-23 56l125 70l124 -70l-23 -56zM205 594v-183h250v-108h-250v-190h280v-113h-421v706h421v-112h-280z" />
    <glyph glyph-name="uni1EBF" unicode="&#x1ebf;" horiz-adv-x="621" 
d="M249 729l-23 48l168 93l28 -67zM208 598l-23 56l125 70l124 -70l-23 -56l-101 52zM585 298q0 -14 -1.5 -25t-3.5 -23h-406q2 -40 13 -67.5t29 -44.5t41.5 -24.5t48.5 -7.5q50 0 82 24.5t41 64.5h149q-8 -43 -30.5 -80t-57 -64t-79.5 -42.5t-98 -15.5q-61 0 -111.5 19.5
t-87.5 56t-57.5 89.5t-20.5 119q0 67 20.5 119.5t57.5 89t87.5 56t111.5 19.5q63 0 113 -19.5t85.5 -55t54.5 -83.5t19 -105zM443 312q2 36 -9 62.5t-29 43t-42 24.5t-50 8q-54 0 -94 -33.5t-45 -104.5h269z" />
    <glyph glyph-name="uni1EC0" unicode="&#x1ec0;" horiz-adv-x="525" 
d="M413 911l-25 -53l-162 80l34 70zM263 802l-102 -52l-23 56l125 70l124 -70l-23 -56zM205 594v-183h250v-108h-250v-190h280v-113h-421v706h421v-112h-280z" />
    <glyph glyph-name="uni1EC1" unicode="&#x1ec1;" horiz-adv-x="621" 
d="M435 706l-162 80l34 70l153 -97zM208 598l-23 56l125 70l124 -70l-23 -56l-101 52zM585 298q0 -14 -1.5 -25t-3.5 -23h-406q2 -40 13 -67.5t29 -44.5t41.5 -24.5t48.5 -7.5q50 0 82 24.5t41 64.5h149q-8 -43 -30.5 -80t-57 -64t-79.5 -42.5t-98 -15.5q-61 0 -111.5 19.5
t-87.5 56t-57.5 89.5t-20.5 119q0 67 20.5 119.5t57.5 89t87.5 56t111.5 19.5q63 0 113 -19.5t85.5 -55t54.5 -83.5t19 -105zM443 312q2 36 -9 62.5t-29 43t-42 24.5t-50 8q-54 0 -94 -33.5t-45 -104.5h269z" />
    <glyph glyph-name="uni1EC2" unicode="&#x1ec2;" horiz-adv-x="525" 
d="M404 1015q48 0 68.5 -24t20.5 -62q0 -31 -21.5 -54t-51.5 -54l-38 33q26 25 38 42.5t12 32.5q0 17 -8.5 23t-22.5 6q-15 0 -22.5 -8.5t-10.5 -29.5l-58 6q2 16 6 32t14 28.5t28 20.5t46 8zM263 802l-102 -52l-23 56l125 70l124 -70l-23 -56zM205 594v-183h250v-108h-250
v-190h280v-113h-421v706h421v-112h-280z" />
    <glyph glyph-name="uni1EC3" unicode="&#x1ec3;" horiz-adv-x="621" 
d="M448 806q-15 0 -22.5 -8.5t-10.5 -29.5l-58 6q2 16 6 32t14 28.5t28 20.5t46 8q48 0 68.5 -24t20.5 -62q0 -31 -21.5 -54t-51.5 -54l-38 33q26 25 38 42.5t12 32.5q0 17 -8.5 23t-22.5 6zM208 598l-23 56l125 70l124 -70l-23 -56l-101 52zM585 298q0 -14 -1.5 -25
t-3.5 -23h-406q2 -40 13 -67.5t29 -44.5t41.5 -24.5t48.5 -7.5q50 0 82 24.5t41 64.5h149q-8 -43 -30.5 -80t-57 -64t-79.5 -42.5t-98 -15.5q-61 0 -111.5 19.5t-87.5 56t-57.5 89.5t-20.5 119q0 67 20.5 119.5t57.5 89t87.5 56t111.5 19.5q63 0 113 -19.5t85.5 -55
t54.5 -83.5t19 -105zM443 312q2 36 -9 62.5t-29 43t-42 24.5t-50 8q-54 0 -94 -33.5t-45 -104.5h269z" />
    <glyph glyph-name="uni1EC4" unicode="&#x1ec4;" horiz-adv-x="525" 
d="M235 980q17 0 29.5 -5.5t23.5 -12.5t21.5 -12.5t22.5 -5.5q28 0 34 36h51q-8 -50 -31 -73t-58 -23q-17 0 -30 5.5t-24 12.5t-21 12.5t-22 5.5q-29 0 -33 -36h-52q8 51 31 73.5t58 22.5zM263 802l-102 -52l-23 56l125 70l124 -70l-23 -56zM205 594v-183h250v-108h-250
v-190h280v-113h-421v706h421v-112h-280z" />
    <glyph glyph-name="uni1EC5" unicode="&#x1ec5;" horiz-adv-x="621" 
d="M278 768q-29 0 -33 -36h-52q8 51 31 73.5t58 22.5q17 0 29.5 -5.5t23.5 -12.5t21.5 -12.5t22.5 -5.5q28 0 34 36h51q-8 -50 -31 -73t-58 -23q-17 0 -30 5.5t-24 12.5t-21 12.5t-22 5.5zM208 598l-23 56l125 70l124 -70l-23 -56l-101 52zM585 298q0 -14 -1.5 -25t-3.5 -23
h-406q2 -40 13 -67.5t29 -44.5t41.5 -24.5t48.5 -7.5q50 0 82 24.5t41 64.5h149q-8 -43 -30.5 -80t-57 -64t-79.5 -42.5t-98 -15.5q-61 0 -111.5 19.5t-87.5 56t-57.5 89.5t-20.5 119q0 67 20.5 119.5t57.5 89t87.5 56t111.5 19.5q63 0 113 -19.5t85.5 -55t54.5 -83.5
t19 -105zM443 312q2 36 -9 62.5t-29 43t-42 24.5t-50 8q-54 0 -94 -33.5t-45 -104.5h269z" />
    <glyph glyph-name="uni1EC6" unicode="&#x1ec6;" horiz-adv-x="525" 
d="M263 807l-108 -55l-24 59l132 74l131 -74l-24 -59zM205 594v-183h250v-108h-250v-190h280v-113h-421v706h421v-112h-280zM200 -128q0 27 18.5 45.5t44.5 18.5q27 0 45.5 -18.5t18.5 -45.5q0 -26 -18.5 -44.5t-45.5 -18.5q-26 0 -44.5 18.5t-18.5 44.5z" />
    <glyph glyph-name="uni1EC7" unicode="&#x1ec7;" horiz-adv-x="621" 
d="M202 600l-24 59l132 74l131 -74l-24 -59l-107 55zM585 298q0 -14 -1.5 -25t-3.5 -23h-406q2 -40 13 -67.5t29 -44.5t41.5 -24.5t48.5 -7.5q50 0 82 24.5t41 64.5h149q-8 -43 -30.5 -80t-57 -64t-79.5 -42.5t-98 -15.5q-61 0 -111.5 19.5t-87.5 56t-57.5 89.5t-20.5 119
q0 67 20.5 119.5t57.5 89t87.5 56t111.5 19.5q63 0 113 -19.5t85.5 -55t54.5 -83.5t19 -105zM443 312q2 36 -9 62.5t-29 43t-42 24.5t-50 8q-54 0 -94 -33.5t-45 -104.5h269zM310 -64q27 0 45.5 -18.5t18.5 -45.5q0 -26 -18.5 -44.5t-45.5 -18.5q-26 0 -44.5 18.5
t-18.5 44.5q0 27 18.5 45.5t44.5 18.5z" />
    <glyph glyph-name="uni1EC8" unicode="&#x1ec8;" horiz-adv-x="269" 
d="M131 966q50 0 72 -25.5t22 -65.5q0 -17 -6 -31t-16.5 -27t-24.5 -26.5t-30 -30.5l-40 35q27 26 39.5 44.5t12.5 35.5q0 18 -9 24t-23 6q-17 0 -24.5 -8.5t-10.5 -31.5l-62 6q2 17 6.5 34t15 30.5t29.5 22t49 8.5zM205 706v-706h-141v706h141z" />
    <glyph glyph-name="uni1EC9" unicode="&#x1ec9;" horiz-adv-x="299" 
d="M146 814q50 0 72 -25.5t22 -65.5q0 -17 -6 -31t-16.5 -27t-24.5 -26.5t-30 -30.5l-40 35q27 26 39.5 44.5t12.5 35.5q0 18 -9 24t-23 6q-17 0 -24.5 -8.5t-10.5 -31.5l-62 6q2 17 6.5 34t15 30.5t29.5 22t49 8.5zM220 554v-554h-141v554h141z" />
    <glyph glyph-name="uni1ECA" unicode="&#x1eca;" horiz-adv-x="269" 
d="M205 706v-706h-141v706h141zM72 -128q0 27 18.5 45.5t44.5 18.5q27 0 45.5 -18.5t18.5 -45.5q0 -26 -18.5 -44.5t-45.5 -18.5q-26 0 -44.5 18.5t-18.5 44.5z" />
    <glyph glyph-name="uni1ECB" unicode="&#x1ecb;" horiz-adv-x="269" 
d="M48 713q0 33 23.5 55t63.5 22t63.5 -22t23.5 -55t-23.5 -54.5t-63.5 -21.5t-63.5 21.5t-23.5 54.5zM205 554v-554h-141v554h141zM72 -128q0 27 18.5 45.5t44.5 18.5q27 0 45.5 -18.5t18.5 -45.5q0 -26 -18.5 -44.5t-45.5 -18.5q-26 0 -44.5 18.5t-18.5 44.5z" />
    <glyph glyph-name="uni1ECC" unicode="&#x1ecc;" horiz-adv-x="790" 
d="M395 716q75 0 139.5 -26.5t112 -74.5t74.5 -114t27 -146t-27 -146.5t-74.5 -114.5t-112 -74.5t-139.5 -26.5t-139.5 26.5t-112 74.5t-74.5 114.5t-27 146.5t27 146t74.5 114t112 74.5t139.5 26.5zM395 586q-46 0 -84.5 -16t-66.5 -46t-43 -73t-15 -96t15 -96t43 -73
t66.5 -46t84.5 -16q47 0 85 16t66 46t43 73t15 96t-15 96t-43 73t-66 46t-85 16zM332 -128q0 27 18.5 45.5t44.5 18.5q27 0 45.5 -18.5t18.5 -45.5q0 -26 -18.5 -44.5t-45.5 -18.5q-26 0 -44.5 18.5t-18.5 44.5z" />
    <glyph glyph-name="uni1ECD" unicode="&#x1ecd;" horiz-adv-x="640" 
d="M320 561q61 0 113 -19.5t90 -56t59.5 -89t21.5 -119.5q0 -66 -21.5 -119t-59.5 -89.5t-90 -56t-113 -19.5t-113 19.5t-90 56t-59.5 89.5t-21.5 119q0 67 21.5 119.5t59.5 89t90 56t113 19.5zM320 439q-27 0 -52.5 -9.5t-45 -29.5t-31.5 -50.5t-12 -72.5t12 -72.5
t31.5 -50.5t45 -29.5t52.5 -9.5t52.5 9.5t45 29.5t31.5 50.5t12 72.5t-12 72.5t-31.5 50.5t-45 29.5t-52.5 9.5zM257 -128q0 27 18.5 45.5t44.5 18.5q27 0 45.5 -18.5t18.5 -45.5q0 -26 -18.5 -44.5t-45.5 -18.5q-26 0 -44.5 18.5t-18.5 44.5z" />
    <glyph glyph-name="uni1ECE" unicode="&#x1ece;" horiz-adv-x="790" 
d="M391 966q50 0 72 -25.5t22 -65.5q0 -17 -6 -31t-16.5 -27t-24.5 -26.5t-30 -30.5l-40 35q27 26 39.5 44.5t12.5 35.5q0 18 -9 24t-23 6q-17 0 -24.5 -8.5t-10.5 -31.5l-62 6q2 17 6.5 34t15 30.5t29.5 22t49 8.5zM395 716q75 0 139.5 -26.5t112 -74.5t74.5 -114t27 -146
t-27 -146.5t-74.5 -114.5t-112 -74.5t-139.5 -26.5t-139.5 26.5t-112 74.5t-74.5 114.5t-27 146.5t27 146t74.5 114t112 74.5t139.5 26.5zM395 586q-46 0 -84.5 -16t-66.5 -46t-43 -73t-15 -96t15 -96t43 -73t66.5 -46t84.5 -16q47 0 85 16t66 46t43 73t15 96t-15 96t-43 73
t-66 46t-85 16z" />
    <glyph glyph-name="uni1ECF" unicode="&#x1ecf;" horiz-adv-x="640" 
d="M316 814q50 0 72 -25.5t22 -65.5q0 -17 -6 -31t-16.5 -27t-24.5 -26.5t-30 -30.5l-40 35q27 26 39.5 44.5t12.5 35.5q0 18 -9 24t-23 6q-17 0 -24.5 -8.5t-10.5 -31.5l-62 6q2 17 6.5 34t15 30.5t29.5 22t49 8.5zM320 561q61 0 113 -19.5t90 -56t59.5 -89t21.5 -119.5
q0 -66 -21.5 -119t-59.5 -89.5t-90 -56t-113 -19.5t-113 19.5t-90 56t-59.5 89.5t-21.5 119q0 67 21.5 119.5t59.5 89t90 56t113 19.5zM320 439q-27 0 -52.5 -9.5t-45 -29.5t-31.5 -50.5t-12 -72.5t12 -72.5t31.5 -50.5t45 -29.5t52.5 -9.5t52.5 9.5t45 29.5t31.5 50.5
t12 72.5t-12 72.5t-31.5 50.5t-45 29.5t-52.5 9.5z" />
    <glyph glyph-name="uni1ED0" unicode="&#x1ed0;" horiz-adv-x="790" 
d="M507 955l-173 -74l-23 48l168 93zM395 802l-102 -52l-23 56l125 70l124 -70l-23 -56zM395 716q75 0 139.5 -26.5t112 -74.5t74.5 -114t27 -146t-27 -146.5t-74.5 -114.5t-112 -74.5t-139.5 -26.5t-139.5 26.5t-112 74.5t-74.5 114.5t-27 146.5t27 146t74.5 114t112 74.5
t139.5 26.5zM395 586q-46 0 -84.5 -16t-66.5 -46t-43 -73t-15 -96t15 -96t43 -73t66.5 -46t84.5 -16q47 0 85 16t66 46t43 73t15 96t-15 96t-43 73t-66 46t-85 16z" />
    <glyph glyph-name="uni1ED1" unicode="&#x1ed1;" horiz-adv-x="640" 
d="M432 803l-173 -74l-23 48l168 93zM320 650l-102 -52l-23 56l125 70l124 -70l-23 -56zM320 561q61 0 113 -19.5t90 -56t59.5 -89t21.5 -119.5q0 -66 -21.5 -119t-59.5 -89.5t-90 -56t-113 -19.5t-113 19.5t-90 56t-59.5 89.5t-21.5 119q0 67 21.5 119.5t59.5 89t90 56
t113 19.5zM320 439q-27 0 -52.5 -9.5t-45 -29.5t-31.5 -50.5t-12 -72.5t12 -72.5t31.5 -50.5t45 -29.5t52.5 -9.5t52.5 9.5t45 29.5t31.5 50.5t12 72.5t-12 72.5t-31.5 50.5t-45 29.5t-52.5 9.5z" />
    <glyph glyph-name="uni1ED2" unicode="&#x1ed2;" horiz-adv-x="790" 
d="M545 911l-25 -53l-162 80l34 70zM395 802l-102 -52l-23 56l125 70l124 -70l-23 -56zM395 716q75 0 139.5 -26.5t112 -74.5t74.5 -114t27 -146t-27 -146.5t-74.5 -114.5t-112 -74.5t-139.5 -26.5t-139.5 26.5t-112 74.5t-74.5 114.5t-27 146.5t27 146t74.5 114t112 74.5
t139.5 26.5zM395 586q-46 0 -84.5 -16t-66.5 -46t-43 -73t-15 -96t15 -96t43 -73t66.5 -46t84.5 -16q47 0 85 16t66 46t43 73t15 96t-15 96t-43 73t-66 46t-85 16z" />
    <glyph glyph-name="uni1ED3" unicode="&#x1ed3;" horiz-adv-x="640" 
d="M470 759l-25 -53l-162 80l34 70zM320 650l-102 -52l-23 56l125 70l124 -70l-23 -56zM320 561q61 0 113 -19.5t90 -56t59.5 -89t21.5 -119.5q0 -66 -21.5 -119t-59.5 -89.5t-90 -56t-113 -19.5t-113 19.5t-90 56t-59.5 89.5t-21.5 119q0 67 21.5 119.5t59.5 89t90 56
t113 19.5zM320 439q-27 0 -52.5 -9.5t-45 -29.5t-31.5 -50.5t-12 -72.5t12 -72.5t31.5 -50.5t45 -29.5t52.5 -9.5t52.5 9.5t45 29.5t31.5 50.5t12 72.5t-12 72.5t-31.5 50.5t-45 29.5t-52.5 9.5z" />
    <glyph glyph-name="uni1ED4" unicode="&#x1ed4;" horiz-adv-x="790" 
d="M536 1015q48 0 68.5 -24t20.5 -62q0 -31 -21.5 -54t-51.5 -54l-38 33q26 25 38 42.5t12 32.5q0 17 -8.5 23t-22.5 6q-15 0 -22.5 -8.5t-10.5 -29.5l-58 6q2 16 6 32t14 28.5t28 20.5t46 8zM395 802l-102 -52l-23 56l125 70l124 -70l-23 -56zM395 716q75 0 139.5 -26.5
t112 -74.5t74.5 -114t27 -146t-27 -146.5t-74.5 -114.5t-112 -74.5t-139.5 -26.5t-139.5 26.5t-112 74.5t-74.5 114.5t-27 146.5t27 146t74.5 114t112 74.5t139.5 26.5zM395 586q-46 0 -84.5 -16t-66.5 -46t-43 -73t-15 -96t15 -96t43 -73t66.5 -46t84.5 -16q47 0 85 16
t66 46t43 73t15 96t-15 96t-43 73t-66 46t-85 16z" />
    <glyph glyph-name="uni1ED5" unicode="&#x1ed5;" horiz-adv-x="640" 
d="M461 863q48 0 68.5 -24t20.5 -62q0 -31 -21.5 -54t-51.5 -54l-38 33q26 25 38 42.5t12 32.5q0 17 -8.5 23t-22.5 6q-15 0 -22.5 -8.5t-10.5 -29.5l-58 6q2 16 6 32t14 28.5t28 20.5t46 8zM320 650l-102 -52l-23 56l125 70l124 -70l-23 -56zM320 561q61 0 113 -19.5
t90 -56t59.5 -89t21.5 -119.5q0 -66 -21.5 -119t-59.5 -89.5t-90 -56t-113 -19.5t-113 19.5t-90 56t-59.5 89.5t-21.5 119q0 67 21.5 119.5t59.5 89t90 56t113 19.5zM320 439q-27 0 -52.5 -9.5t-45 -29.5t-31.5 -50.5t-12 -72.5t12 -72.5t31.5 -50.5t45 -29.5t52.5 -9.5
t52.5 9.5t45 29.5t31.5 50.5t12 72.5t-12 72.5t-31.5 50.5t-45 29.5t-52.5 9.5z" />
    <glyph glyph-name="uni1ED6" unicode="&#x1ed6;" horiz-adv-x="790" 
d="M367 980q17 0 29.5 -5.5t23.5 -12.5t21.5 -12.5t22.5 -5.5q28 0 34 36h51q-8 -50 -31 -73t-58 -23q-17 0 -30 5.5t-24 12.5t-21 12.5t-22 5.5q-29 0 -33 -36h-52q8 51 31 73.5t58 22.5zM395 802l-102 -52l-23 56l125 70l124 -70l-23 -56zM395 716q75 0 139.5 -26.5
t112 -74.5t74.5 -114t27 -146t-27 -146.5t-74.5 -114.5t-112 -74.5t-139.5 -26.5t-139.5 26.5t-112 74.5t-74.5 114.5t-27 146.5t27 146t74.5 114t112 74.5t139.5 26.5zM395 586q-46 0 -84.5 -16t-66.5 -46t-43 -73t-15 -96t15 -96t43 -73t66.5 -46t84.5 -16q47 0 85 16
t66 46t43 73t15 96t-15 96t-43 73t-66 46t-85 16z" />
    <glyph glyph-name="uni1ED7" unicode="&#x1ed7;" horiz-adv-x="640" 
d="M292 828q17 0 29.5 -5.5t23.5 -12.5t21.5 -12.5t22.5 -5.5q28 0 34 36h51q-8 -50 -31 -73t-58 -23q-17 0 -30 5.5t-24 12.5t-21 12.5t-22 5.5q-29 0 -33 -36h-52q8 51 31 73.5t58 22.5zM320 650l-102 -52l-23 56l125 70l124 -70l-23 -56zM320 561q61 0 113 -19.5t90 -56
t59.5 -89t21.5 -119.5q0 -66 -21.5 -119t-59.5 -89.5t-90 -56t-113 -19.5t-113 19.5t-90 56t-59.5 89.5t-21.5 119q0 67 21.5 119.5t59.5 89t90 56t113 19.5zM320 439q-27 0 -52.5 -9.5t-45 -29.5t-31.5 -50.5t-12 -72.5t12 -72.5t31.5 -50.5t45 -29.5t52.5 -9.5t52.5 9.5
t45 29.5t31.5 50.5t12 72.5t-12 72.5t-31.5 50.5t-45 29.5t-52.5 9.5z" />
    <glyph glyph-name="uni1ED8" unicode="&#x1ed8;" horiz-adv-x="790" 
d="M395 807l-108 -55l-24 59l132 74l131 -74l-24 -59zM395 716q75 0 139.5 -26.5t112 -74.5t74.5 -114t27 -146t-27 -146.5t-74.5 -114.5t-112 -74.5t-139.5 -26.5t-139.5 26.5t-112 74.5t-74.5 114.5t-27 146.5t27 146t74.5 114t112 74.5t139.5 26.5zM395 586
q-46 0 -84.5 -16t-66.5 -46t-43 -73t-15 -96t15 -96t43 -73t66.5 -46t84.5 -16q47 0 85 16t66 46t43 73t15 96t-15 96t-43 73t-66 46t-85 16zM332 -128q0 27 18.5 45.5t44.5 18.5q27 0 45.5 -18.5t18.5 -45.5q0 -26 -18.5 -44.5t-45.5 -18.5q-26 0 -44.5 18.5t-18.5 44.5z
" />
    <glyph glyph-name="uni1ED9" unicode="&#x1ed9;" horiz-adv-x="640" 
d="M320 655l-108 -55l-24 59l132 74l131 -74l-24 -59zM320 561q61 0 113 -19.5t90 -56t59.5 -89t21.5 -119.5q0 -66 -21.5 -119t-59.5 -89.5t-90 -56t-113 -19.5t-113 19.5t-90 56t-59.5 89.5t-21.5 119q0 67 21.5 119.5t59.5 89t90 56t113 19.5zM320 439q-27 0 -52.5 -9.5
t-45 -29.5t-31.5 -50.5t-12 -72.5t12 -72.5t31.5 -50.5t45 -29.5t52.5 -9.5t52.5 9.5t45 29.5t31.5 50.5t12 72.5t-12 72.5t-31.5 50.5t-45 29.5t-52.5 9.5zM257 -128q0 27 18.5 45.5t44.5 18.5q27 0 45.5 -18.5t18.5 -45.5q0 -26 -18.5 -44.5t-45.5 -18.5q-26 0 -44.5 18.5
t-18.5 44.5z" />
    <glyph glyph-name="uni1EDA" unicode="&#x1eda;" horiz-adv-x="790" 
d="M324 756l-24 51l178 98l29 -71zM606 650q66 -48 104 -123.5t38 -171.5q0 -80 -27 -146.5t-74.5 -114.5t-112 -74.5t-139.5 -26.5t-139.5 26.5t-112 74.5t-74.5 114.5t-27 146.5t27 146t74.5 114t112 74.5t139.5 26.5q47 0 86 -10q45 2 70.5 26.5t25.5 83.5h98
q0 -59 -19 -99.5t-50 -66.5zM395 124q47 0 85 16t66 46t43 73t15 96t-15 96t-43 73t-66 46t-85 16q-46 0 -84.5 -16t-66.5 -46t-43 -73t-15 -96t15 -96t43 -73t66.5 -46t84.5 -16z" />
    <glyph glyph-name="uni1EDB" unicode="&#x1edb;" horiz-adv-x="640" 
d="M249 604l-24 51l178 98l29 -71zM515 493q42 -37 65.5 -91.5t23.5 -124.5q0 -66 -21.5 -119t-59.5 -89.5t-90 -56t-113 -19.5t-113 19.5t-90 56t-59.5 89.5t-21.5 119q0 67 21.5 119.5t59.5 89t90 56t113 19.5q38 0 70 -7q47 1 74.5 25t27.5 85h98q0 -62 -21 -104t-54 -67
zM320 115q27 0 52.5 9.5t45 29.5t31.5 50.5t12 72.5t-12 72.5t-31.5 50.5t-45 29.5t-52.5 9.5t-52.5 -9.5t-45 -29.5t-31.5 -50.5t-12 -72.5t12 -72.5t31.5 -50.5t45 -29.5t52.5 -9.5z" />
    <glyph glyph-name="uni1EDC" unicode="&#x1edc;" horiz-adv-x="790" 
d="M457 757l-172 84l36 74l162 -102zM606 650q66 -48 104 -123.5t38 -171.5q0 -80 -27 -146.5t-74.5 -114.5t-112 -74.5t-139.5 -26.5t-139.5 26.5t-112 74.5t-74.5 114.5t-27 146.5t27 146t74.5 114t112 74.5t139.5 26.5q47 0 86 -10q45 2 70.5 26.5t25.5 83.5h98
q0 -59 -19 -99.5t-50 -66.5zM395 124q47 0 85 16t66 46t43 73t15 96t-15 96t-43 73t-66 46t-85 16q-46 0 -84.5 -16t-66.5 -46t-43 -73t-15 -96t15 -96t43 -73t66.5 -46t84.5 -16z" />
    <glyph glyph-name="uni1EDD" unicode="&#x1edd;" horiz-adv-x="640" 
d="M399 596l-172 84l36 74l162 -102zM515 493q42 -37 65.5 -91.5t23.5 -124.5q0 -66 -21.5 -119t-59.5 -89.5t-90 -56t-113 -19.5t-113 19.5t-90 56t-59.5 89.5t-21.5 119q0 67 21.5 119.5t59.5 89t90 56t113 19.5q38 0 70 -7q47 1 74.5 25t27.5 85h98q0 -62 -21 -104
t-54 -67zM320 115q27 0 52.5 9.5t45 29.5t31.5 50.5t12 72.5t-12 72.5t-31.5 50.5t-45 29.5t-52.5 9.5t-52.5 -9.5t-45 -29.5t-31.5 -50.5t-12 -72.5t12 -72.5t31.5 -50.5t45 -29.5t52.5 -9.5z" />
    <glyph glyph-name="uni1EDE" unicode="&#x1ede;" horiz-adv-x="790" 
d="M388 905q-17 0 -24.5 -8.5t-10.5 -31.5l-62 6q2 17 6.5 34t15 30.5t29.5 22t49 8.5q50 0 72 -25.5t22 -65.5q0 -17 -6 -31t-16.5 -27t-24.5 -26.5t-30 -30.5l-40 35q27 26 39.5 44.5t12.5 35.5q0 18 -9 24t-23 6zM606 650q66 -48 104 -123.5t38 -171.5q0 -80 -27 -146.5
t-74.5 -114.5t-112 -74.5t-139.5 -26.5t-139.5 26.5t-112 74.5t-74.5 114.5t-27 146.5t27 146t74.5 114t112 74.5t139.5 26.5q47 0 86 -10q45 2 70.5 26.5t25.5 83.5h98q0 -59 -19 -99.5t-50 -66.5zM395 124q47 0 85 16t66 46t43 73t15 96t-15 96t-43 73t-66 46t-85 16
q-46 0 -84.5 -16t-66.5 -46t-43 -73t-15 -96t15 -96t43 -73t66.5 -46t84.5 -16z" />
    <glyph glyph-name="uni1EDF" unicode="&#x1edf;" horiz-adv-x="640" 
d="M313 753q-17 0 -24.5 -8.5t-10.5 -31.5l-62 6q2 17 6.5 34t15 30.5t29.5 22t49 8.5q50 0 72 -25.5t22 -65.5q0 -17 -6 -31t-16.5 -27t-24.5 -26.5t-30 -30.5l-40 35q27 26 39.5 44.5t12.5 35.5q0 18 -9 24t-23 6zM515 493q42 -37 65.5 -91.5t23.5 -124.5
q0 -66 -21.5 -119t-59.5 -89.5t-90 -56t-113 -19.5t-113 19.5t-90 56t-59.5 89.5t-21.5 119q0 67 21.5 119.5t59.5 89t90 56t113 19.5q38 0 70 -7q47 1 74.5 25t27.5 85h98q0 -62 -21 -104t-54 -67zM320 115q27 0 52.5 9.5t45 29.5t31.5 50.5t12 72.5t-12 72.5t-31.5 50.5
t-45 29.5t-52.5 9.5t-52.5 -9.5t-45 -29.5t-31.5 -50.5t-12 -72.5t12 -72.5t31.5 -50.5t45 -29.5t52.5 -9.5z" />
    <glyph glyph-name="uni1EE0" unicode="&#x1ee0;" horiz-adv-x="790" 
d="M335 849q-33 0 -39 -42h-61q10 60 36 86.5t68 26.5q20 0 34.5 -6.5t27.5 -15t25.5 -15t26.5 -6.5q34 0 40 43h61q-9 -59 -36 -86t-69 -27q-20 0 -35 6.5t-28 14.5t-25 14.5t-26 6.5zM606 650q66 -48 104 -123.5t38 -171.5q0 -80 -27 -146.5t-74.5 -114.5t-112 -74.5
t-139.5 -26.5t-139.5 26.5t-112 74.5t-74.5 114.5t-27 146.5t27 146t74.5 114t112 74.5t139.5 26.5q47 0 86 -10q45 2 70.5 26.5t25.5 83.5h98q0 -59 -19 -99.5t-50 -66.5zM395 124q47 0 85 16t66 46t43 73t15 96t-15 96t-43 73t-66 46t-85 16q-46 0 -84.5 -16t-66.5 -46
t-43 -73t-15 -96t15 -96t43 -73t66.5 -46t84.5 -16z" />
    <glyph glyph-name="uni1EE1" unicode="&#x1ee1;" horiz-adv-x="640" 
d="M261 690q-33 0 -39 -42h-61q10 60 36 86.5t68 26.5q20 0 34.5 -6.5t27.5 -15t25.5 -15t26.5 -6.5q34 0 40 43h61q-9 -59 -36 -86t-69 -27q-20 0 -35 6.5t-28 14.5t-25 14.5t-26 6.5zM515 493q42 -37 65.5 -91.5t23.5 -124.5q0 -66 -21.5 -119t-59.5 -89.5t-90 -56
t-113 -19.5t-113 19.5t-90 56t-59.5 89.5t-21.5 119q0 67 21.5 119.5t59.5 89t90 56t113 19.5q38 0 70 -7q47 1 74.5 25t27.5 85h98q0 -62 -21 -104t-54 -67zM320 115q27 0 52.5 9.5t45 29.5t31.5 50.5t12 72.5t-12 72.5t-31.5 50.5t-45 29.5t-52.5 9.5t-52.5 -9.5
t-45 -29.5t-31.5 -50.5t-12 -72.5t12 -72.5t31.5 -50.5t45 -29.5t52.5 -9.5z" />
    <glyph glyph-name="uni1EE2" unicode="&#x1ee2;" horiz-adv-x="790" 
d="M606 650q66 -48 104 -123.5t38 -171.5q0 -80 -27 -146.5t-74.5 -114.5t-112 -74.5t-139.5 -26.5t-139.5 26.5t-112 74.5t-74.5 114.5t-27 146.5t27 146t74.5 114t112 74.5t139.5 26.5q47 0 86 -10q45 2 70.5 26.5t25.5 83.5h98q0 -59 -19 -99.5t-50 -66.5zM395 124
q47 0 85 16t66 46t43 73t15 96t-15 96t-43 73t-66 46t-85 16q-46 0 -84.5 -16t-66.5 -46t-43 -73t-15 -96t15 -96t43 -73t66.5 -46t84.5 -16zM395 -64q27 0 45.5 -18.5t18.5 -45.5q0 -26 -18.5 -44.5t-45.5 -18.5q-26 0 -44.5 18.5t-18.5 44.5q0 27 18.5 45.5t44.5 18.5z
" />
    <glyph glyph-name="uni1EE3" unicode="&#x1ee3;" horiz-adv-x="640" 
d="M515 493q42 -37 65.5 -91.5t23.5 -124.5q0 -66 -21.5 -119t-59.5 -89.5t-90 -56t-113 -19.5t-113 19.5t-90 56t-59.5 89.5t-21.5 119q0 67 21.5 119.5t59.5 89t90 56t113 19.5q38 0 70 -7q47 1 74.5 25t27.5 85h98q0 -62 -21 -104t-54 -67zM320 115q27 0 52.5 9.5
t45 29.5t31.5 50.5t12 72.5t-12 72.5t-31.5 50.5t-45 29.5t-52.5 9.5t-52.5 -9.5t-45 -29.5t-31.5 -50.5t-12 -72.5t12 -72.5t31.5 -50.5t45 -29.5t52.5 -9.5zM320 -64q27 0 45.5 -18.5t18.5 -45.5q0 -26 -18.5 -44.5t-45.5 -18.5q-26 0 -44.5 18.5t-18.5 44.5
q0 27 18.5 45.5t44.5 18.5z" />
    <glyph glyph-name="uni1EE4" unicode="&#x1ee4;" horiz-adv-x="683" 
d="M200 706v-414q0 -85 37 -125.5t105 -40.5q67 0 104 40.5t37 125.5v414h140v-414q0 -76 -21.5 -132.5t-60 -93.5t-90.5 -55t-112 -18q-61 0 -112 18t-88 55t-58 93.5t-21 132.5v414h140zM279 -128q0 27 18.5 45.5t44.5 18.5q27 0 45.5 -18.5t18.5 -45.5q0 -26 -18.5 -44.5
t-45.5 -18.5q-26 0 -44.5 18.5t-18.5 44.5z" />
    <glyph glyph-name="uni1EE5" unicode="&#x1ee5;" horiz-adv-x="658" 
d="M594 554v-554h-141v112q-23 -57 -73 -88t-116 -31q-47 0 -85.5 15.5t-66.5 46t-43 75t-15 102.5v322h140v-306q0 -68 34.5 -103.5t91.5 -35.5q60 0 96.5 38t36.5 113v294h141zM329 -64q27 0 45.5 -18.5t18.5 -45.5q0 -26 -18.5 -44.5t-45.5 -18.5q-26 0 -44.5 18.5
t-18.5 44.5q0 27 18.5 45.5t44.5 18.5z" />
    <glyph glyph-name="uni1EE6" unicode="&#x1ee6;" horiz-adv-x="683" 
d="M338 966q50 0 72 -25.5t22 -65.5q0 -17 -6 -31t-16.5 -27t-24.5 -26.5t-30 -30.5l-40 35q27 26 39.5 44.5t12.5 35.5q0 18 -9 24t-23 6q-17 0 -24.5 -8.5t-10.5 -31.5l-62 6q2 17 6.5 34t15 30.5t29.5 22t49 8.5zM200 706v-414q0 -85 37 -125.5t105 -40.5q67 0 104 40.5
t37 125.5v414h140v-414q0 -76 -21.5 -132.5t-60 -93.5t-90.5 -55t-112 -18q-61 0 -112 18t-88 55t-58 93.5t-21 132.5v414h140z" />
    <glyph glyph-name="uni1EE7" unicode="&#x1ee7;" horiz-adv-x="658" 
d="M322 753q-17 0 -24.5 -8.5t-10.5 -31.5l-62 6q2 17 6.5 34t15 30.5t29.5 22t49 8.5q50 0 72 -25.5t22 -65.5q0 -17 -6 -31t-16.5 -27t-24.5 -26.5t-30 -30.5l-40 35q27 26 39.5 44.5t12.5 35.5q0 18 -9 24t-23 6zM594 554v-554h-141v112q-23 -57 -73 -88t-116 -31
q-47 0 -85.5 15.5t-66.5 46t-43 75t-15 102.5v322h140v-306q0 -68 34.5 -103.5t91.5 -35.5q60 0 96.5 38t36.5 113v294h141z" />
    <glyph glyph-name="uni1EE8" unicode="&#x1ee8;" horiz-adv-x="683" 
d="M271 756l-24 51l178 98l29 -71zM730 816q0 -76 -30.5 -122.5t-76.5 -68.5v-333q0 -76 -21.5 -132.5t-60 -93.5t-90.5 -55t-112 -18q-61 0 -112 18t-88 55t-58 93.5t-21 132.5v414h140v-414q0 -85 37 -125.5t105 -40.5q67 0 104 40.5t37 125.5v414h43q48 0 77 23.5
t29 86.5h98z" />
    <glyph glyph-name="uni1EE9" unicode="&#x1ee9;" horiz-adv-x="658" 
d="M258 604l-24 51l178 98l29 -71zM733 664q0 -44 -11 -78.5t-30 -59t-44.5 -41t-53.5 -24.5v-461h-141v112q-23 -57 -73 -88t-116 -31q-47 0 -85.5 15.5t-66.5 46t-43 75t-15 102.5v322h140v-306q0 -68 34.5 -103.5t91.5 -35.5q60 0 96.5 38t36.5 113v294h76q48 0 77 23.5
t29 86.5h98z" />
    <glyph glyph-name="uni1EEA" unicode="&#x1eea;" horiz-adv-x="683" 
d="M421 748l-172 84l36 74l162 -102zM730 816q0 -76 -30.5 -122.5t-76.5 -68.5v-333q0 -76 -21.5 -132.5t-60 -93.5t-90.5 -55t-112 -18q-61 0 -112 18t-88 55t-58 93.5t-21 132.5v414h140v-414q0 -85 37 -125.5t105 -40.5q67 0 104 40.5t37 125.5v414h43q48 0 77 23.5
t29 86.5h98z" />
    <glyph glyph-name="uni1EEB" unicode="&#x1eeb;" horiz-adv-x="658" 
d="M408 596l-172 84l36 74l162 -102zM733 664q0 -44 -11 -78.5t-30 -59t-44.5 -41t-53.5 -24.5v-461h-141v112q-23 -57 -73 -88t-116 -31q-47 0 -85.5 15.5t-66.5 46t-43 75t-15 102.5v322h140v-306q0 -68 34.5 -103.5t91.5 -35.5q60 0 96.5 38t36.5 113v294h76
q48 0 77 23.5t29 86.5h98z" />
    <glyph glyph-name="uni1EEC" unicode="&#x1eec;" horiz-adv-x="683" 
d="M335 905q-17 0 -24.5 -8.5t-10.5 -31.5l-62 6q2 17 6.5 34t15 30.5t29.5 22t49 8.5q50 0 72 -25.5t22 -65.5q0 -17 -6 -31t-16.5 -27t-24.5 -26.5t-30 -30.5l-40 35q27 26 39.5 44.5t12.5 35.5q0 18 -9 24t-23 6zM730 816q0 -76 -30.5 -122.5t-76.5 -68.5v-333
q0 -76 -21.5 -132.5t-60 -93.5t-90.5 -55t-112 -18q-61 0 -112 18t-88 55t-58 93.5t-21 132.5v414h140v-414q0 -85 37 -125.5t105 -40.5q67 0 104 40.5t37 125.5v414h43q48 0 77 23.5t29 86.5h98z" />
    <glyph glyph-name="uni1EED" unicode="&#x1eed;" horiz-adv-x="658" 
d="M322 753q-17 0 -24.5 -8.5t-10.5 -31.5l-62 6q2 17 6.5 34t15 30.5t29.5 22t49 8.5q50 0 72 -25.5t22 -65.5q0 -17 -6 -31t-16.5 -27t-24.5 -26.5t-30 -30.5l-40 35q27 26 39.5 44.5t12.5 35.5q0 18 -9 24t-23 6zM733 664q0 -44 -11 -78.5t-30 -59t-44.5 -41t-53.5 -24.5
v-461h-141v112q-23 -57 -73 -88t-116 -31q-47 0 -85.5 15.5t-66.5 46t-43 75t-15 102.5v322h140v-306q0 -68 34.5 -103.5t91.5 -35.5q60 0 96.5 38t36.5 113v294h76q48 0 77 23.5t29 86.5h98z" />
    <glyph glyph-name="uni1EEE" unicode="&#x1eee;" horiz-adv-x="683" 
d="M283 803q-33 0 -39 -42h-61q10 60 36 86.5t68 26.5q20 0 34.5 -6.5t27.5 -15t25.5 -15t26.5 -6.5q34 0 40 43h61q-9 -59 -36 -86t-69 -27q-20 0 -35 6.5t-28 14.5t-25 14.5t-26 6.5zM730 816q0 -76 -30.5 -122.5t-76.5 -68.5v-333q0 -76 -21.5 -132.5t-60 -93.5
t-90.5 -55t-112 -18q-61 0 -112 18t-88 55t-58 93.5t-21 132.5v414h140v-414q0 -85 37 -125.5t105 -40.5q67 0 104 40.5t37 125.5v414h43q48 0 77 23.5t29 86.5h98z" />
    <glyph glyph-name="uni1EEF" unicode="&#x1eef;" horiz-adv-x="658" 
d="M270 651q-33 0 -39 -42h-61q10 60 36 86.5t68 26.5q20 0 34.5 -6.5t27.5 -15t25.5 -15t26.5 -6.5q34 0 40 43h61q-9 -59 -36 -86t-69 -27q-20 0 -35 6.5t-28 14.5t-25 14.5t-26 6.5zM733 664q0 -44 -11 -78.5t-30 -59t-44.5 -41t-53.5 -24.5v-461h-141v112
q-23 -57 -73 -88t-116 -31q-47 0 -85.5 15.5t-66.5 46t-43 75t-15 102.5v322h140v-306q0 -68 34.5 -103.5t91.5 -35.5q60 0 96.5 38t36.5 113v294h76q48 0 77 23.5t29 86.5h98z" />
    <glyph glyph-name="uni1EF0" unicode="&#x1ef0;" horiz-adv-x="683" 
d="M730 816q0 -76 -30.5 -122.5t-76.5 -68.5v-333q0 -76 -21.5 -132.5t-60 -93.5t-90.5 -55t-112 -18q-61 0 -112 18t-88 55t-58 93.5t-21 132.5v414h140v-414q0 -85 37 -125.5t105 -40.5q67 0 104 40.5t37 125.5v414h43q48 0 77 23.5t29 86.5h98zM342 -64q27 0 45.5 -18.5
t18.5 -45.5q0 -26 -18.5 -44.5t-45.5 -18.5q-26 0 -44.5 18.5t-18.5 44.5q0 27 18.5 45.5t44.5 18.5z" />
    <glyph glyph-name="uni1EF1" unicode="&#x1ef1;" horiz-adv-x="658" 
d="M733 664q0 -44 -11 -78.5t-30 -59t-44.5 -41t-53.5 -24.5v-461h-141v112q-23 -57 -73 -88t-116 -31q-47 0 -85.5 15.5t-66.5 46t-43 75t-15 102.5v322h140v-306q0 -68 34.5 -103.5t91.5 -35.5q60 0 96.5 38t36.5 113v294h76q48 0 77 23.5t29 86.5h98zM329 -64
q27 0 45.5 -18.5t18.5 -45.5q0 -26 -18.5 -44.5t-45.5 -18.5q-26 0 -44.5 18.5t-18.5 44.5q0 27 18.5 45.5t44.5 18.5z" />
    <glyph glyph-name="Ygrave" unicode="&#x1ef2;" horiz-adv-x="645" 
d="M402 748l-172 84l36 74l162 -102zM633 706l-239 -459v-247h-142v247l-240 459h162l150 -309l150 309h159z" />
    <glyph glyph-name="ygrave" unicode="&#x1ef3;" horiz-adv-x="607" 
d="M409 652l-26 -56l-172 84l36 74zM159 554l151 -376l140 376h155l-339 -818h-156l125 280l-233 538h157z" />
    <glyph glyph-name="uni1EF4" unicode="&#x1ef4;" horiz-adv-x="645" 
d="M633 706l-239 -459v-247h-142v247l-240 459h162l150 -309l150 309h159zM323 -64q27 0 45.5 -18.5t18.5 -45.5q0 -26 -18.5 -44.5t-45.5 -18.5q-26 0 -44.5 18.5t-18.5 44.5q0 27 18.5 45.5t44.5 18.5z" />
    <glyph glyph-name="uni1EF5" unicode="&#x1ef5;" horiz-adv-x="607" 
d="M159 554l151 -376l140 376h155l-339 -818h-156l125 280l-233 538h157zM414 -128q0 27 18.5 45.5t44.5 18.5q27 0 45.5 -18.5t18.5 -45.5q0 -26 -18.5 -44.5t-45.5 -18.5q-26 0 -44.5 18.5t-18.5 44.5z" />
    <glyph glyph-name="uni1EF6" unicode="&#x1ef6;" horiz-adv-x="645" 
d="M316 905q-17 0 -24.5 -8.5t-10.5 -31.5l-62 6q2 17 6.5 34t15 30.5t29.5 22t49 8.5q50 0 72 -25.5t22 -65.5q0 -17 -6 -31t-16.5 -27t-24.5 -26.5t-30 -30.5l-40 35q27 26 39.5 44.5t12.5 35.5q0 18 -9 24t-23 6zM633 706l-239 -459v-247h-142v247l-240 459h162l150 -309
l150 309h159z" />
    <glyph glyph-name="uni1EF7" unicode="&#x1ef7;" horiz-adv-x="607" 
d="M300 814q50 0 72 -25.5t22 -65.5q0 -17 -6 -31t-16.5 -27t-24.5 -26.5t-30 -30.5l-40 35q27 26 39.5 44.5t12.5 35.5q0 18 -9 24t-23 6q-17 0 -24.5 -8.5t-10.5 -31.5l-62 6q2 17 6.5 34t15 30.5t29.5 22t49 8.5zM159 554l151 -376l140 376h155l-339 -818h-156l125 280
l-233 538h157z" />
    <glyph glyph-name="uni1EF8" unicode="&#x1ef8;" horiz-adv-x="645" 
d="M264 803q-33 0 -39 -42h-61q10 60 36 86.5t68 26.5q20 0 34.5 -6.5t27.5 -15t25.5 -15t26.5 -6.5q34 0 40 43h61q-9 -59 -36 -86t-69 -27q-20 0 -35 6.5t-28 14.5t-25 14.5t-26 6.5zM633 706l-239 -459v-247h-142v247l-240 459h162l150 -309l150 309h159z" />
    <glyph glyph-name="uni1EF9" unicode="&#x1ef9;" horiz-adv-x="607" 
d="M249 722q20 0 34.5 -6.5t27.5 -15t25.5 -15t26.5 -6.5q34 0 40 43h61q-9 -59 -36 -86t-69 -27q-20 0 -35 6.5t-28 14.5t-25 14.5t-26 6.5q-33 0 -39 -42h-61q10 60 36 86.5t68 26.5zM159 554l151 -376l140 376h155l-339 -818h-156l125 280l-233 538h157z" />
    <glyph glyph-name="endash" unicode="&#x2013;" horiz-adv-x="642" 
d="M593 415v-117h-544v117h544z" />
    <glyph glyph-name="emdash" unicode="&#x2014;" horiz-adv-x="867" 
d="M818 415v-117h-769v117h769z" />
    <glyph glyph-name="quoteleft" unicode="&#x2018;" horiz-adv-x="217" 
d="M59 576q-9 30 -13 57t-4 52q0 63 31 100t95 37v-55q-51 0 -51 -63v-18h58v-110h-116z" />
    <glyph glyph-name="quoteright" unicode="&#x2019;" horiz-adv-x="217" 
d="M159 822q9 -30 12.5 -57t3.5 -51q0 -63 -31 -100.5t-94 -37.5v56q51 0 51 62v19h-58v109h116z" />
    <glyph glyph-name="quotesinglbase" unicode="&#x201a;" horiz-adv-x="221" 
d="M153 91q17 -39 22 -83t-6 -81.5t-41.5 -62t-83.5 -24.5v54q25 0 37.5 12t12.5 45v10h-64v130h123z" />
    <glyph glyph-name="quotedblleft" unicode="&#x201c;" horiz-adv-x="387" 
d="M59 576q-9 30 -13 57t-4 52q0 63 31 100t95 37v-55q-51 0 -51 -63v-18h58v-110h-116zM228 576q-9 30 -13 57t-4 52q0 63 31.5 100t94.5 37v-55q-51 0 -51 -63v-18h58v-110h-116z" />
    <glyph glyph-name="quotedblright" unicode="&#x201d;" horiz-adv-x="387" 
d="M159 822q9 -30 12.5 -57t3.5 -51q0 -63 -31 -100.5t-94 -37.5v56q51 0 51 62v19h-58v109h116zM328 822q9 -30 13 -57t4 -51q0 -63 -31.5 -100.5t-94.5 -37.5v56q51 0 51 62v19h-58v109h116z" />
    <glyph glyph-name="quotedblbase" unicode="&#x201e;" horiz-adv-x="387" 
d="M159 109q9 -30 12.5 -57t3.5 -51q0 -63 -31 -100.5t-94 -37.5v56q51 0 51 62v19h-58v109h116zM328 109q9 -30 13 -57t4 -51q0 -63 -31.5 -100.5t-94.5 -37.5v56q51 0 51 62v19h-58v109h116z" />
    <glyph glyph-name="dagger" unicode="&#x2020;" horiz-adv-x="602" 
d="M559 447l-202 10l14 -721h-140l13 721l-201 -10v107l201 -10l-13 242h140l-14 -242l202 10v-107z" />
    <glyph glyph-name="daggerdbl" unicode="&#x2021;" horiz-adv-x="602" 
d="M357 457v-392l203 12v-109l-203 10l13 -242h-140l14 242l-202 -10v109l202 -12v392l-202 -10v107l202 -10l-14 242h140l-13 -242l203 10v-107z" />
    <glyph glyph-name="bullet" unicode="&#x2022;" horiz-adv-x="424" 
d="M72 333q0 30 11 55.5t30 44.5t44.5 30t54.5 11q30 0 55.5 -11t44 -30t29.5 -44.5t11 -55.5q0 -29 -11 -54.5t-29.5 -44t-44 -29.5t-55.5 -11q-29 0 -54.5 11t-44.5 29.5t-30 44t-11 54.5z" />
    <glyph glyph-name="ellipsis" unicode="&#x2026;" horiz-adv-x="657" 
d="M181 147v-147h-152v147h152zM404 147v-147h-152v147h152zM627 147v-147h-152v147h152z" />
    <glyph glyph-name="perthousand" unicode="&#x2030;" horiz-adv-x="1102" 
d="M187 717q34 0 63 -10.5t50.5 -31t33.5 -50t12 -68.5q0 -38 -12 -68t-33.5 -50.5t-50.5 -31t-63 -10.5t-63 10.5t-50.5 31t-33.5 50.5t-12 68q0 39 12 68.5t33.5 50t50.5 31t63 10.5zM639 708l-393 -708h-136l393 708h136zM123 557q0 -35 17 -55t46 -20t47 20t18 55
t-18 55t-47 20t-46 -20t-17 -55zM563 311q68 0 113 -41.5t45 -118.5t-45 -118.5t-113 -41.5q-34 0 -63 10.5t-50.5 31t-33.5 50t-12 68.5t12 68.5t33.5 50t50.5 31t63 10.5zM916 311q34 0 63 -10.5t50 -31t33 -50t12 -68.5t-12 -68.5t-33 -50t-50 -31t-63 -10.5t-63.5 10.5
t-51 31t-33.5 50t-12 68.5t12 68.5t33.5 50t51 31t63.5 10.5zM499 151q0 -35 17 -55.5t46 -20.5t47 20.5t18 55.5t-18 55.5t-47 20.5t-46 -20.5t-17 -55.5zM851 151q0 -35 17.5 -55.5t46.5 -20.5t47 20.5t18 55.5t-18 55.5t-47 20.5t-46.5 -20.5t-17.5 -55.5z" />
    <glyph glyph-name="guilsinglleft" unicode="&#x2039;" horiz-adv-x="315" 
d="M134 120l-89 175l89 175h131l-91 -175l91 -175h-131z" />
    <glyph glyph-name="guilsinglright" unicode="&#x203a;" horiz-adv-x="315" 
d="M142 295l-92 175h132l88 -175l-88 -175h-132z" />
    <glyph glyph-name="fraction" unicode="&#x2044;" horiz-adv-x="416" 
d="M466 708l-393 -708h-137l393 708h137z" />
    <glyph glyph-name="uni20A8" unicode="&#x20a8;" horiz-adv-x="1133" 
d="M585 488q0 -79 -44 -133.5t-129 -72.5l176 -282h-156l-165 275h-62v-275h-141v706h269q64 0 111.5 -16.5t78.5 -46t46.5 -69t15.5 -86.5zM205 372h116q65 0 93 28t28 79q0 49 -28 78.5t-93 29.5h-116v-215zM759 394q0 -27 25 -41t62.5 -23.5t81.5 -18t81.5 -26
t62.5 -47.5t25 -81q0 -35 -13.5 -65t-40 -52t-64.5 -34.5t-87 -12.5q-109 0 -176 48.5t-81 138.5h138q5 -38 36 -60t82 -22q40 0 59 18t19 44q0 29 -25 43.5t-62 23.5t-80.5 18t-80.5 26t-62 46.5t-25 81.5q0 35 14 64.5t41 51t66 34t90 12.5q55 0 97.5 -14t73.5 -38.5
t50 -59t26 -75.5h-139q-6 36 -34 59t-76 23q-39 0 -61.5 -16.5t-22.5 -45.5z" />
    <glyph glyph-name="Euro" unicode="&#x20ac;" horiz-adv-x="809" 
d="M430 124q71 0 118.5 34t69.5 89h149q-14 -57 -42.5 -103.5t-71 -80t-98 -51.5t-122.5 -18q-64 0 -118 18t-96.5 51.5t-72 80.5t-43.5 104h-86v66h76q-1 10 -1.5 19.5t-0.5 19.5v18t1 17h-75v67h85q14 59 43 106.5t71.5 81t97.5 52t119 18.5q67 0 122.5 -18t98 -51.5
t71 -80t42.5 -103.5h-149q-22 55 -69.5 89t-118.5 34q-63 0 -109.5 -33.5t-68.5 -94.5h202v-67h-217q-1 -8 -1.5 -17t-0.5 -18q0 -10 0.5 -19.5t1.5 -19.5h217v-66h-201q23 -59 69.5 -91.5t107.5 -32.5z" />
    <glyph glyph-name="uni20B9" unicode="&#x20b9;" horiz-adv-x="616" 
d="M470 612v-86h102v-81h-105q-6 -43 -23.5 -77t-49.5 -57.5t-80.5 -35.5t-115.5 -12v-63q0 -49 20.5 -76.5t65.5 -27.5q83 0 83 104h131q-4 -97 -56 -153.5t-152 -56.5q-109 0 -166.5 56.5t-57.5 173.5v135q78 0 128.5 3t80.5 13t43.5 27.5t17.5 46.5h-292v81h294v86h-294
v94h528v-94h-102z" />
    <glyph glyph-name="uni20BA" unicode="&#x20ba;" horiz-adv-x="799" 
d="M767 441q0 -116 -20.5 -201t-65.5 -141t-116 -83.5t-172 -27.5q-51 0 -105.5 7t-115.5 18v236l-140 -28v85l140 28v80l-140 -29v83l140 29v212h143v-182l153 32v-85l-153 -31v-80l155 31v-86l-155 -31v-149q20 -5 39.5 -6.5t37.5 -1.5q71 0 116 24.5t70.5 67t35.5 101.5
t10 128h143z" />
    <glyph glyph-name="uni20BD" unicode="&#x20bd;" horiz-adv-x="661" 
d="M265 285v-80h178v-106h-178v-99h-141v99h-92v106h92v80h-92v109h92v312h257q64 0 111.5 -15.5t78.5 -43t46.5 -66t15.5 -85.5q0 -98 -63.5 -154.5t-188.5 -56.5h-116zM265 394h108q63 0 90 28t27 74t-27 74.5t-90 28.5h-108v-205z" />
    <glyph glyph-name="uni2113" unicode="&#x2113;" horiz-adv-x="269" 
d="M205 740v-740h-141v740h141z" />
    <glyph glyph-name="trademark" unicode="&#x2122;" horiz-adv-x="844" 
d="M30 706h288v-84h-94v-266h-100v266h-94v84zM810 706v-350h-93l-2 224l-96 -224h-70l-96 233v-233h-88v350h135l87 -231l100 231h123z" />
    <glyph glyph-name="uni2126" unicode="&#x2126;" horiz-adv-x="792" 
d="M753 373q0 -84 -29.5 -152.5t-98.5 -113.5h120v-107h-272v112q61 32 98.5 92.5t37.5 149.5q0 54 -15.5 97t-43.5 73t-67.5 46t-86.5 16q-48 0 -87 -16.5t-67.5 -46.5t-44 -73t-15.5 -96q1 -89 39 -149.5t98 -92.5v-112h-272v107h120q-69 45 -98 113.5t-29 152.5
q0 80 27.5 144t75.5 108t113 67.5t140 23.5q74 0 139 -23.5t113.5 -67.5t76.5 -108t28 -144z" />
    <glyph glyph-name="estimated" unicode="&#x212e;" horiz-adv-x="753" 
d="M385 -7q-74 0 -137 22.5t-109.5 66t-72.5 107t-26 145.5q0 79 22 147t65 118.5t105.5 79.5t143.5 29t144 -27.5t106 -73t65.5 -104.5t22.5 -122v-63h-505v-173q35 -33 78 -50t98 -17q75 0 133.5 30.5t114.5 85.5l52 -59q-63 -67 -137 -104.5t-163 -37.5zM540 567
q-29 29 -71 44t-93 15q-105 0 -167 -67v-162h331v170z" />
    <glyph glyph-name="partialdiff" unicode="&#x2202;" horiz-adv-x="597" 
d="M301 557q21 0 41.5 -4.5t38 -16t31 -31t20.5 -50.5q-4 45 -13.5 82.5t-29 64.5t-50.5 42t-77 15q-15 0 -31.5 -2t-33.5 -5v72q60 16 114 16q122 0 186.5 -83.5t64.5 -248.5q0 -97 -20.5 -174t-59.5 -131t-95 -82.5t-127 -28.5q-45 0 -86 15t-72 45.5t-49 77t-18 109.5
q0 69 19.5 127t54.5 100.5t84 66.5t108 24zM315 440q-33 0 -58.5 -15t-43 -42t-26.5 -63.5t-9 -79.5q0 -67 28.5 -96t65.5 -29q33 0 59 16t43 43.5t26 65.5t9 81q0 63 -26 91t-68 28z" />
    <glyph glyph-name="uni2206" unicode="&#x2206;" horiz-adv-x="715" 
d="M415 700l280 -592v-108h-675v108l280 592h115zM165 108h385l-193 432z" />
    <glyph glyph-name="product" unicode="&#x220f;" horiz-adv-x="744" 
d="M712 708v-107h-74v-601h-141v601h-250v-601h-141v601h-74v107h680z" />
    <glyph glyph-name="summation" unicode="&#x2211;" horiz-adv-x="506" 
d="M486 592h-321l252 -207v-108l-257 -230h326v-108h-446v164l242 224l-242 210v163h446v-108z" />
    <glyph glyph-name="minus" unicode="&#x2212;" horiz-adv-x="481" 
d="M453 415v-117h-425v117h425z" />
    <glyph glyph-name="radical" unicode="&#x221a;" horiz-adv-x="876" 
d="M851 891l-512 -933h-65l-140 248l-76 -43l-41 66l201 117l129 -228l422 773h82z" />
    <glyph glyph-name="infinity" unicode="&#x221e;" horiz-adv-x="737" 
d="M553 511q81 -1 126 -43t45 -120q0 -39 -13 -69.5t-36 -51.5t-54 -32t-66 -11q-66 0 -110.5 27.5t-77.5 64.5q-27 -40 -70.5 -66.5t-100.5 -25.5q-80 1 -125 43t-45 120q0 39 13 69.5t36 51.5t54 32t66 11q34 0 61.5 -8t49.5 -21.5t40 -31.5t33 -37q27 42 71 70.5
t103 27.5zM206 278q64 0 107 65q-25 32 -49.5 54t-56.5 22t-51.5 -19.5t-19.5 -52.5q0 -32 18.5 -50.5t51.5 -18.5zM542 277q33 0 52.5 19.5t19.5 51.5t-18.5 51t-51.5 19t-62 -19.5t-51 -54.5q23 -29 48.5 -48t62.5 -19z" />
    <glyph glyph-name="integral" unicode="&#x222b;" horiz-adv-x="281" 
d="M116 769q5 47 21.5 78.5t42.5 50.5t59.5 27t72.5 8h18l-12 -121h-20q-17 0 -28 -10t-14 -33l-88 -841q-5 -48 -21 -80t-41 -51.5t-58.5 -28t-73.5 -8.5h-20l12 121h21q21 0 29 10.5t11 36.5z" />
    <glyph glyph-name="approxequal" unicode="&#x2248;" horiz-adv-x="591" 
d="M205 578q32 0 57 -10.5t47 -23t42.5 -23t42.5 -10.5q51 0 62 68h107q-16 -101 -62.5 -147.5t-114.5 -46.5q-31 0 -56.5 10.5t-47.5 23t-42.5 23t-42.5 10.5q-27 0 -42 -17.5t-21 -50.5h-106q17 101 63 147.5t114 46.5zM205 343q32 0 57 -10.5t47 -23t42.5 -23t42.5 -10.5
q51 0 62 68h107q-16 -101 -62.5 -147.5t-114.5 -46.5q-31 0 -56.5 10.5t-47.5 23t-42.5 23t-42.5 10.5q-27 0 -42 -17.5t-21 -50.5h-106q17 101 63 147.5t114 46.5z" />
    <glyph glyph-name="notequal" unicode="&#x2260;" horiz-adv-x="601" 
d="M378 411l-81 -111h276v-127h-368l-75 -104h-73l75 104h-104v127h196l80 111h-276v128h369l75 104h74l-75 -104h102v-128h-195z" />
    <glyph glyph-name="lessequal" unicode="&#x2264;" horiz-adv-x="452" 
d="M247 206l-219 187l219 188h175l-217 -188l217 -187h-175zM424 143v-110h-378v110h378z" />
    <glyph glyph-name="greaterequal" unicode="&#x2265;" horiz-adv-x="452" 
d="M30 206l217 187l-217 188h175l219 -188l-219 -187h-175zM28 143h378v-110h-378v110z" />
    <glyph glyph-name="lozenge" unicode="&#x25ca;" horiz-adv-x="561" 
d="M535 352l-254 -255l-255 255l255 254zM166 352l115 -116l115 116l-115 115z" />
    <glyph glyph-name="fi" unicode="&#xfb01;" horiz-adv-x="625" 
d="M226 554h324v-554h-141v435h-183v-435h-141v435h-70v119h70v13q0 105 61 159t184 46v-122q-59 3 -81.5 -19t-22.5 -76v-1zM480 625q-40 0 -63.5 20.5t-23.5 52.5q0 33 23.5 53.5t63.5 20.5t63.5 -20.5t23.5 -53.5q0 -32 -23.5 -52.5t-63.5 -20.5z" />
    <glyph glyph-name="fl" unicode="&#xfb02;" horiz-adv-x="627" 
d="M85 567q0 105 63 159t190 46v-122q-63 4 -87.5 -18.5t-24.5 -76.5v-1h112v-119h-112v-435h-141v435h-71v119h71v13zM563 740v-740h-141v740h141z" />
    <glyph glyph-name="uni03020300" horiz-adv-x="0" 
d="M-18 792l-25 -53l-162 80l34 70zM-168 683l-102 -52l-23 56l125 70l124 -70l-23 -56z" />
    <glyph glyph-name="uni03020301" horiz-adv-x="0" 
d="M-45 835l-173 -74l-23 48l168 93zM-157 682l-102 -52l-23 56l125 70l124 -70l-23 -56z" />
    <glyph glyph-name="uni03020303" horiz-adv-x="0" 
d="M-196 863q16 0 29 -5.5t24 -12.5t21.5 -12.5t22.5 -5.5q28 0 34 36h51q-8 -50 -31 -73t-58 -23q-17 0 -30 5.5t-24 12.5t-21 12.5t-22 5.5q-29 0 -33 -36h-52q8 51 31 73.5t58 22.5zM-168 685l-102 -52l-23 56l125 70l124 -70l-23 -56z" />
    <glyph glyph-name="uni03020309" horiz-adv-x="0" 
d="M-21 895q48 0 68.5 -24t20.5 -62q0 -31 -21.5 -54t-51.5 -54l-38 33q26 25 38 42.5t12 32.5q0 17 -8.5 23t-22.5 6q-15 0 -22.5 -8.5t-10.5 -29.5l-58 6q1 16 5.5 32t14.5 28.5t27.5 20.5t46.5 8zM-162 682l-102 -52l-23 56l125 70l124 -70l-23 -56z" />
    <glyph glyph-name="uni03060300" horiz-adv-x="0" 
d="M-109 826l-25 -53l-162 80l34 70zM-182 617q-61 0 -96.5 36t-35.5 99v10h55q0 -30 18 -47t59 -17t59 17t18 47h55v-10q0 -63 -35.5 -99t-96.5 -36z" />
    <glyph glyph-name="uni03060301" horiz-adv-x="0" 
d="M-22 865l-173 -74l-23 48l168 93zM-177 617q-61 0 -96.5 36t-35.5 99v10h55q0 -30 18 -47t59 -17t59 17t18 47h55v-10q0 -63 -35.5 -99t-96.5 -36z" />
    <glyph glyph-name="uni03060303" horiz-adv-x="0" 
d="M-220 900q18 0 32.5 -6.5t26.5 -14t23.5 -14t25.5 -6.5q32 0 38 41h57q-8 -56 -34 -81.5t-65 -25.5q-19 0 -33.5 6t-26.5 13.5t-23.5 13.5t-24.5 6q-31 0 -37 -39h-57q9 56 34 81.5t64 25.5zM-179 617q-61 0 -96.5 36t-35.5 99v10h55q0 -30 18 -47t59 -17t59 17t18 47h55
v-10q0 -63 -35.5 -99t-96.5 -36z" />
    <glyph glyph-name="uni03060309" horiz-adv-x="0" 
d="M-191 949q48 0 68.5 -24t20.5 -62q0 -31 -21.5 -54t-51.5 -54l-38 33q26 25 38 42.5t12 32.5q0 17 -8.5 23t-22.5 6q-15 0 -22.5 -8.5t-10.5 -29.5l-58 6q1 16 5.5 32t14.5 28.5t27.5 20.5t46.5 8zM-181 616q-61 0 -96.5 36t-35.5 99v10h55q0 -30 18 -47t59 -17t59 17
t18 47h55v-10q0 -63 -35.5 -99t-96.5 -36z" />
  </font>
</defs>
</svg>
